<svg xmlns="http://www.w3.org/2000/svg" viewBox="0 0 314 95.64"><g id="Layer_2" data-name="Layer 2"><g id="Layer_1-2" data-name="Layer 1"><g id="layer1"><g id="g3017"><path id="path3003" d="M47.26,0A47.41,47.41,0,0,0,0,47.67c0,26.47,20.93,48,47.26,48s47.11-21.5,47.11-48C94.37,21.5,73.72,0,47.26,0Zm0,20.24A49.11,49.11,0,0,1,91.15,47.68c-6.66,14-22.4,27.72-43.89,27.72A48.81,48.81,0,0,1,3.35,47.68,49,49,0,0,1,47.26,20.24Zm0,2.17A25.34,25.34,0,1,0,72.52,47.68,25.37,25.37,0,0,0,47.26,22.41Z"/><path id="path3005" d="M139.55,5.67c-24.72,0-41.94,18.77-41.94,41.59v.27c0,23.1,17.57,41.38,41.31,41.38,15.47,0,24.72-5.53,33-14.43L160.63,63.15c-6.31,5.74-12,9.46-21.16,9.46-13.79,0-23.38-11.57-23.38-25.35v-.21c0-13.79,9.8-25.07,23.38-25.07,8.05,0,14.36,3.43,20.59,9.1l11.27-13C163.84,10.71,154.74,5.67,139.55,5.67Z"/><path id="path3007" d="M178.57,7.07V87.5h38.29c18.13,0,30.1-7.34,30.1-22v-.28c0-10.78-5.73-16.18-15.05-19.74,5.74-3.22,10.57-8.26,10.57-17.36v-.21A18.47,18.47,0,0,0,237,14.14c-4.62-4.54-11.83-7.07-21-7.07Zm17.21,15.47h17.51c7.49,0,11.61,3,11.61,8.26v.28c0,6-5,8.47-12.8,8.47H195.78v-17Zm0,31.73H216.3c9,0,13.09,3.36,13.09,8.75v.27c0,5.95-4.76,8.68-12.53,8.68H195.78V54.27Z"/><path id="path3009" d="M281.66,5.88c-16.38,0-28.13,9.66-28.13,24.29v.21c0,16,10.49,20.45,26.67,24.59,13.44,3.49,16.23,5.73,16.23,10.21v.28c0,4.69-4.41,7.56-11.62,7.56-9.24,0-16.8-3.78-24-9.73L250.3,75.82a51.27,51.27,0,0,0,34.16,12.82h0c17.36,0,29.54-9,29.54-24.92V63.5c0-14.07-9.24-19.89-25.55-24.16-13.86-3.57-17.37-5.32-17.37-10.57v-.21c0-3.92,3.57-7.06,10.37-7.06s13.79,3,20.93,8l9.18-13.35A46.64,46.64,0,0,0,281.66,5.88Z"/></g></g></g></g></svg>