<?xml version="1.0" encoding="utf-8"?>
<!-- Generator: Adobe Illustrator 24.2.3, SVG Export Plug-In . SVG Version: 6.00 Build 0)  -->
<svg version="1.1" id="Layer_1" xmlns="http://www.w3.org/2000/svg" xmlns:xlink="http://www.w3.org/1999/xlink" x="0px" y="0px"
	 viewBox="0 0 96 96" style="enable-background:new 0 0 96 96;" xml:space="preserve">
<style type="text/css">
	.st0{fill:#1CD090;}
</style>
<g>
	<path class="st0" d="M49.8,68.3c-1.4,0-2.7-0.6-3.8-1.6L27.5,48.2c-1-1-1.6-2.3-1.6-3.8s0.6-2.7,1.6-3.8c1-1,2.3-1.6,3.8-1.6
		c1.4,0,2.8,0.6,3.8,1.6l14,14L82.1,5.5c1-1.5,2.6-2.3,4.4-2.3c1.1,0,2.1,0.3,3,0.9c2.4,1.6,3.1,4.9,1.4,7.4L54.2,66
		c-0.9,1.3-2.3,2.2-3.9,2.3C50.2,68.3,50,68.3,49.8,68.3z"/>
</g>
</svg>
