<svg xmlns="http://www.w3.org/2000/svg" viewBox="0 0 339.05 60.98"><g id="Layer_2" data-name="Layer 2"><g id="Layer_1-2" data-name="Layer 1"><path d="M0,30.23C0,41.13,8.91,61,43,61c31.39,0,41.3-14.4,41.3-21H60S58.8,48.7,45.09,48.7,27.67,37.26,27.67,30.64s3.71-17.43,17.42-17.43S60,20.81,60,20.81h24.3C84.25,14.2,77,0,43,0S0,21.14,0,30.23"/><path d="M254.8,30.23c0,10.9,8.93,30.75,43,30.75,31.38,0,41.29-14.4,41.29-21H314.77s-1.15,8.72-14.86,8.72-17.43-11.44-17.43-18.06,3.71-17.43,17.43-17.43,14.86,7.6,14.86,7.6h24.28C339.05,14.2,331.79,0,297.76,0s-43,21.14-43,30.23"/><polyline points="150.65 1.02 150.65 37.93 122.37 1.02 90.57 1.02 90.57 59.49 112.37 59.49 112.37 22.15 140.15 59.49 172.46 59.49 172.46 1.02 150.65 1.02"/><path d="M220.53,45.52v.08H202.36V34.86h18.17v0c3.88,0,7,2.38,7,5.32s-3.13,5.3-7,5.3m-18-33.13H220v0c3,0,5.37,1.95,5.37,4.35S223,21.11,220,21.11v0H202.52Zm35.85,16c4,0,12.27-4.6,12.27-13.53C250.64,2.16,227,1,223.34,1H179.72V59.49h43.62c21,0,29.4-6.63,29.4-17.69S238.37,28.4,238.37,28.4Z"/></g></g></svg>