<svg xmlns="http://www.w3.org/2000/svg" viewBox="0 0 219.48 92.74"><defs><style>.cls-1{fill-rule:evenodd;}</style></defs><g id="Layer_2" data-name="Layer 2"><g id="Layer_1-2" data-name="Layer 1"><g id="layer1"><g id="g1614"><path id="path991-0" class="cls-1" d="M193.22,46.42l26.26,46.27-30.24,0L178.13,73.11,167,92.74l-30.23,0,26.25-46.27L136.8,0h30.08l11.25,19.84L189.39,0h30.09ZM104.34,0A46.33,46.33,0,1,1,58,46.36,46.33,46.33,0,0,1,104.34,0Zm8.11,27.28a8.37,8.37,0,0,0-8-8.23c-4.23,0-7.65,3.89-7.65,8.23v38a7.76,7.76,0,0,0,7.65,7.87,8,8,0,0,0,8-7.75ZM0,92.69V0H57.64l1.7,25.28H28.06V37.41H53.57V62.77H28.06V92.69Z"/></g></g></g></g></svg>