<svg width="1440" height="75" viewBox="0 0 1440 75" fill="none" xmlns="http://www.w3.org/2000/svg">
<path d="M1703.1 17.3C1703.2 17.2 1703.2 17.2 1703 17C1704.2 16.9 1705.5 16.9 1706.7 16.8V12.6C1706.39 12.5814 1706.09 12.5139 1705.8 12.4C1707.3 12 1705.4 11.4 1704.1 11.4C1703.9 12.4 1700.6 11.1 1699.6 11.5C1701.1 11.6 1698.3 12.1 1696.9 11.9C1697 11.2 1693.9 11.6 1693.8 10.6C1694.8 11.1 1694.1 10.1 1695.2 10.2C1695.8 10.6 1697.6 10.5 1698.3 10.8C1698.4 9.8 1699.9 10.8 1700.7 10.8C1700.9 10.4 1700.8 10.3 1702.1 10.7C1702.4 10.3 1703.1 10.2 1704.2 10.1C1703.5 10.4 1704.6 10.9 1705.9 10.8L1706.8 10.5V8.4C1705.24 8.53223 1703.67 8.56563 1702.1 8.5C1700.3 9.8 1694.1 8.3 1691.1 8.4C1689.3 9.2 1687 8.6 1684.2 9C1683.4 9.2 1684.6 9.4 1683.9 9.4C1681.8 8.9 1680 8.2 1679.4 7C1671.1 5.9 1660.8 7.5 1653 6.4C1652.8 7.3 1649.1 6.4 1650.3 7.1C1646.1 6.7 1645.4 9.1 1641 8.3C1640.9 8.5 1641.1 8.7 1640.7 8.7C1639.6 8.1 1637.9 8.3 1636.6 8.3C1637.4 7.9 1637.1 7.6 1637.3 6.8C1633.87 5.74682 1630.29 5.24062 1626.7 5.3C1620.3 5.4 1611.8 5.3 1608.5 5.7C1608.12 5.58451 1607.78 5.37853 1607.5 5.1C1605.7 5 1604.7 5.4 1603.4 5.1V6C1600.5 6.5 1598.2 5.3 1594.8 5.6C1595.9 6.7 1594.5 7.7 1591 7.4C1590.78 7.62054 1590.51 7.7889 1590.22 7.89272C1589.92 7.99654 1589.61 8.0332 1589.3 8C1587.3 7.6 1582.2 7.7 1580.7 8.4C1576.2 8.6 1573.9 7.8 1571.4 8C1571.5 7.8 1571.9 7.7 1571.7 7.4C1570.4 7.2 1571.2 8 1570 7.8C1569.6 7.2 1567 7.5 1565.9 7.2C1564.3 8 1562.6 8 1560.7 8.5C1560.2 8.5 1560.4 8.1 1559.7 8.2C1558 9.1 1553.1 8.9 1549.1 9.2V9.9C1551.3 9.9 1553.1 9.7 1555.6 9.8C1555.4 9.3 1555.9 9.1 1557 9.2C1556.4 9.5 1557 9.4 1557 9.8C1557.6 9.8 1558.7 9.7 1558.4 10.1H1558.2C1557.2 10.9 1554.5 10.9 1555.4 12C1553.1 12.1 1550.8 12 1548.6 12.1C1548.7 12.8 1548.2 12.9 1547.7 13C1546 12.1 1543.9 12.1 1542.1 11.8C1540.5 11.5 1540 10.8 1538.8 10.6C1538.8 10.6 1538.6 10.9 1538.5 10.9C1537.56 10.8447 1536.62 10.7109 1535.7 10.5C1533.3 10.5 1531.2 10.9 1528.7 10.6C1528.8 10.7 1528.7 11 1528.7 11.2C1526.7 11.2 1524.7 11.3 1522.9 11.4C1523.1 11.4 1523.3 11.5 1522.9 11.5C1522.4 11.3 1522.9 10.7 1521.5 10.9C1521 11.1 1521 11.5 1520.1 11.5C1519.4 10.7 1511.6 10.8 1509.1 11.4C1509 11.1 1509.5 11.1 1509.4 10.8C1505.9 11 1501.9 11 1498.8 11.7V11.1C1496.8 11.5 1494.5 10.8 1493.3 11.5C1493.1 11.1 1490.6 11.2 1490.9 11.5C1489.1 10.7 1487.1 11 1484.7 11.1C1483.9 11.3 1485.1 11.5 1484.4 11.5C1478.7 11 1473.6 11.1 1468.3 11.1C1467.4 10.1 1465.3 10.5 1463.6 10.5H1463.4C1462.2 10.5 1461.1 10.2 1460.7 9.2C1460.2 9.6 1459.5 9.1 1459.1 9.8C1458.57 9.67238 1458.04 9.57225 1457.5 9.5C1457.6 10.4 1456.6 10.2 1456.1 9.9C1455.7 10.7 1454.2 9.9 1452.8 10.2C1453 10.5 1452.9 10.7 1452.8 11C1450.8 10.9 1448.5 11.3 1446.2 10.9C1446.09 11.0235 1445.95 11.1252 1445.8 11.2C1444.86 11.2169 1443.93 11.2836 1443 11.4C1441.6 10.7 1438.6 11.2 1436.5 10.9C1436.04 11.2732 1435.49 11.5151 1434.9 11.6C1433.28 11.066 1431.6 10.7302 1429.9 10.6C1428.6 10.6 1427.6 11 1426.2 10.7C1426.2 10.3 1425.7 10.5 1425.2 10.3C1425.4 11 1424.2 10.7 1424 11C1424.09 11.0719 1424.14 11.1717 1424.16 11.2816C1424.18 11.3915 1424.16 11.5044 1424.1 11.6C1423.38 11.4579 1422.72 11.1104 1422.2 10.6C1423.3 10.3 1423.3 10 1423.2 9.1C1424.5 8.8 1427.2 8.6 1425.9 8.1C1427.5 8.25033 1429.1 8.25033 1430.7 8.1C1429.5 7.8 1430.5 7.5 1430.7 7.1C1429.4 7.1 1429.8 6.4 1428 6.7C1428.3 7.6 1426 7.3 1425.3 7.7C1425.7 7.7 1425.8 7.9 1426 8C1423.5 8 1415.6 8.4 1415.4 6.5C1417.8 4.8 1415.3 3.5 1412 2.5C1412.3 1.7 1412 1.1 1411.3 0.3C1409.9 0.5 1409 0 1408.2 0.3C1407.9 0.8 1409.3 0.5 1409.2 0.9C1404.6 0.7 1401 2.2 1397.5 1.5C1395.3 2 1392.6 1.4 1391.3 2.7C1391.9 2.9 1393.1 2.9 1392.7 3.6C1385.5 4.8 1375.6 3.4 1370.7 3.9C1371 3.9 1371.4 3.9 1371.4 4C1369.6 4 1366.5 3.4 1365.9 4.3C1363.5 3.8 1361.3 4.3 1359.7 4.2C1360.5 4.4 1359.5 5.6 1359.4 5.7C1359.7 5.1 1357.9 5.5 1358.4 4.8C1354.92 3.99256 1351.37 3.55678 1347.8 3.5C1347 3.5 1346.4 4 1345.7 3.5C1344.9 3.7 1346.1 4.1 1345.4 4.1C1343.8 3.6 1343.7 4.2 1342 4C1343.4 5.1 1349 5.1 1350.9 5C1350.6 5.5 1351.3 5.6 1351.6 5.9C1353.42 5.75607 1355.23 6.17508 1356.8 7.1H1355.1C1355 7.7 1355.6 7.1 1356.5 7.2C1356.1 7.4 1356.1 7.6 1356.5 7.8C1355.7 7.4 1355 7.9 1353.8 7.8C1353 7.5 1352.7 6.3 1351.4 6.8C1351.74 6.87175 1352.08 6.97211 1352.4 7.1C1350.6 7.1 1352.1 7.1 1352.1 7.5C1350.8 7.3 1351.4 7.9 1350.4 7.8C1349.6 7 1347.5 6.9 1346.3 6.3C1345.1 6.6 1341.2 6.6 1338.4 7C1339.2 6.6 1338 6.3 1337.4 6.1C1336.1 7 1334.4 6.4 1332.9 6.8C1333 6.8 1333 6.8 1333.1 6.9C1332.5 6.8 1332 6.7 1331.6 6.6H1330.5V6.5C1328.56 6.4675 1326.66 5.91502 1325 4.9C1325.5 5 1325.3 5.4 1326.4 5.2C1326.4 5 1326.2 4.9 1326.1 4.8C1327.2 5 1326.9 4.6 1327.5 4.5C1327.2 4.9 1328.3 4.8 1328.9 4.8C1328.9 4.4 1328.2 4.3 1329.2 4.2C1332.1 4.5 1336 5 1338.8 5.5C1341.1 5 1339.4 4.5 1338.8 3.7C1338.09 3.54092 1337.34 3.64759 1336.7 4C1333 3.1 1326.1 4.3 1321.9 2.8C1318.6 3.6 1317.7 3.4 1314 3.2C1313.83 3.40481 1313.61 3.57237 1313.37 3.69265C1313.13 3.81292 1312.87 3.88345 1312.6 3.9C1312.7 3.6 1313.6 3.6 1313.3 3.2H1311.6C1311.7 3.7 1310.6 3.9 1309.5 3.9C1309.7 5.2 1311.4 5.5 1312.9 5.1C1312.67 5.31131 1312.4 5.47362 1312.11 5.57685C1311.82 5.68007 1311.51 5.72199 1311.2 5.7C1310.9 5.6 1310.5 5.4 1310.2 5.3C1309.9 5.2 1309.9 5.3 1309.8 5.4C1309.7 5.5 1309.7 5.3 1309.6 5.2C1307.93 5.56558 1306.21 5.70017 1304.5 5.6V5.2C1303.5 5.6 1302.4 5 1301.7 5.8C1297.4 5.12945 1293.02 5.06214 1288.7 5.6H1288.4C1286.2 5.1 1282.3 5.5 1280.2 5.6C1280.3 4.9 1279.2 5.3 1278.8 5C1278.6 5.1 1278.6 5.3 1278.5 5.4C1277.9 5.3 1277.3 5.3 1276.7 5.2C1274.35 4.9105 1271.97 4.81018 1269.6 4.9C1269.6 4.7 1269.4 4.7 1269.4 4.5C1266.99 5.0026 1264.51 5.0026 1262.1 4.5C1261.1 4.8 1259 5.9 1257.4 4.4C1257.5 4.7 1257.2 4.7 1257.1 4.8C1257.7 4.7 1257.6 5 1257.8 5.2C1257.6 5.2 1257.5 5.4 1257.3 5.5C1257.4 5 1256.8 5.2 1257 4.6C1256.4 4.6 1255.9 4.6 1255.8 4.9C1255.8 4.7 1255.6 4.7 1255.6 4.5C1255.1 4.5 1255 5 1254.2 4.8C1253.7 3.6 1251.6 5.5 1250.9 4.2C1250.6 4.7 1249.8 4.7 1249 4.6C1248.24 4.67714 1247.47 4.71053 1246.7 4.7C1245.7 4.7 1244.9 4.1 1243.9 4.1C1242.91 4.28918 1241.91 4.38958 1240.9 4.4C1239.7 4.3 1237.9 3.7 1236.7 3.7C1235.7 3.7 1234.7 4.1 1233.7 4.1C1232 4.1 1230.3 3.5 1228.8 4.1C1228.9 4.1 1229 4.2 1228.8 4.2C1228.5 4 1228.4 3.7 1227.9 3.8C1226.7 4.4 1225.1 3.2 1223.7 3.9C1223 3.5 1222.6 3.7 1221.8 3.5C1221.6 3.6 1221.8 4.1 1221.5 4.1C1220.8 4.1 1220.6 3.6 1219.9 4C1219.9 3.8 1220.2 3.8 1219.9 3.7C1218.86 3.91523 1217.78 3.81064 1216.8 3.4C1216.2 3.3 1216.4 3.9 1215.8 3.8C1215.7 3 1214.7 3.5 1214.2 3.7C1213.4 2.8 1211.3 3.9 1210.4 3.4C1210.3 3.9 1209.1 3 1208.8 3.8C1208.8 2.7 1206.9 4.4 1207.1 3.2C1206.4 3.2 1205.6 3.1 1205.5 3.6C1205 2.5 1203.8 3.5 1202.9 2.9C1202.1 3.5 1200.1 2.9 1198.9 3.6C1198.3 3.5 1197.6 2.5 1197.2 3.2C1195.7 2.5 1193.4 2.6 1191.1 2.2C1190.9 2.5 1191.5 2.8 1191.1 2.8C1188.2 2.1 1186.3 0.3 1183.3 0C1182.77 0.2867 1182.18 0.453168 1181.57 0.487719C1180.97 0.52227 1180.36 0.424065 1179.8 0.2C1179.1 0.5 1178.3 1.5 1177.7 1.4C1177.4 1.9 1178.3 1.5 1178.2 1.8C1177.3 2.4 1176 1.9 1175.2 2.5C1175.6 4 1174.5 5.2 1173.3 6.2C1168.7 6.3 1164.2 6.5 1160.2 5.9C1160 6.8 1156.3 5.9 1157.5 6.6C1153.3 6.2 1152.6 8.6 1148.2 7.8C1148.1 8 1148.3 8.2 1147.9 8.2C1146.8 7.6 1145.1 7.8 1143.8 7.8C1144.6 7.4 1144.3 7.1 1144.5 6.3C1141.07 5.24682 1137.49 4.74062 1133.9 4.8C1127.5 4.9 1119 4.8 1115.7 5.2C1115.32 5.08451 1114.98 4.87853 1114.7 4.6C1112.9 4.5 1112 4.9 1110.6 4.6V5.5C1107.7 6 1105.4 4.8 1102 5.1C1103.1 6.2 1101.7 7.2 1098.2 6.9C1097.98 7.12054 1097.71 7.2889 1097.42 7.39272C1097.12 7.49654 1096.81 7.5332 1096.5 7.5C1094.5 7.1 1089.4 7.2 1087.9 7.9C1083.4 8.1 1081.1 7.3 1078.6 7.5C1078.7 7.3 1079.1 7.2 1078.9 6.9C1077.6 6.7 1078.4 7.5 1077.2 7.3C1076.8 6.7 1074.2 7 1073.1 6.7C1071.5 7.5 1069.8 7.5 1067.9 8C1067.4 8 1067.6 7.6 1066.9 7.7C1065.2 8.6 1060.3 8.4 1056.3 8.7V9.4C1058.5 9.4 1060.3 9.2 1062.8 9.3C1062.6 8.8 1063.1 8.6 1064.2 8.7C1063.6 9 1064.2 8.9 1064.2 9.3C1064.8 9.3 1065.9 9.2 1065.6 9.6H1065.4C1064.6 10.3 1062.6 10.3 1062.5 11C1061.3 11.1925 1060.07 11.1243 1058.9 10.8C1058.4 10.9 1058.8 11.4 1058.2 11.4L1055.2 11.1V12.5C1055.1 12.5 1055.1 12.5 1055 12.6C1053.3 11.7 1051.2 11.7 1049.4 11.4C1047.8 11.1 1047.3 10.4 1046.1 10.2C1046.1 10.2 1045.9 10.5 1045.8 10.5C1044.86 10.4447 1043.92 10.3109 1043 10.1C1040.6 10.1 1038.5 10.5 1036 10.2C1036.1 10.4 1035.8 11 1036.2 10.9C1036.4 10.4 1036.8 10.9 1037.2 10.6C1037.3 11.1 1037.9 11.2 1037.7 11.9C1036.95 11.6956 1036.18 11.5947 1035.4 11.6C1035 10.3 1033.4 10.9 1032.6 11.5C1032.9 11.5 1032.3 12 1032.1 12.1C1030 11.9 1029.1 13.1 1028.1 12.5C1028.2 12.5 1028.3 12.6 1028.3 12.8C1026.2 13.2 1025.5 12.7 1023.4 12.4C1022.29 12.875 1021.11 13.1784 1019.9 13.3C1017.5 15.3 1012.4 14 1009.8 13.9C1009.7 14.3 1010.1 14.2 1010 14.6C1009.7 14.2 1008.4 14.7 1008.1 14.3C1008.1 13.9 1008.1 13.5 1008.4 13.4C1008.78 13.5155 1009.12 13.7215 1009.4 14C1009.6 13.6 1009.4 13.7 1009.6 13.3C1008.5 13.4 1008.4 12.5 1007.9 12.6C1008.4 12.4 1007.8 11.9 1007.7 11.7C1006.5 12.4 1006 12.3 1004.4 12.3C1004.4 13.2 1003.7 12.5 1003.4 13.2C1003.9 13.1 1003 13.8 1003.6 13.8C1004.2 13.3 1003.9 14.2 1004.6 14.2C1003.99 14.1224 1003.38 14.1908 1002.8 14.3995C1002.23 14.6083 1001.71 14.9513 1001.3 15.4C1000.51 15.4287 999.724 15.2822 998.998 14.971C998.272 14.6597 997.624 14.1915 997.1 13.6C995.992 13.6184 994.886 13.5178 993.8 13.3C993.7 13.3 993.6 13.6 993.3 13.6C992.7 13.5 991.9 13.6 991 13.5C987.4 13 982.5 12.7 979.3 12.5C978.2 12.4 977.2 13 976.7 12.4C976.7 12.6 976.8 12.9 976.5 13C975.4 12.7 973.9 12.8 973.9 11.7C975.2 11.3 975.3 11.2 975.8 11.3C974.5 9.1 969 11.7 968 9.1C967.5 9.5 966.8 9 966.4 9.7C965.872 9.57238 965.338 9.47225 964.8 9.4C964.9 10.3 963.9 10.1 963.4 9.8C963 10.6 961.5 9.8 960.1 10.1C960.3 10.5 960 10.6 960.1 11.3C958.1 12.3 957.2 10.5 955.4 11.3C953.613 10.9998 951.787 10.9998 950 11.3C949.9 11.6 950.3 11.7 950 11.7C949.6 11.9 948.1 11.5 948.5 11.5C946.9 11.4 945.6 11.8 944.1 11.7C942 11.5 939.7 10.4 937.3 10.4C936 10.4 935 10.8 933.6 10.5C933.6 10.1 933.1 10.3 932.6 10.1C932.8 10.8 931.6 10.5 931.4 10.8C931.485 10.8719 931.542 10.9717 931.56 11.0816C931.578 11.1915 931.557 11.3044 931.5 11.4C930.783 11.2579 930.123 10.9104 929.6 10.4C930.7 10.1 930.7 9.8 930.6 8.9C931.9 8.6 934.6 8.4 933.3 7.9C934.896 8.05033 936.504 8.05033 938.1 7.9C936.9 7.6 937.9 7.3 938.1 6.9C936.8 6.9 937.2 6.2 935.4 6.5C935.7 7.4 933.4 7.1 932.7 7.5C933.1 7.5 933.2 7.7 933.4 7.8C930.9 7.8 923 8.2 922.8 6.3C925.2 4.6 922.7 3.3 919.4 2.3C919.7 1.5 919.4 0.9 918.7 0.1C917.3 0.3 916.4 -0.2 915.6 0.1C915.3 0.6 916.7 0.3 916.6 0.7C912 0.5 908.4 2 904.9 1.3C902.7 1.8 900 1.2 898.7 2.5C899.3 2.7 900.5 2.7 900.1 3.4C892.9 4.6 883 3.2 878.1 3.7C878.4 3.7 878.8 3.7 878.8 3.8C877 3.8 873.9 3.2 873.3 4.1C870.9 3.6 868.7 4.1 867.1 4C867.9 4.2 866.9 5.4 866.8 5.5C867.1 4.9 865.3 5.3 865.8 4.6C862.323 3.79256 858.769 3.35678 855.2 3.3C854.4 3.3 853.8 3.8 853.1 3.3C852.3 3.5 853.5 3.9 852.8 3.9C851.2 3.4 851.1 4 849.4 3.8C850.8 4.9 856.4 4.9 858.3 4.8C858 5.3 858.7 5.4 859 5.7C860.815 5.55607 862.631 5.97508 864.2 6.9H862.5C862.4 7.5 863 6.9 863.9 7C863.5 7.2 863.5 7.4 863.9 7.6C863.1 7.2 862.4 7.7 861.2 7.6C860.4 7.3 860.1 6.1 858.8 6.6C859.141 6.67175 859.476 6.77211 859.8 6.9C858 6.9 859.5 6.9 859.5 7.3C858.2 7.1 858.8 7.7 857.8 7.6C857 6.8 854.9 6.7 853.7 6.1C852.5 6.4 848.6 6.4 845.8 6.8C846.6 6.4 845.4 6.1 844.8 5.9C843.5 6.8 841.8 6.2 840.3 6.6H840.4C839.536 6.51481 838.668 6.48142 837.8 6.5C837.9 6.4 838 6.4 837.9 6.3C835.957 6.2675 834.057 5.71502 832.4 4.7C832.9 4.8 832.7 5.2 833.8 5C833.8 4.8 833.6 4.7 833.5 4.6C834.6 4.8 834.3 4.4 834.9 4.3C834.6 4.7 835.7 4.6 836.3 4.6C836.3 4.2 835.6 4.1 836.6 4C839.5 4.3 843.4 4.8 846.2 5.3C848.5 4.8 846.8 4.3 846.2 3.5C845.487 3.34092 844.74 3.44759 844.1 3.8C840.4 2.9 833.5 4.1 829.3 2.6C826 3.4 825.1 3.2 821.4 3C821.226 3.20481 821.012 3.37237 820.771 3.49265C820.531 3.61292 820.268 3.68345 820 3.7C820.1 3.4 821 3.4 820.7 3H819C819.1 3.5 818 3.7 816.9 3.7C817.1 5 818.8 5.3 820.3 4.9C820.073 5.11131 819.805 5.27362 819.512 5.37685C819.22 5.48007 818.909 5.52199 818.6 5.5C818.3 5.4 817.9 5.2 817.6 5.1C816.577 5.30172 815.541 5.43535 814.5 5.5C814.5 5.9 815.2 6 814.2 6.1V5.5C812.3 5.8 810.6 5.5 811.1 6.1C810.2 5.7 804.6 5.1 806 6C803 6.1 803.7 6.1 801.2 6.1C801.9 5.7 799.4 5.9 798.1 6C796.8 5.1 793.4 5.5 791.2 5.3C791.3 5.7 790.7 5.8 790.2 5.9C786.2 5.5 783 4.6 778.2 5.3C778.1 5.2 778.2 5 777.9 5C777.8 6.5 781.5 6.3 783.4 6.9C783.4 6 788.7 7.2 788.9 6H791.3C791 6.4 792 6.3 792 6.6C794.9 6.4 797 7 799.2 6.9C798.9 7.1 797.5 6.9 797.8 7.3C798.6 7.2 801.6 7.3 799.5 6.9C800.882 6.97243 802.255 7.1733 803.6 7.5C803.7 7.3 803.5 7.1 803.9 7.1C804.2 7.5 805.1 7.6 806 7.7C805.9 8.4 804.5 8.9 801.9 8.7C801.679 8.92054 801.412 9.0889 801.118 9.19272C800.824 9.29654 800.51 9.3332 800.2 9.3C798.044 8.998 795.856 8.998 793.7 9.3C793.5 9.2 793.2 9.2 793 9.1C791.5 10.1 788.9 9.2 787.5 9.5C787.7 8.8 786.8 9.1 786.5 9.4C785.9 9.1 786.7 9.1 786.5 8.7C785 8.4 783.5 8 783.1 7.2C782.6 7.5 781.6 7.6 781 7.9C781 7.6 780.1 7.6 779.3 7.6C778.3 7.8 779.2 8.1 777.9 8.3C776.4 8.3 774.8 8.4 774.1 8C774.2 7.5 775.4 7.4 776.2 7.1C776 6.6 776.6 6.6 776.5 6.2C774.112 5.90022 771.706 5.76656 769.3 5.8C769.3 5.6 769.7 5.6 769.6 5.4C767.9 5.3 766.7 5.4 766.5 6C766.9 6 767.5 6 767.5 6.1C766 6.8 763.9 5.9 762.3 6.2C762.7 6.2 763.1 6.4 762.6 6.5C762.5 6.2 760.5 6.5 761.6 6.1C757.8 5.8 752.3 6 754.7 7.1C752.8 7.9 747 6.4 746.1 7.5C746.3 7.5 748.2 8.3 748.8 7.7C749.6 8 749.8 8.5 750.9 8.6C750.4 8.2 751.8 7.9 751.9 8.3C750.9 8.4 751.7 9.7 751.2 9.9C752.1 9.5 752.2 9.9 751.9 10.3H753.3C752.5 9.7 755.1 9.2 753.6 8.1C754.286 8.3 755.014 8.3 755.7 8.1C755.7 8.6 756.8 8.6 756.7 9.1C757.618 8.88539 758.584 9.02841 759.4 9.5C759.7 9.2 758.4 9 759.4 8.9C760.1 8.9 760.1 9.3 760.4 9.5C759.1 9.7 756.6 9.4 756.3 10.1C756.419 10.1 756.534 10.1474 756.618 10.2318C756.703 10.3162 756.75 10.4307 756.75 10.55C756.75 10.6693 756.703 10.7838 756.618 10.8682C756.534 10.9526 756.419 11 756.3 11C754.7 10.5 751.5 11.2 751.5 10.1C750.9 10 750.6 10.3 750.5 10.1C750.4 9.9 750.5 9.8 750.2 9.8C750.2 10.9 747.8 10.9 745.4 10.8C745.1 11.3 743.4 11.3 743.7 11.7C742.3 10.8 740.3 12 738.8 11.8C739 11.9 737.5 11.9 737.5 12C737.6 11.1 734 11.5 733.7 11.6C734.7 11.7 732.6 11.7 733.7 12C733 12 732.6 12.1 732.2 12.1V14.4C731.995 14.4158 731.789 14.3814 731.6 14.3C731.7 14.3 731.8 14.4 731.8 14.6C729.7 15 729 14.5 726.9 14.2C726.8 14.2 726.7 14.3 726.6 14.3V13.1C726.291 13.0814 725.988 13.0139 725.7 12.9C727.2 12.5 725.3 11.9 724 11.9C723.8 12.9 720.5 11.6 719.5 12C721 12.1 718.2 12.6 716.8 12.4C716.9 11.7 713.8 12.1 713.7 11.1C714.7 11.6 714 10.6 715.1 10.7C715.7 11.1 717.5 11 718.2 11.3C718.3 10.3 719.8 11.3 720.6 11.3C720.8 10.9 720.7 10.8 722 11.2C722.3 10.8 723 10.7 724.1 10.6C723.4 10.9 724.5 11.4 725.8 11.3L726.7 11V9.4C725.137 9.53223 723.567 9.56563 722 9.5C720.2 10.8 714 9.3 711 9.4C709.2 10.2 706.9 9.6 704.1 10C703.3 10.2 704.5 10.4 703.8 10.4C701.7 9.9 699.9 9.2 699.3 8C691 6.9 680.7 8.5 672.9 7.4C672.7 8.3 669 7.4 670.2 8.1C666 7.7 665.3 10.1 660.9 9.3C660.8 9.5 661 9.7 660.6 9.7C659.5 9.1 657.8 9.3 656.5 9.3C657.3 8.9 657 8.6 657.2 7.8C653.767 6.74682 650.19 6.24062 646.6 6.3C640.2 6.4 631.7 6.3 628.4 6.7C628.023 6.58451 627.679 6.37853 627.4 6.1H627.1C626.5 5.3 624.9 4.7 623 4.1C623.3 3.3 623 2.7 622.3 1.9C620.9 2.1 620 1.6 619.2 1.9C618.9 2.4 620.3 2.1 620.2 2.5C615.6 2.3 612 3.8 608.5 3.1C606.3 3.6 603.6 3 602.3 4.3C602.9 4.5 604.1 4.5 603.7 5.2C596.5 6.4 586.6 5 581.7 5.5C582 5.5 582.4 5.5 582.4 5.6C580.6 5.6 577.5 5 576.9 5.9C574.5 5.4 572.3 5.9 570.7 5.8C571.5 6 570.5 7.2 570.4 7.3C570.7 6.7 568.9 7.1 569.4 6.4C565.923 5.59256 562.369 5.15678 558.8 5.1C558 5.1 557.4 5.6 556.7 5.1C555.9 5.3 557.1 5.7 556.4 5.7C554.8 5.2 554.7 5.8 553 5.6C554.4 6.7 560 6.7 561.9 6.6C561.6 7.1 562.3 7.2 562.6 7.5C564.415 7.35607 566.231 7.77508 567.8 8.7H566.1C566 9.3 566.6 8.7 567.5 8.8C567.1 9 567.1 9.2 567.5 9.4C566.7 9 566 9.5 564.8 9.4C564 9.1 563.7 7.9 562.4 8.4C562.741 8.47175 563.076 8.57211 563.4 8.7C561.6 8.7 563.1 8.7 563.1 9.1C561.8 8.9 562.4 9.5 561.4 9.4C560.6 8.6 558.5 8.5 557.3 7.9C556.1 8.2 552.2 8.2 549.4 8.6C550.2 8.2 549 7.9 548.4 7.7C547.1 8.6 545.4 8 543.9 8.4C544.4 8.5 545 8.6 544.9 9C542.8 9.2 543 8 541.1 8.6C541.1 8.4 541.5 8.4 541.4 8.2C539.457 8.1675 537.558 7.61502 535.9 6.6C536.4 6.7 536.2 7.1 537.3 6.9C537.3 6.7 537.1 6.6 537 6.5C538.1 6.7 537.8 6.3 538.4 6.2C538.1 6.6 539.2 6.5 539.8 6.5C539.8 6.1 539.1 6 540.1 5.9C543 6.2 546.9 6.7 549.7 7.2C552 6.7 550.3 6.2 549.7 5.4C548.987 5.24092 548.24 5.34759 547.6 5.7C543.9 4.8 537 6 532.8 4.5C529.5 5.3 528.6 5.1 524.9 4.9C524.726 5.10482 524.512 5.27237 524.271 5.39265C524.031 5.51292 523.768 5.58345 523.5 5.6C523.6 5.3 524.5 5.3 524.2 4.9H522.5C522.6 5.4 521.5 5.6 520.4 5.6C520.6 6.9 522.3 7.2 523.8 6.8C523.573 7.01131 523.305 7.17362 523.012 7.27685C522.72 7.38007 522.409 7.42199 522.1 7.4C521.8 7.3 521.4 7.1 521.1 7C520.077 7.20172 519.041 7.33535 518 7.4C518 7.8 518.7 7.9 517.7 8V7.4C515.8 7.7 514.1 7.4 514.6 8C513.7 7.6 508.1 7 509.5 7.9C506.5 8 507.2 8 504.7 8C505.4 7.6 502.9 7.8 501.6 7.9C500.3 7 496.9 7.4 494.7 7.2C494.8 7.6 494.2 7.7 493.7 7.8C489.7 7.4 486.5 6.5 481.7 7.2C481.6 7.1 481.7 6.9 481.4 6.9C481.3 8.4 485 8.2 486.9 8.8C486.9 7.9 492.2 9.1 492.4 7.9H494.8C494.5 8.3 495.5 8.2 495.5 8.5C498.4 8.3 500.5 8.9 502.7 8.8C502.4 9 501 8.8 501.3 9.2C502.1 9.1 505.1 9.2 503 8.8C504.382 8.87243 505.755 9.0733 507.1 9.4C507.2 9.2 507 9 507.4 9C507.8 9.7 509.9 9.5 510.8 9.6C510.8 9.8 510.2 9.7 510.1 9.9C512.9 9.8 513.4 10.3 515.2 10.2C515.4 11.2 517.8 11.6 518.6 12.7C518.131 12.6712 517.66 12.7049 517.2 12.8V12.2C510.7 13 503.4 11.7 498.7 11.8C498.3 11.3 497.2 11.2 496.3 10.9C494.8 11.9 492.2 11 490.8 11.3C491 10.6 490.1 10.9 489.8 11.2C489.2 10.9 490 10.9 489.8 10.5C488.3 10.2 486.8 9.8 486.4 9C485.9 9.3 484.9 9.4 484.3 9.7C484.3 9.4 483.4 9.4 482.6 9.4C481.6 9.6 482.5 9.9 481.2 10.1C479.7 10.1 478.1 10.2 477.4 9.8C477.5 9.3 478.7 9.2 479.5 8.9C479.3 8.4 479.9 8.4 479.8 8C477.412 7.70022 475.006 7.56656 472.6 7.6C472.6 7.4 473 7.4 472.9 7.2C471.2 7.1 470 7.2 469.8 7.8C470.2 7.8 470.8 7.8 470.8 7.9C469.3 8.6 467.2 7.7 465.6 8C466 8 466.4 8.2 465.9 8.3C465.8 8 463.8 8.3 464.9 7.9C461.1 7.6 455.6 7.8 458 8.9C456.4 9.6 451.8 8.6 450 9C449.8 8.8 450.4 8.5 450.5 8.2C449.2 8.2 449.6 7.5 447.8 7.8C448.1 8.7 445.8 8.4 445.1 8.8C445.5 8.8 445.6 9 445.8 9.1C443.3 9.1 435.4 9.5 435.2 7.6C437.6 5.9 435.1 4.6 431.8 3.6C432.1 2.8 431.8 2.2 431.1 1.4C429.7 1.6 428.8 1.1 428 1.4C427.7 1.9 429.1 1.6 429 2C424.4 1.8 420.8 3.3 417.3 2.6C415.1 3.1 412.4 2.5 411.1 3.8C411.7 4 412.9 4 412.5 4.7C405.3 5.9 395.4 4.5 390.5 5C390.8 5 391.2 5 391.2 5.1C389.4 5.1 386.3 4.5 385.7 5.4C383.3 4.9 381.1 5.4 379.5 5.3C380.3 5.5 379.3 6.7 379.2 6.8C379.5 6.2 377.7 6.6 378.2 5.9C374.723 5.09256 371.169 4.65678 367.6 4.6C366.8 4.6 366.2 5.1 365.5 4.6C364.7 4.8 365.9 5.2 365.2 5.2C363.6 4.7 363.5 5.3 361.8 5.1C363.2 6.2 368.8 6.2 370.7 6.1C370.4 6.6 371.1 6.7 371.4 7C373.216 6.85607 375.031 7.27508 376.6 8.2H374.9C374.8 8.8 375.4 8.2 376.3 8.3C375.9 8.5 375.9 8.7 376.3 8.9C375.5 8.5 374.8 9 373.6 8.9C372.8 8.6 372.5 7.4 371.2 7.9C371.541 7.97175 371.876 8.07211 372.2 8.2C370.4 8.2 371.9 8.2 371.9 8.6C370.6 8.4 371.2 9 370.2 8.9C369.4 8.1 367.3 8 366.1 7.4C364.9 7.7 361 7.7 358.2 8.1C359 7.7 357.8 7.4 357.2 7.2C355.9 8.1 354.2 7.5 352.7 7.9C353.2 8 353.8 8.1 353.7 8.5C351.6 8.7 351.8 7.5 349.9 8.1C349.9 7.9 350.3 7.9 350.2 7.7C348.257 7.6675 346.358 7.11502 344.7 6.1C345.2 6.2 345 6.6 346.1 6.4C346.1 6.2 345.9 6.1 345.8 6C346.9 6.2 346.6 5.8 347.2 5.7C346.9 6.1 348 6 348.6 6C348.6 5.6 347.9 5.5 348.9 5.4C351.8 5.7 355.7 6.2 358.5 6.7C360.8 6.2 359.1 5.7 358.5 4.9C357.787 4.74092 357.04 4.84759 356.4 5.2C352.7 4.3 345.8 5.5 341.6 4C338.3 4.8 337.4 4.6 333.7 4.4C333.526 4.60482 333.312 4.77237 333.071 4.89265C332.831 5.01292 332.568 5.08345 332.3 5.1C332.4 4.8 333.3 4.8 333 4.4H331.3C331.4 4.9 330.3 5.1 329.2 5.1C329.4 6.4 331.1 6.7 332.6 6.3C332.373 6.51131 332.105 6.67362 331.812 6.77685C331.52 6.88007 331.209 6.92199 330.9 6.9C330.6 6.8 330.2 6.6 329.9 6.5C328.877 6.70172 327.841 6.83535 326.8 6.9C326.8 7.3 327.5 7.4 326.5 7.5V6.9C324.6 7.2 322.9 6.9 323.4 7.5C322.5 7.1 316.9 6.5 318.3 7.4C315.3 7.5 316 7.5 313.5 7.5C314.2 7.1 311.7 7.3 310.4 7.4C309.1 6.5 305.7 6.9 303.5 6.7C303.6 7.1 303 7.2 302.5 7.3C298.5 6.9 295.3 6 290.5 6.7C290.4 6.6 290.5 6.4 290.2 6.4C290.1 7.9 293.8 7.7 295.7 8.3C295.7 7.4 301 8.6 301.2 7.4H303.6C303.3 7.8 304.3 7.7 304.3 8C307.2 7.8 309.3 8.4 311.5 8.3C311.2 8.5 309.8 8.3 310.1 8.7C310.9 8.6 313.9 8.7 311.8 8.3C313.182 8.37243 314.555 8.5733 315.9 8.9C316 8.7 315.8 8.5 316.2 8.5C316.6 9.2 318.7 9 319.6 9.1C319.6 9.3 319 9.2 318.9 9.4C321.7 9.3 322.2 9.8 324 9.7C324.2 10.7 326.6 11.1 327.4 12.2H327.2C326.844 11.9595 326.429 11.8212 326 11.8V11.7H325.5C324.661 11.7457 323.821 11.6784 323 11.5C322.694 11.6926 322.355 11.8281 322 11.9C316.6 12 311.2 11.2 307.4 11.2C307 10.7 305.9 10.6 305 10.3C303.5 11.3 300.9 10.4 299.5 10.7C299.7 10 298.8 10.3 298.5 10.6C297.9 10.3 298.7 10.3 298.5 9.9C297 9.6 295.5 9.2 295.1 8.4C294.6 8.7 293.6 8.8 293 9.1C293 8.8 292.1 8.8 291.3 8.8C290.3 9 291.2 9.3 289.9 9.5C288.4 9.5 286.8 9.6 286.1 9.2C286.2 8.7 287.4 8.6 288.2 8.3C288 7.8 288.6 7.8 288.5 7.4C286.112 7.10022 283.706 6.96656 281.3 7C281.3 6.8 281.7 6.8 281.6 6.6C279.9 6.5 278.7 6.6 278.5 7.2C278.9 7.2 279.5 7.2 279.5 7.3C278 8 275.9 7.1 274.3 7.4C274.7 7.4 275.1 7.6 274.6 7.7C274.5 7.4 272.5 7.7 273.6 7.3C269.8 7 264.3 7.2 266.7 8.3C264.8 9.1 259 7.6 258.1 8.7C258.3 8.7 260.2 9.5 260.8 8.9C261.6 9.2 261.8 9.7 262.9 9.8C262.4 9.4 263.8 9.1 263.9 9.5C263.4 9.5 263.4 9.8 263.4 10.2C260.8 10.1 257.6 9.5 255.7 9.5C253.9 10.3 251.6 9.7 248.8 10.1C248 10.3 249.2 10.5 248.5 10.5C246.4 10 244.6 9.3 244 8.1C235.7 7 225.4 8.6 217.6 7.5C217.4 8.4 213.7 7.5 214.9 8.2C210.7 7.8 210 10.2 205.6 9.4C205.5 9.6 205.7 9.8 205.3 9.8C204.2 9.2 202.5 9.4 201.2 9.4C202 9 201.7 8.7 201.9 7.9C198.467 6.84682 194.89 6.34062 191.3 6.4C184.9 6.5 176.4 6.4 173.1 6.8C172.723 6.68451 172.379 6.47853 172.1 6.2C171.099 6.17615 170.097 6.20954 169.1 6.3C169.121 5.95211 169.07 5.60364 168.949 5.2766C168.829 4.94956 168.642 4.65108 168.4 4.4C167 4.6 166.1 4.1 165.3 4.4C165 4.9 166.4 4.6 166.3 5C161.7 4.8 158.1 6.3 154.6 5.6C152.4 6.1 149.7 5.5 148.4 6.8C149 7 150.2 7 149.8 7.7C142.6 8.9 132.7 7.5 127.8 8C128.1 8 128.5 8 128.5 8.1C126.7 8.1 123.6 7.5 123 8.4C120.6 7.9 118.4 8.4 116.8 8.3C117.6 8.5 116.6 9.7 116.5 9.8C116.8 9.2 115 9.6 115.5 8.9C112.023 8.09256 108.469 7.65678 104.9 7.6C104.1 7.6 103.5 8.1 102.8 7.6C102 7.8 103.2 8.2 102.5 8.2C100.9 7.7 100.8 8.3 99.1 8.1C100.5 9.2 106.1 9.2 108 9.1C107.7 9.6 108.4 9.7 108.7 10C110.485 9.83888 112.274 10.2599 113.8 11.2H112.1C112 11.8 112.6 11.2 113.5 11.3C113.1 11.5 113.1 11.7 113.5 11.9C112.7 11.5 112 12 110.8 11.9C110 11.6 109.7 10.4 108.4 10.9C108.741 10.9718 109.076 11.0721 109.4 11.2C107.6 11.2 109.1 11.2 109.1 11.6C107.8 11.4 108.4 12 107.4 11.9C106.6 11.1 104.5 11 103.3 10.4C102.1 10.7 98.2 10.7 95.4 11.1C96.2 10.7 95 10.4 94.4 10.2C93.1 11.1 91.4 10.5 89.9 10.9C90.4 11 91 11.1 90.9 11.5C88.8 11.7 89 10.5 87.1 11.1C87.1 10.9 87.5 10.9 87.4 10.7C85.4567 10.6675 83.5575 10.115 81.9 9.1C82.4 9.2 82.2 9.6 83.3 9.4C83.3 9.2 83.1 9.1 83 9C84.1 9.2 83.8 8.8 84.4 8.7C84.1 9.1 85.2 9 85.8 9C85.8 8.6 85.1 8.5 86.1 8.4C89 8.7 92.9 9.2 95.7 9.7C98 9.2 96.3 8.7 95.7 7.9C94.9868 7.74092 94.2401 7.84759 93.6 8.2C89.9 7.3 83 8.5 78.8 7C75.5 7.8 74.6 7.6 70.9 7.4C70.7257 7.60482 70.5119 7.77237 70.2713 7.89265C70.0308 8.01292 69.7684 8.08345 69.5 8.1C69.6 7.8 70.5 7.8 70.2 7.4H68.5C68.6 7.9 67.5 8.1 66.4 8.1C66.6 9.4 68.3 9.7 69.8 9.3C69.573 9.51131 69.3049 9.67362 69.0124 9.77685C68.7199 9.88007 68.4094 9.92199 68.1 9.9C67.8 9.8 67.4 9.6 67.1 9.5C66.0767 9.70172 65.041 9.83535 64 9.9C64 10.3 64.7 10.4 63.7 10.5V9.9C61.8 10.2 60.1 9.9 60.6 10.5C59.7 10.1 54.1 9.5 55.5 10.4C52.5 10.5 53.2 10.5 50.7 10.5C51.4 10.1 48.9 10.3 47.6 10.4C46.3 9.5 42.9 9.9 40.7 9.7C40.8 10.1 40.2 10.2 39.7 10.3C35.7 9.9 32.5 9 27.7 9.7C27.6 9.6 27.7 9.4 27.4 9.4C27.3 10.9 31 10.7 32.9 11.3C32.9 10.4 38.2 11.6 38.4 10.4H40.8C40.5 10.8 41.5 10.7 41.5 11C44.4 10.8 46.5 11.4 48.7 11.3C48.4 11.5 47 11.3 47.3 11.7C48.1 11.6 51.1 11.7 49 11.3C50.3823 11.3724 51.7549 11.5733 53.1 11.9C53.2 11.7 53 11.5 53.4 11.5C53.8 12.2 55.9 12 56.8 12.1C56.8 12.3 56.2 12.2 56.1 12.4C58.9 12.3 59.4 12.8 61.2 12.7C61.3 13.2 62 13.6 62.8 14H61.8C61.8 14.9 61.1 14.2 60.8 14.9C60.9 14.9 61 14.9 60.9 15C55.1 15.3 48.9 14.3 44.7 14.3C44.3 13.8 43.2 13.7 42.3 13.4C40.8 14.4 38.2 13.5 36.8 13.8C37 13.1 36.1 13.4 35.8 13.7C35.2 13.4 36 13.4 35.8 13C34.3 12.7 32.8 12.3 32.4 11.5C32.1026 11.7099 31.7601 11.847 31.4 11.9C29.4 11.7 26.7 12.4 25.6 11C25.7 10.9 25.9 10.8 25.9 10.6C23.5121 10.3002 21.1064 10.1666 18.7 10.2C18.7 10 19.1 10 19 9.8C17.3 9.7 16.1 9.8 15.9 10.4C16.3 10.4 16.9 10.4 16.9 10.5C15.4 11.2 13.3 10.3 11.7 10.6C12.1 10.6 12.5 10.8 12 10.9C11.9 10.6 9.89999 10.9 11 10.5C7.2 10.2 1.70001 10.4 4.10001 11.5C2.20001 12.3 -3.60001 10.8 -4.5 11.9C-4.39417 11.9122 -4.29201 11.9463 -4.2 12C-4.59431 11.9172 -4.99739 11.8836 -5.39999 11.9C-6.7 11.9 -7.70001 12.3 -9.10001 12C-9.10001 11.6 -9.60001 11.8 -10.1 11.6C-9.90001 12.3 -11.1 12 -11.3 12.3C-11.2149 12.3719 -11.1582 12.4717 -11.1398 12.5816C-11.1215 12.6915 -11.1429 12.8044 -11.2 12.9C-11.9169 12.7579 -12.577 12.4104 -13.1 11.9C-12 11.6 -12 11.3 -12.1 10.4C-10.8 10.1 -8.09999 9.9 -9.39999 9.4C-7.80353 9.55033 -6.19647 9.55033 -4.60001 9.4C-5.8 9.1 -4.8 8.8 -4.60001 8.4C-5.90001 8.4 -5.5 7.7 -7.3 8C-7 8.9 -9.3 8.6 -10 9C-9.60001 9 -9.5 9.2 -9.3 9.3C-12.7 9.6 -20.7 9.9 -20.9 8.1C-18.5 6.4 -21 5.1 -24.3 4.1C-24 3.3 -24.3 2.7 -25 1.9C-26.4 2.1 -27.3 1.6 -28.1 1.9C-28.4 2.4 -27 2.1 -27.1 2.5C-31.7 2.3 -35.3 3.8 -38.8 3.1C-41 3.6 -43.7 3 -45 4.3C-44.4 4.5 -43.2 4.5 -43.6 5.2C-50.8 6.4 -60.7 5 -65.6 5.5C-65.3 5.5 -64.9 5.5 -64.9 5.6C-66.7 5.6 -69.8 5 -70.4 5.9C-72.8 5.4 -75 5.9 -76.6 5.8C-75.8 6 -76.8 7.2 -76.9 7.3C-76.6 6.7 -78.4 7.1 -77.9 6.4C-81.3773 5.59256 -84.9306 5.15678 -88.5 5.1C-89.3 5.1 -89.9 5.6 -90.6 5.1C-91.4 5.3 -90.2 5.7 -90.9 5.7C-92.5 5.2 -92.6 5.8 -94.3 5.6C-92.9 6.7 -87.3 6.7 -85.4 6.6C-85.7 7.1 -85 7.2 -84.7 7.5C-82.8845 7.35607 -81.0688 7.77508 -79.5 8.7H-81.2C-81.3 9.3 -80.7 8.7 -79.8 8.8C-80.2 9 -80.2 9.2 -79.8 9.4C-80.6 9 -81.3 9.5 -82.5 9.4C-83.3 9.1 -83.6 7.9 -84.9 8.4C-84.5588 8.47175 -84.2243 8.57211 -83.9 8.7C-85.7 8.7 -84.2 8.7 -84.2 9.1C-85.5 8.9 -84.9 9.5 -85.9 9.4C-86.7 8.6 -88.8 8.5 -90 7.9C-91.2 8.2 -95.1 8.2 -97.9 8.6C-97.1 8.2 -98.3 7.9 -98.9 7.7C-100.2 8.6 -101.9 8 -103.4 8.4C-102.9 8.5 -102.3 8.6 -102.4 9C-104.5 9.2 -104.3 8 -106.2 8.6C-106.2 8.4 -105.8 8.4 -105.9 8.2C-107.843 8.1675 -109.742 7.61502 -111.4 6.6C-110.9 6.7 -111.1 7.1 -110 6.9C-110 6.7 -110.2 6.6 -110.3 6.5C-109.2 6.7 -109.5 6.3 -108.9 6.2C-109.2 6.6 -108.1 6.5 -107.5 6.5C-107.5 6.1 -108.2 6 -107.2 5.9C-104.3 6.2 -100.4 6.7 -97.6 7.2C-95.3 6.7 -97 6.2 -97.6 5.4C-98.3132 5.24092 -99.0599 5.34759 -99.7 5.7C-103.4 4.8 -110.3 6 -114.5 4.5C-117.8 5.3 -118.7 5.1 -122.4 4.9C-122.574 5.10482 -122.788 5.27237 -123.029 5.39265C-123.269 5.51292 -123.532 5.58345 -123.8 5.6C-123.7 5.3 -122.8 5.3 -123.1 4.9H-124.8C-124.7 5.4 -125.8 5.6 -126.9 5.6C-126.7 6.9 -125 7.2 -123.5 6.8C-123.727 7.01131 -123.995 7.17362 -124.288 7.27685C-124.58 7.38007 -124.891 7.42199 -125.2 7.4C-125.5 7.3 -125.9 7.1 -126.2 7C-127.223 7.20172 -128.259 7.33535 -129.3 7.4C-129.3 7.8 -128.6 7.9 -129.6 8V7.4C-131.5 7.7 -133.2 7.4 -132.7 8C-133.6 7.6 -139.2 7 -137.8 7.9C-140.8 8 -140.1 8 -142.6 8C-141.9 7.6 -144.4 7.8 -145.7 7.9C-147 7 -150.4 7.4 -152.6 7.2C-152.5 7.6 -153.1 7.7 -153.6 7.8C-157.6 7.4 -160.8 6.5 -165.6 7.2C-165.7 7.1 -165.6 6.9 -165.9 6.9C-166 8.4 -162.3 8.2 -160.4 8.8C-160.4 7.9 -155.1 9.1 -154.9 7.9H-152.5C-152.8 8.3 -151.8 8.2 -151.8 8.5C-148.9 8.3 -146.8 8.9 -144.6 8.8C-144.9 9 -146.3 8.8 -146 9.2C-145.2 9.1 -142.2 9.2 -144.3 8.8C-142.918 8.87243 -141.545 9.0733 -140.2 9.4C-140.1 9.2 -140.3 9 -139.9 9C-139.5 9.7 -137.4 9.5 -136.5 9.6C-136.5 9.8 -137.1 9.7 -137.2 9.9C-134.4 9.8 -133.9 10.3 -132.1 10.2C-131.9 11.2 -129.5 11.6 -128.7 12.7C-129.176 12.6439 -129.659 12.7129 -130.1 12.9V12.3C-136.6 13.1 -143.9 11.8 -148.6 11.9C-149 11.4 -150.1 11.3 -151 11C-152.5 12 -155.1 11.1 -156.5 11.4C-156.3 10.7 -157.2 11 -157.5 11.3C-158.1 11 -157.3 11 -157.5 10.6C-159 10.3 -160.5 9.9 -160.9 9.1C-161.4 9.4 -162.4 9.5 -163 9.8C-163 9.5 -163.9 9.5 -164.7 9.5C-165.7 9.7 -164.8 10 -166.1 10.2C-167.6 10.2 -169.2 10.3 -169.9 9.9C-169.8 9.1 -168.7 9 -167.9 8.8C-168.1 8.3 -167.5 8.3 -167.6 7.9C-169.988 7.60022 -172.394 7.46656 -174.8 7.5C-174.8 7.3 -174.4 7.3 -174.5 7.1C-176.2 7 -177.4 7.1 -177.6 7.7C-177.2 7.7 -176.6 7.7 -176.6 7.8C-178.1 8.5 -180.2 7.6 -181.8 7.9C-181.4 7.9 -181 8.1 -181.5 8.2C-181.6 7.9 -183.6 8.2 -182.5 7.8C-186.3 7.5 -191.8 7.7 -189.4 8.8C-191 9.6 -196.8 8.1 -197.7 9.2C-197.5 9.2 -195.6 10 -195 9.4C-194.2 9.7 -194 10.2 -192.9 10.3C-193.4 9.9 -192 9.6 -191.9 10C-192.9 10.1 -192.1 11.4 -192.6 11.6C-191.7 11.2 -191.6 11.6 -191.9 12H-190.5C-191.3 11.4 -188.7 10.9 -190.2 9.8C-189.514 10 -188.786 10 -188.1 9.8C-188.1 10.3 -187 10.3 -187.1 10.8C-186.182 10.5854 -185.216 10.7284 -184.4 11.2C-184.1 10.9 -185.4 10.7 -184.4 10.6C-183.7 10.6 -183.7 11 -183.4 11.2C-184.7 11.4 -187.2 11.1 -187.5 11.8C-187.381 11.8 -187.266 11.8474 -187.182 11.9318C-187.097 12.0162 -187.05 12.1307 -187.05 12.25C-187.05 12.3693 -187.097 12.4838 -187.182 12.5682C-187.266 12.6526 -187.381 12.7 -187.5 12.7C-189.1 12.2 -192.3 12.9 -192.3 11.8C-192.9 11.7 -193.2 12 -193.3 11.8C-193.4 11.6 -193.3 11.5 -193.6 11.5C-193.6 12.6 -196 12.6 -198.4 12.5C-198.7 13 -200.4 13 -200.1 13.4C-201.5 12.5 -203.5 13.7 -205 13.5C-204.8 13.6 -206.3 13.6 -206.3 13.7C-206.2 12.8 -209.8 13.2 -210.1 13.3C-209.1 13.4 -211.2 13.4 -210.1 13.7C-210.8 13.7 -211.2 13.8 -211.6 13.8V17.2H-212V74.1H1707.3V17.3H1703.1ZM512.3 9.3H511.6C511.8 8.9 512.5 8.6 513.7 8.6C513.5 9 512.6 8.8 512.3 9.3ZM321.2 8.8H320.5C320.7 8.4 321.4 8.1 322.6 8.1C322.4 8.4 321.5 8.2 321.2 8.8ZM58.6 12.1H57.9C58.1 11.7 58.8 11.4 60 11.4C59.7 11.7 58.9 11.5 58.6 12.1ZM-133.9 9.1H-134.6C-134.4 8.7 -133.7 8.4 -132.5 8.4C-132.7 8.7 -133.5 8.5 -133.9 9.1ZM-71.7 10.1V10.5C-72.2 10.5 -73 10.4 -73.1 10.6C-73.5 10.6 -73.3 10.5 -73.1 10.5C-73 10.3 -73.2 10.2 -73.4 10.2C-73.1 10.1 -72.8 10.2 -71.7 10.1ZM-73.4 8.5C-73.2 8 -72.5 8.3 -71.7 8.4C-71.7 8.7 -72.1 8.7 -72 9C-72.8 8.9 -72.7 8.5 -73.4 8.5ZM-70.4 10.3C-69.7 10.3 -70.3 11 -69.4 10.9C-69.5 11.1 -70.5 11 -70.1 11.5C-70.6012 11.5567 -71.1044 11.413 -71.5 11.1C-71.8 10.5 -70.1 10.8 -70.4 10.3ZM-68 16.7C-68 17.1 -69.9 17.1 -70.4 16.8C-70.2 16.5 -68.7 16.8 -68 16.7ZM-41.2 15.2C-40.4 15.4 -41.8 15.6 -40.9 15.8C-41.6 16.6 -46.3 15.4 -43.3 15.2C-43.4 15.4 -44 15.3 -44 15.5C-43.2 15.9 -42.6 15 -41.2 15.2ZM29.8 15.5H30.1C30.3764 15.519 30.6472 15.5867 30.9 15.7C30.509 15.8405 30.0923 15.8954 29.6783 15.8609C29.2642 15.8264 28.8624 15.7033 28.5 15.5C28.9276 15.3998 29.3725 15.3998 29.8 15.5ZM120.4 11C120.1 11 119.8 10.9 119.4 10.9C119.781 10.7483 120.19 10.6801 120.6 10.7C120.4 10.9 120.4 10.9 120.4 11ZM119.3 11.3C119.769 11.2931 120.237 11.3266 120.7 11.4C120.7 11.7 120.3 11.7 120.4 12C119.7 12 119.7 11.6 119 11.6C119 11.5 119.1 11.5 119.1 11.4C119.1 11.3 119.2 11.3 119.3 11.3ZM157.5 14.5C155.668 14.3998 153.832 14.3998 152 14.5C151.963 14.3666 151.973 14.2246 152.027 14.0974C152.082 13.9702 152.178 13.8653 152.3 13.8C151.3 12.8 149.3 13.8 147.8 13.2V13C148.981 12.5621 150.245 12.3914 151.5 12.5L151.6 12.6L151.7 12.5C154.6 12.6 157.5 13.4 157.5 14.5ZM146.6 13.4C145.9 13.6 145.7 14 145.1 14.3C144.2 14.2 143.7 13.8 143 14.3C142.7 14.2 142.5 13.9 142.3 14.2C141.8 14.2 142.9 13.5 141.3 13.6V13.2C141.9 13.3 142.4 13.5 142.3 13C142.9 13 143.2 13.1 143.3 13.3C143.545 13.1886 143.78 13.0547 144 12.9C144.905 12.8552 145.812 12.9224 146.7 13.1C146.387 13.2435 146.035 13.2787 145.7 13.2C146 13.6 146.2 13.4 146.8 13.4C146.8 13.3 146.7 13.4 146.6 13.4ZM383 8.7C382.3 8.7 382.3 8.3 381.6 8.3C381.8 7.8 382.5 8.1 383.3 8.2C383.4 8.3 382.9 8.4 383 8.7ZM572.7 8.7C572.9 8.2 573.6 8.5 574.4 8.6C574.4 8.9 574 8.9 574.1 9.2C573.4 9.1 573.5 8.8 572.7 8.7ZM869.5 7.2C869.7 6.7 870.4 7 871.2 7.1C871.2 7.4 870.8 7.4 870.9 7.7C870.2 7.6 870.2 7.2 869.5 7.2ZM574.5 10.7V10.9H574.4C574.4 10.8 574.4 10.7 574.5 10.7ZM574.8 11.3C574.5 10.9 575.3 11 575.7 10.8C575.7 10.9 575.8 10.9 575.8 11H576.4C576.5 11.1 576.6 11.1 576.9 11.1C576.8 11.3 575.8 11.2 576.2 11.7C575.699 11.7567 575.196 11.613 574.8 11.3ZM268 11.3C267.924 11.3106 267.854 11.3457 267.8 11.4C267.7 11.4 267.7 11.5 267.6 11.5H267.8C267.854 11.5543 267.924 11.5894 268 11.6C268.2 11.9 268.1 12.3 267.7 12.3C266.1 11.8 263 12.5 262.9 11.4C263.04 11.3958 263.178 11.4304 263.3 11.5V11.6H263.5C263.887 11.7468 264.29 11.8475 264.7 11.9C264.9 11.5 264.8 11.4 266.1 11.8C266.2 11.6 266.9 11.4 268 11.3ZM27.3 16.4C27.1111 16.3186 26.9052 16.2842 26.7 16.3C26.8139 16.1765 26.9495 16.0748 27.1 16C27.3 16 27.3 16.2 27.3 16.4ZM1364.3 8.9V9.3C1363.8 9.3 1363 9.2 1362.9 9.5C1362.5 9.5 1362.7 9.3 1362.9 9.3C1363 9.1 1362.8 9 1362.6 9C1362.9 8.9 1363.3 9 1364.3 8.9ZM1362.6 7.2C1362.8 6.7 1363.5 7 1364.3 7.1C1364.3 7.4 1363.9 7.4 1364 7.7C1363.3 7.6 1363.3 7.3 1362.6 7.2ZM1365.7 9C1366.4 9 1365.8 9.7 1366.7 9.6C1366.6 9.8 1365.6 9.7 1366 10.2C1365.5 10.2567 1365 10.113 1364.6 9.8C1364.3 9.2 1366 9.5 1365.7 9ZM1680 11C1680.3 11 1680.3 10.8 1680.7 10.9C1680.7 10.6 1679.8 10.7 1680 10.3C1680.6 10.5 1681.7 10.3 1682.7 10.6C1681.8 11.1 1679.7 11 1679.6 11.5C1678 11.6 1679.1 10.9 1678.6 10.9C1678.7 10.5 1679.6 11 1680 11ZM1648.1 16.9C1648.3 17.0905 1648.54 17.2282 1648.8 17.3H1646.5L1646.4 17.2C1646.7 16.8 1648.1 17.6 1648.1 16.9ZM1626.1 7.2C1626.1 7.4 1625.9 7.8 1626.4 7.8C1625.2 8.7 1621.1 8.4 1620.9 7.4C1622.1 6.5 1624.2 6.9 1626.1 7.2ZM1593.5 13.5C1591.5 14 1586.7 13.8 1585.6 12.9C1584.6 12.9 1584.9 13.4 1583.5 13.2C1584.6 12.9 1583.9 12.5 1583.8 11.7C1587 10.4 1594.4 11.7 1593.5 13.5ZM1577 11.9C1577.7 11.8 1578.5 12.4 1578.4 11.8C1579 11.8 1579.3 11.9 1579.4 12.1C1579.65 11.9886 1579.88 11.8547 1580.1 11.7C1581.6 11.6 1582 12 1583.5 11.8C1582.8 12.3 1581.3 12.5 1582.1 13.3C1581.4 13.5 1580.9 13.1 1581.1 13.9C1579.6 14.0044 1578.1 13.656 1576.8 12.9C1576.8 12.7 1576.7 12.5 1576.7 12.3C1576.78 12.2624 1576.85 12.2065 1576.9 12.1368C1576.95 12.0672 1576.99 11.9859 1577 11.9ZM1560.4 10.2C1559.8 10.6 1559 10.4 1558.1 10.3C1559 10.3 1559.8 10.2 1560.4 10.2ZM1529.7 11.4V11.5H1528.8C1529 11.3 1529.3 11.6 1529.7 11.4ZM1423.7 12.2C1423.55 12.2748 1423.41 12.3765 1423.3 12.5H1423.2C1423.4 12.4 1423.5 12.3 1423.7 12.2ZM1377.7 7.4C1377.6 7.1 1378.9 7 1379.4 6.5C1380.1 6.5 1379.5 7.2 1380.1 7.2C1380.7 7.2 1380.4 6.8 1380.4 6.6C1381.4 6.7 1381.3 6.4 1382.1 6.5C1384.1 7.6 1385.9 7 1388.3 7.2C1387.9 6.3 1387.2 7 1387.3 6.2C1389.2 6.6 1390.5 6.3 1392.5 6.6C1392.4 7.3 1391.5 7 1390.8 7.2C1391.53 7.62699 1392.36 7.83534 1393.2 7.8C1393.6 7.8 1393.5 7.5 1393.2 7.5C1393.7 7.2 1395 7.9 1395.3 8.2C1396.2 7.6 1401.6 7.5 1401.5 8.1C1405 7.8 1406.2 9.6 1409.1 10C1408.9 10.1 1408.7 10.3 1409.1 10.3C1409.1 10.4 1407.3 10.4 1408.4 10.7C1404.19 10.144 1399.94 9.94328 1395.7 10.1C1395.66 9.96659 1395.67 9.82463 1395.73 9.69743C1395.78 9.57023 1395.88 9.46534 1396 9.4C1394.9 8.3 1392.6 9.6 1391.2 8.7C1390.2 8.6 1390.3 8.9 1389.5 8.8C1389.8 9.2 1390 9 1390.9 8.9C1389.8 9.1 1389.6 9.6 1388.8 9.9C1387.9 9.8 1387.4 9.4 1386.7 9.9C1386.4 9.8 1386.2 9.5 1386 9.8C1385.5 9.8 1386.6 9.1 1385 9.2C1385 8.8 1384.9 8.5 1385.3 8.3C1383.1 8.4 1381 7.8 1378.1 7.9C1378.8 7.6 1378.2 7.3 1377.1 7.5C1377.1 7.4 1377.5 7.4 1377.7 7.4ZM1369.5 5.9C1370.17 6.13582 1370.89 6.23773 1371.6 6.2C1371 6.4 1371.8 7.2 1370.2 6.9C1370.8 6.4 1370.2 6.4 1368.8 6.5C1369 6.4 1369.1 6.2 1369.5 6.2C1369.3 6.1 1369.1 6 1369.2 5.8C1369.3 5.6 1369.5 5.8 1369.5 5.9ZM1360.6 5.6C1361.5 5.8 1362.3 5.2 1361.6 5.2C1362.7 4.8 1366.3 5.3 1365.4 5.8C1366.4 5.2 1367.8 5.8 1368.8 6.1C1368.7 6.7 1368 6.9 1367.4 7.3C1365.82 6.95878 1364.21 6.75799 1362.6 6.7C1362.5 6.4 1362.9 6.4 1363.3 6.4C1362.7 6.2 1360.1 6.6 1360.6 5.6ZM1314.9 4.9C1315.4 5 1315.4 5.2 1315.9 5.2C1315.9 5.4 1314.4 5.5 1315.6 5.6C1315.3 5.9 1315 5.6 1314.6 5.6C1314.8 5.4 1315 5.2 1314.9 4.9ZM1224.1 13.3C1224.1 13.7 1223.8 13.8 1223.8 14C1223.87 14.1207 1223.97 14.2158 1224.1 14.2701C1224.23 14.3245 1224.37 14.335 1224.5 14.3V15C1224.32 14.9019 1224.12 14.8424 1223.91 14.8252C1223.7 14.808 1223.5 14.8335 1223.3 14.9C1223.1 14.8 1223 14.8 1222.8 14.7C1223.1 14.6 1223 14.1 1223.4 14.4C1223.4 14.2 1223.4 14 1223.6 14C1223.2 14 1223 13.3 1222.9 13.6C1222.4 13.6 1223.3 13.2 1222.6 13.3C1223.1 13 1223.6 13.3 1224.1 13.3ZM1222.5 14.6C1222.35 14.5252 1222.21 14.4235 1222.1 14.3C1221.7 14.3 1221.4 14.2 1221 14.2C1221.54 14.1577 1222.08 14.0571 1222.6 13.9C1222.8 14.1 1222.5 14.2 1222.5 14.6ZM1222.3 13.1C1222.4 13.4 1221.8 13.3 1221.8 13.5C1221.6 13.5 1221.7 13.4 1221.8 13.4C1221.8 13.1 1221.1 13.3 1220.8 13.3C1221.2 12.8 1221.5 13.2 1222.3 13.1ZM1133 7.2C1133 7.4 1132.8 7.8 1133.3 7.8C1132.1 8.7 1128 8.4 1127.8 7.4C1129 6.4 1131.2 6.9 1133 7.2ZM1097.2 11.4C1097 11.5 1096.9 11.5 1096.7 11.6C1095.88 11.3854 1095.04 11.2184 1094.2 11.1C1095.21 11.1007 1096.21 11.2012 1097.2 11.4ZM1067.3 10.1C1066.7 10.5 1065.9 10.3 1065 10.2C1065.9 10.2 1066.7 10.1 1067.3 10.1ZM1006.8 15C1006.8 15.6 1005.7 15.2 1005.4 15.1C1005.7 15 1006.5 14.7 1006.8 15ZM991.8 15.8C992 16.7 991 16.4 991.3 17.3C991.246 17.2935 991.191 17.299 991.139 17.3163C991.087 17.3336 991.04 17.3622 991 17.4H990.5C990.4 17.2 990.7 16.9 990 17C990.4 16.7 990.1 16.4 989.5 16.6C989.8 15.5 990.7 16 991.8 15.8ZM974.4 14.6C973.7 16.1 971.4 15.2 969.7 14.9C970.2 14 972.9 13.8 974.4 14.6ZM930.6 12.1C930.4 12.2 930.2 12.4 930.2 12.5C930.2 12.4 930.2 12.4 930.1 12.4C930.279 12.3227 930.447 12.2218 930.6 12.1ZM925.6 13.4C925.7 14.3 926.7 15.3 925.4 15.8C921 16.1 917.8 15.2 916.6 13.9C919.557 13.2742 922.592 13.1056 925.6 13.4ZM884.6 7.3C884.5 7 885.8 6.9 886.3 6.4C887 6.4 886.4 7.1 887 7.1C887.6 7.1 887.3 6.7 887.3 6.5C888.3 6.6 888.2 6.3 889 6.4C891 7.5 892.8 6.9 895.2 7.1C894.8 6.2 894.1 6.9 894.2 6.1C896.1 6.5 897.4 6.2 899.4 6.5C899.3 7.2 898.4 6.9 897.7 7.1C898.425 7.52699 899.259 7.73534 900.1 7.7C900.5 7.7 900.4 7.4 900.1 7.4C900.6 7.1 901.9 7.8 902.2 8.1C903.1 7.5 908.5 7.4 908.4 8C911.9 7.7 913 9.5 915.9 9.9C914.6 10 913.4 10 912.2 10L911.6 10.3C909 10.1 906.2 10 903.8 10C903.4 10 903 9.9 902.6 9.9C902.6 9.6 902.7 9.5 903 9.3C901.9 8.2 899.6 9.5 898.2 8.6C897.2 8.5 897.3 8.8 896.5 8.7C896.8 9.1 897 8.9 897.9 8.8C896.8 9 896.6 9.5 895.8 9.8C894.9 9.7 894.4 9.3 893.7 9.8C893.4 9.7 893.2 9.4 893 9.7C892.5 9.7 893.6 9 892 9.1C892 8.7 891.9 8.4 892.3 8.2C890.1 8.3 888 7.7 885.1 7.8C885.8 7.5 885.2 7.2 884.1 7.4C884 7.3 884.4 7.4 884.6 7.3ZM876.4 5.8C877.074 6.03582 877.787 6.13773 878.5 6.1C877.9 6.3 878.7 7.1 877.1 6.8C877.7 6.3 877.1 6.3 875.7 6.4C875.9 6.3 876 6.1 876.4 6.1C876.2 6 876 5.9 876.1 5.7C876.4 5.7 876.4 5.7 876.4 5.8ZM867.5 5.5C868.4 5.7 869.2 5.1 868.5 5.1C869.6 4.7 873.2 5.2 872.3 5.7C873.3 5.1 874.7 5.7 875.7 6C875.6 6.6 874.9 6.8 874.3 7.2C872.721 6.85878 871.115 6.65799 869.5 6.6C869.4 6.3 869.8 6.3 870.2 6.3C869.6 6.1 867.1 6.5 867.5 5.5ZM821.8 4.8C822.3 4.9 822.3 5.1 822.8 5.1C822.8 5.3 821.3 5.4 822.5 5.5C822.2 5.8 821.9 5.5 821.5 5.5C821.567 5.47588 821.629 5.43816 821.681 5.38918C821.733 5.34021 821.774 5.28103 821.802 5.21534C821.831 5.14966 821.845 5.07888 821.844 5.00741C821.844 4.93595 821.829 4.86535 821.8 4.8ZM810.5 7C810.3 7.3 809.7 7.2 809.3 7.6C809.1 7.6 808.9 7.5 808.7 7.5C809.237 7.15912 809.864 6.98513 810.5 7ZM766.9 6.4C767 6.2 767.8 6.3 768.3 6.3C768.1 6.4 767.8 6.7 768.3 6.7C768.2 6.9 767.4 6.8 766.9 6.8C766.8 6.6 767.5 6.5 766.9 6.4ZM760.7 8.1C761.3 8.1 761.7 8.9 762.4 8.4C763.1 8.1 762.1 8.9 762.7 9.1C763.1 8.9 763.6 9 763 9.1C762.9 9.5 764.6 9 764 9.5C765.1 9.6 764.7 9.1 765.7 9.2C765.2 9.5 765.9 9.6 765.4 10.1C763.2 10.3 762.7 9.8 761.3 9.7C760.8 8.9 761.1 8.7 759.9 8.2C760.1 8 760.6 8.3 760.7 8.1ZM760 9.7C760.1 9.5 761.1 10.1 761 10.4C760.5 10.5 760.2 9.8 760 10.3C759.1 10.3 760.5 10 760 9.7ZM699 11.9C699.3 11.9 699.3 11.7 699.7 11.8C699.7 11.5 698.8 11.6 699 11.2C699.6 11.4 700.7 11.2 701.7 11.5C700.8 12 698.7 11.9 698.6 12.4C697 12.5 698.1 11.8 697.6 11.8C697.8 11.4 698.6 11.9 699 11.9ZM645.1 8.2C645.1 8.4 644.9 8.8 645.4 8.8C644.5 9.5 641.9 9.5 640.6 9C640.6 8.97348 640.611 8.94804 640.629 8.92929C640.648 8.91053 640.673 8.9 640.7 8.9H640.4C640.285 8.85924 640.18 8.79318 640.093 8.70666C640.007 8.62015 639.941 8.51536 639.9 8.4C641.1 7.5 643.3 7.9 645.1 8.2ZM592.3 8C594.3 9.1 596.1 8.5 598.5 8.7C598.1 7.8 597.4 8.5 597.5 7.7C599.4 8.1 600.7 7.8 602.7 8.1C602.6 8.8 601.7 8.5 601 8.7C601.225 8.81808 601.459 8.91839 601.7 9C600.979 9.05927 600.271 9.22787 599.6 9.5C595.1 9.7 592.8 8.9 590.3 9.1C590.4 8.9 590.7 8.8 590.7 8.6C590.7 8.4 590.7 8.3 590.8 8.1C591.6 8.3 591.5 7.9 592.3 8ZM590 8.5C589.5 8.6 589.8 9 588.8 8.9C588.741 8.79592 588.653 8.71177 588.546 8.65832C588.439 8.60487 588.319 8.58456 588.2 8.6C588.6 8.4 589.3 8.3 589.6 8C590 8 589.9 8.3 590 8.5ZM579.6 7.4C580.274 7.63582 580.987 7.73773 581.7 7.7C581.1 7.9 581.9 8.7 580.3 8.4C580.9 7.9 580.3 7.9 578.9 8C579.1 7.9 579.2 7.7 579.6 7.7C579.4 7.6 579.2 7.5 579.3 7.3C579.6 7.2 579.6 7.3 579.6 7.4ZM570.7 7.1C571.6 7.3 572.4 6.7 571.7 6.7C572.8 6.3 576.4 6.8 575.5 7.3C576.5 6.7 577.9 7.3 578.9 7.6C578.8 8.2 578.1 8.4 577.5 8.8C575.921 8.45878 574.315 8.25799 572.7 8.2C572.6 7.9 573 7.9 573.4 7.9C572.8 7.7 570.3 8.1 570.7 7.1ZM525 6.4C525.5 6.5 525.5 6.7 526 6.7C526 6.9 524.5 7 525.7 7.1C525.4 7.4 525.1 7.1 524.7 7.1C525 6.9 525.1 6.7 525 6.4ZM518.8 12C519.252 12.1436 519.732 12.1778 520.2 12.1V12.4C519.885 12.5372 519.536 12.5721 519.2 12.5C519.211 12.4795 519.217 12.4569 519.218 12.4339C519.219 12.4108 519.215 12.3878 519.206 12.3664C519.197 12.345 519.184 12.3258 519.167 12.31C519.15 12.2942 519.13 12.2823 519.108 12.275C519.086 12.2677 519.063 12.2652 519.04 12.2677C519.017 12.2702 518.995 12.2777 518.975 12.2896C518.956 12.3014 518.939 12.3175 518.926 12.3365C518.913 12.3556 518.904 12.3772 518.9 12.4C518.3 12.4 519 12.3 518.8 12ZM470.1 8C470.2 7.8 471 7.9 471.5 7.9C471.3 8 471 8.3 471.5 8.3C471.4 8.5 470.6 8.4 470.1 8.4C470 8.2 470.7 8.1 470.1 8ZM463.9 9.6C464.5 9.6 464.9 10.4 465.6 9.9C466.3 9.6 465.3 10.4 465.9 10.6C466.3 10.4 466.8 10.5 466.2 10.6C466.1 11 467.8 10.5 467.2 11C468.3 11.1 467.9 10.6 468.9 10.7C468.4 11 469.1 11.1 468.6 11.6C466.4 11.8 465.9 11.3 464.5 11.2C464 10.4 464.3 10.2 463.1 9.7C463.3 9.6 463.8 9.9 463.9 9.6ZM463.2 11.3C463.3 11.1 464.3 11.7 464.2 12C463.7 12.1 463.4 11.4 463.2 11.9C462.3 11.8 463.7 11.6 463.2 11.3ZM442.1 10.4C443.4 10.1 446.1 9.9 444.8 9.4C446.029 9.53068 447.266 9.56412 448.5 9.5C448.9 9.6 450.6 10.3 451.2 9.6C452 9.9 452.2 10.4 453.3 10.5C452.8 10.1 454.2 9.8 454.3 10.2C453.3 10.3 454.1 11.6 453.6 11.8C454.5 11.4 454.6 11.8 454.3 12.2H455.7C454.9 11.6 457.5 11.1 456 10C456.686 10.2 457.414 10.2 458.1 10C458.1 10.5 459.2 10.5 459.1 11C460.018 10.7854 460.984 10.9284 461.8 11.4C462.1 11.1 460.8 10.9 461.8 10.8C462.5 10.8 462.5 11.2 462.8 11.4C461.5 11.6 459 11.3 458.7 12C458.772 11.9992 458.842 12.0162 458.906 12.0497C458.969 12.0831 459.023 12.1318 459.063 12.1914C459.103 12.2511 459.127 12.3197 459.133 12.391C459.14 12.4624 459.128 12.5342 459.1 12.6H458.3C458.2 12.6 458.2 12.7 458.1 12.7C456.4 12.5 453.9 12.9 453.9 11.9C453.3 11.8 453 12.1 452.9 11.9C452.8 11.7 452.9 11.6 452.6 11.6C452.6 11.9 452.5 12 452.2 12.2C451.099 11.8469 449.955 11.645 448.8 11.6C447.5 11.6 446.5 12 445.1 11.7C445.1 11.3 444.6 11.5 444.1 11.3C444.3 12 443.1 11.7 442.9 12C442.985 12.0719 443.042 12.1717 443.06 12.2816C443.078 12.3915 443.057 12.5044 443 12.6C442.283 12.4579 441.623 12.1104 441.1 11.6C442.2 11.7 442.2 11.3 442.1 10.4ZM396.7 8.4C396.6 8.1 397.9 8 398.4 7.5C399.1 7.5 398.5 8.2 399.1 8.2C399.7 8.2 399.4 7.8 399.4 7.6C400.4 7.7 400.3 7.4 401.1 7.5C403.1 8.6 404.9 8 407.3 8.2C406.9 7.3 406.2 8 406.3 7.2C408.2 7.6 409.5 7.3 411.5 7.6C411.4 8.3 410.5 8 409.8 8.2C410.526 8.62699 411.359 8.83534 412.2 8.8C412.6 8.8 412.5 8.5 412.2 8.5C412.7 8.2 414 8.9 414.3 9.2C415.2 8.6 420.6 8.5 420.5 9.1C423.8 8.8 425 10.4 427.5 10.9C423.2 10.9 418.8 11.2 414.7 11.1C414.6 10.8 414.8 10.6 415.1 10.4C414 9.3 411.7 10.6 410.3 9.7C409.3 9.6 409.4 9.9 408.6 9.8C408.9 10.2 409.1 10 410 9.9C408.9 10.1 408.7 10.6 407.9 10.9C407 10.8 406.5 10.4 405.8 10.9C405.5 10.8 405.3 10.5 405.1 10.8C404.6 10.8 405.7 10.1 404.1 10.2C404.1 9.8 404 9.5 404.4 9.3C402.2 9.4 400.1 8.8 397.2 8.9C397.9 8.6 397.3 8.3 396.2 8.5C396.1 8.4 396.5 8.4 396.7 8.4ZM388.5 6.9C389.174 7.13582 389.887 7.23773 390.6 7.2C390 7.4 390.8 8.2 389.2 7.9C389.8 7.4 389.2 7.4 387.8 7.5C388 7.4 388.1 7.2 388.5 7.2C388.3 7.1 388.1 7 388.2 6.8C388.5 6.7 388.5 6.8 388.5 6.9ZM379.6 6.6C380.5 6.8 381.3 6.2 380.6 6.2C381.7 5.8 385.3 6.3 384.4 6.8C385.4 6.2 386.8 6.8 387.8 7.1C387.7 7.7 387 7.9 386.4 8.3C384.821 7.95878 383.215 7.75799 381.6 7.7C381.5 7.4 381.9 7.4 382.3 7.4C381.7 7.1 379.2 7.6 379.6 6.6ZM333.9 5.8C334.4 5.9 334.4 6.1 334.9 6.1C334.9 6.3 333.4 6.4 334.6 6.5C334.3 6.8 334 6.5 333.6 6.5C333.9 6.4 334 6.2 333.9 5.8ZM327.7 11.5C328.152 11.6436 328.632 11.6778 329.1 11.6V11.9C328.785 12.0372 328.436 12.0721 328.1 12C328.2 11.8 328 11.8 327.9 11.8V11.7H327.6C327.7 11.7 327.8 11.6 327.7 11.5ZM293.4 12.1C294.5 12.8 290.8 12.8 291 12C292.6 12.1 292.5 12.5 293.4 12.1ZM287.2 12.4C286.9 12.9 287.7 12.9 287.9 12.5C288.8 12.6 287.1 13.2 288.6 13.2C289.3 13.2 288.8 12.7 288.9 12.5C290 12.4 290 12.8 289.9 13.2C288.3 13.1 288.9 13.9 289.6 13.9C289 14.1 285.5 13.6 284.5 14C283.9 13.9 284.1 13.4 283.8 13.1C285.8 13.3 285.3 12.6 287.2 12.4ZM279 7.5C279.1 7.3 279.9 7.4 280.4 7.4C280.2 7.5 279.9 7.8 280.4 7.8C280.3 8 279.5 7.9 279 7.9C278.9 7.7 279.6 7.5 279 7.5ZM272.8 9.1C273.4 9.1 273.8 9.9 274.5 9.4C275.2 9.1 274.2 9.9 274.8 10.1C275.2 9.9 275.7 10 275.1 10.1C275 10.5 276.7 10 276.1 10.5C277.2 10.6 276.8 10.1 277.8 10.2C277.3 10.5 278 10.6 277.5 11.1C275.3 11.3 274.8 10.8 273.4 10.7C272.9 9.9 273.2 9.7 272 9.2C272.2 9 272.7 9.4 272.8 9.1ZM272.1 10.7C272.2 10.5 273.2 11.1 273.1 11.4C272.6 11.5 272.3 10.8 272.1 11.3C271.2 11.3 272.6 11.1 272.1 10.7ZM271.8 11C271.44 11.0874 271.07 11.1211 270.7 11.1V11H270.8C270.9 10.9 270.8 10.8 270.7 10.7V10.4H270.8C271.4 10.5 271.4 10.8 271.8 11ZM267 9.5C267 9.6 267.1 9.7 267.2 9.8H266L265.4 10.1C265.4 9.9 265.2 9.7 265 9.5C265.651 9.70113 266.349 9.70113 267 9.5ZM259.1 11.5C259.768 11.7674 260.481 11.9033 261.2 11.9C260.229 12.3389 259.159 12.5115 258.1 12.4C257.996 12.3575 257.905 12.2892 257.835 12.2018C257.765 12.1143 257.719 12.0104 257.7 11.9C258.7 12.4 258 11.4 259.1 11.5ZM243.9 12.2C244.2 12.2 244.2 12 244.6 12.1C244.6 11.8 243.7 11.9 243.9 11.5C244.5 11.7 245.6 11.5 246.6 11.8C245.7 12.3 243.6 12.2 243.5 12.7C241.9 12.8 243 12.1 242.5 12.1C242.7 11.7 243.5 12.2 243.9 12.2ZM190 8.5C190 8.7 189.8 9.1 190.3 9.1C189.1 10 185 9.7 184.8 8.7C186 7.8 188.2 8.2 190 8.5ZM116.9 9.9C117.8 10.1 118.6 9.5 117.9 9.5C119 9.1 122.6 9.6 121.7 10.1C121.923 9.96456 122.171 9.87684 122.429 9.84241C122.687 9.80798 122.95 9.82759 123.2 9.9C122.1 10.4 119.9 10.5 117.5 10.6C117.1 10.4 116.8 10.2 116.9 9.9ZM71.3 9.1C71.8 9.2 71.8 9.4 72.3 9.4C72.3 9.6 70.8 9.7 72 9.8C71.7 10.1 71.4 9.8 71 9.8C71.1291 9.74265 71.2317 9.63866 71.2873 9.50885C71.343 9.37904 71.3475 9.23301 71.3 9.1ZM66.5 14.9V15.2C66.3 15.2 66.2 15.3 65.9 15.3C65.7272 15.3156 65.5535 15.2808 65.4 15.2C65.4 15.1 65.3 15.1 65.2 15.1C65.1 15.1 65.1 15 65 15C65.1 14.9 65.1 14.9 65.1 14.8C65.5602 14.8951 66.031 14.9288 66.5 14.9ZM16.3 10.7C16.4 10.5 17.2 10.6 17.7 10.6C17.5 10.7 17.2 11 17.7 11C17.6 11.2 16.8 11.1 16.3 11.1C16.2 10.9 16.9 10.8 16.3 10.7ZM10.1 12.4C10.7 12.4 11.1 13.2 11.8 12.7C12.2 12.5 12 12.8 11.9 13.1H11.8C11.2412 12.9783 10.6718 12.9113 10.1 12.9C10 12.8 9.7 12.7 9.39999 12.5C9.59999 12.3 10.1 12.7 10.1 12.4ZM4.3 12.8C4.3 13.1 4.8 13.3 5.10001 13.5C4.90001 13.4 4.79999 13.4 4.89999 13.4C4.13223 13.3334 3.35909 13.367 2.60001 13.5C2.59196 13.3737 2.55075 13.2517 2.48053 13.1463C2.41031 13.041 2.31354 12.956 2.2 12.9C2.89897 13.0193 3.61554 12.9852 4.3 12.8ZM-2.60001 12.4C-1.8 12.7 -1.60001 13.2 -0.5 13.3C-1 12.9 0.399994 12.6 0.5 13C0.100006 13 0 13.2 0 13.5C-1.10001 13.3 -2.2 13 -3.39999 12.7C-3 12.6 -2.70001 12.6 -2.60001 12.4ZM-12.3 13.4C-12.5 13.5 -12.7 13.7 -12.7 13.8C-12.7 13.7 -12.7 13.7 -12.8 13.7C-12.6475 13.5782 -12.4793 13.4773 -12.3 13.4ZM-17.4 14.7C-17.3 15.3 -17 15.8 -16.9 16.3C-17.1361 16.31 -17.3706 16.3435 -17.6 16.4C-16.6 16.5 -18.7 16.5 -17.6 16.8C-18.3 16.8 -18.7 16.9 -19.1 16.9V17.2C-22.7 17.2 -25.3 16.3 -26.3 15.2C-23.377 14.5742 -20.3747 14.4055 -17.4 14.7ZM-58.3 8.7C-58.4 8.4 -57.1 8.3 -56.6 7.8C-55.9 7.8 -56.5 8.5 -55.9 8.5C-55.3 8.5 -55.6 8.1 -55.6 7.9C-54.6 8 -54.7 7.7 -53.9 7.8C-51.9 8.9 -50.1 8.3 -47.7 8.5C-48.1 7.6 -48.8 8.3 -48.7 7.5C-46.8 7.9 -45.5 7.6 -43.5 7.9C-43.6 8.6 -44.5 8.3 -45.2 8.5C-44.4745 8.92699 -43.6411 9.13534 -42.8 9.1C-42.4 9.1 -42.5 8.8 -42.8 8.8C-42.3 8.5 -41 9.2 -40.7 9.5C-39.8 8.9 -34.4 8.8 -34.5 9.4C-31 9.1 -29.8 10.9 -26.9 11.3C-27.1 11.4 -27.3 11.6 -26.9 11.6C-26.9 11.7 -28.7 11.7 -27.6 12C-31.809 11.444 -36.0573 11.2433 -40.3 11.4C-40.3368 11.2666 -40.3272 11.1246 -40.2727 10.9974C-40.2181 10.8702 -40.122 10.7653 -40 10.7C-41.1 9.6 -43.4 10.9 -44.8 10C-45.8 9.9 -45.7 10.2 -46.5 10.1C-46.2 10.5 -46 10.3 -45.1 10.2C-46.2 10.4 -46.4 10.9 -47.2 11.2C-48.1 11.1 -48.6 10.7 -49.3 11.2C-49.6 11.1 -49.8 10.8 -50 11.1C-50.5 11.1 -49.4 10.4 -51 10.5C-51 10.1 -51.1 9.8 -50.7 9.6C-52.9 9.7 -55 9.1 -57.9 9.2C-57.2 8.9 -57.8 8.6 -58.9 8.8C-59 8.7 -58.6 8.7 -58.3 8.7ZM-63.1 16.2C-62.2 16.2 -62.4 16.7 -62.4 17.1C-63.7 17.1 -63.4 16.6 -63.1 16.2ZM-66.6 7.2C-65.9262 7.43582 -65.2129 7.53773 -64.5 7.5C-65.1 7.7 -64.3 8.5 -65.9 8.2C-65.3 7.7 -65.9 7.7 -67.3 7.8C-67.1 7.7 -67 7.5 -66.6 7.5C-66.8 7.4 -67 7.3 -66.9 7.1C-66.6 7 -66.6 7.1 -66.6 7.2ZM-75.5 6.9C-74.6 7.1 -73.8 6.5 -74.5 6.5C-73.4 6.1 -69.8 6.6 -70.7 7.1C-69.7 6.5 -68.3 7.1 -67.3 7.4C-67.4 8 -68.1 8.2 -68.7 8.6C-70.2792 8.25878 -71.8854 8.05799 -73.5 8C-73.6 7.7 -73.2 7.7 -72.8 7.7C-73.4 7.4 -75.9 7.9 -75.5 6.9ZM-75.2 15.9C-74.9 16.2 -73.6 16.5 -74.5 16.9C-76.1 16.3 -78.5 17.4 -79.3 16.2C-77.9281 16.1936 -76.5582 16.0933 -75.2 15.9ZM-93.7 15.2C-93.7 14.9 -94.1 14.9 -94 14.6C-93.2 14.5 -92.4 14.4 -92.3 14C-90.4 13.9 -89.8 14.5 -87.8 14.1C-88 14.4 -87.3 14.4 -86.8 14.4C-86.4 16 -91 16.1 -94 15.4C-94.3 15.4 -94.3 15.5 -94.3 15.5C-95.4 15.5 -93.4 15.1 -94.6 15.1C-94.5 14.9 -94.1 15.2 -93.7 15.2ZM-102.6 13.9C-103 14.4 -102.6 14.2 -102.6 14.8C-102.9 14.7 -103.7 14.1 -104 14.5C-104.5 14.4 -103.7 14.2 -104.3 14.2C-104.3 13.8 -103.5 13.8 -102.6 13.9ZM-121.2 6.1C-120.7 6.2 -120.7 6.4 -120.2 6.4C-120.2 6.6 -121.7 6.7 -120.5 6.8C-120.8 7.1 -121.1 6.8 -121.5 6.8C-121.2 6.7 -121.1 6.5 -121.2 6.1ZM-127.4 11.8C-126.948 11.9436 -126.468 11.9778 -126 11.9V12.2C-126.315 12.3372 -126.664 12.3721 -127 12.3C-126.989 12.2795 -126.983 12.2569 -126.982 12.2339C-126.981 12.2108 -126.985 12.1878 -126.994 12.1664C-127.003 12.145 -127.016 12.1258 -127.033 12.11C-127.05 12.0942 -127.07 12.0823 -127.092 12.075C-127.114 12.0677 -127.137 12.0652 -127.16 12.0677C-127.183 12.0702 -127.205 12.0777 -127.225 12.0896C-127.244 12.1014 -127.261 12.1175 -127.274 12.1365C-127.287 12.1556 -127.296 12.1772 -127.3 12.2C-127.9 12.2 -127.2 12 -127.4 11.8ZM-161.7 12.4C-160.6 13.1 -164.3 13.1 -164.1 12.3C-162.4 12.4 -162.6 12.8 -161.7 12.4ZM-167.9 12.7C-168.2 13.2 -167.4 13.2 -167.2 12.8C-166.3 12.9 -168 13.5 -166.5 13.5C-165.8 13.5 -166.3 13 -166.2 12.8C-165.1 12.7 -165.1 13.1 -165.2 13.5C-166.8 13.4 -166.2 14.2 -165.5 14.2C-166.1 14.4 -169.6 13.9 -170.6 14.3C-171.2 14.2 -171 13.7 -171.3 13.4C-169.3 13.5 -169.8 12.9 -167.9 12.7ZM-176.1 7.8C-176 7.6 -175.2 7.7 -174.7 7.7C-174.9 7.8 -175.2 8.1 -174.7 8.1C-174.8 8.3 -175.6 8.2 -176.1 8.2C-176.2 8 -175.5 7.8 -176.1 7.8ZM-182.3 9.4C-181.7 9.4 -181.3 10.2 -180.6 9.7C-179.9 9.4 -180.9 10.2 -180.3 10.4C-179.9 10.2 -179.4 10.3 -180 10.4C-180.1 10.8 -178.4 10.3 -179 10.8C-177.9 10.9 -178.3 10.4 -177.3 10.5C-177.8 10.8 -177.1 10.9 -177.6 11.4C-179.8 11.6 -180.3 11.1 -181.7 11C-182.2 10.2 -181.9 10 -183.1 9.5C-182.9 9.3 -182.4 9.7 -182.3 9.4ZM-183 11C-182.9 10.8 -181.9 11.4 -182 11.7C-182.5 11.8 -182.8 11.1 -183 11.6C-183.9 11.6 -182.5 11.4 -183 11ZM-194.7 17.3C-194.4 17.3 -194.1 17.3 -194 17.4L-194.7 17.3Z" fill="#F2F0E8"/>
</svg>
