<svg width="1440" height="75" viewBox="0 0 1440 75" fill="none" xmlns="http://www.w3.org/2000/svg">
<path d="M1703.1 56.8001C1703.2 56.9001 1703.2 56.9001 1703 57.1001C1704.2 57.2001 1705.5 57.2001 1706.7 57.3001V61.5001C1706.39 61.5187 1706.09 61.5862 1705.8 61.7001C1707.3 62.1001 1705.4 62.7001 1704.1 62.7001C1703.9 61.7001 1700.6 63.0001 1699.6 62.6001C1701.1 62.5001 1698.3 62.0001 1696.9 62.2001C1697 62.9001 1693.9 62.5001 1693.8 63.5001C1694.8 63.0001 1694.1 64.0001 1695.2 63.9001C1695.8 63.5001 1697.6 63.6001 1698.3 63.3001C1698.4 64.3001 1699.9 63.3001 1700.7 63.3001C1700.9 63.7001 1700.8 63.8001 1702.1 63.4001C1702.4 63.8001 1703.1 63.9001 1704.2 64.0001C1703.5 63.7001 1704.6 63.2001 1705.9 63.3001L1706.8 63.6001V65.7001C1705.24 65.5679 1703.67 65.5345 1702.1 65.6001C1700.3 64.3001 1694.1 65.8001 1691.1 65.7001C1689.3 64.9001 1687 65.5001 1684.2 65.1001C1683.4 64.9001 1684.6 64.7001 1683.9 64.7001C1681.8 65.2001 1680 65.9001 1679.4 67.1001C1671.1 68.2001 1660.8 66.6001 1653 67.7001C1652.8 66.8001 1649.1 67.7001 1650.3 67.0001C1646.1 67.4001 1645.4 65.0001 1641 65.8001C1640.9 65.6001 1641.1 65.4001 1640.7 65.4001C1639.6 66.0001 1637.9 65.8001 1636.6 65.8001C1637.4 66.2001 1637.1 66.5001 1637.3 67.3001C1633.87 68.3533 1630.29 68.8595 1626.7 68.8001C1620.3 68.7001 1611.8 68.8001 1608.5 68.4001C1608.12 68.5156 1607.78 68.7216 1607.5 69.0001C1605.7 69.1001 1604.7 68.7001 1603.4 69.0001V68.1001C1600.5 67.6001 1598.2 68.8001 1594.8 68.5001C1595.9 67.4001 1594.5 66.4001 1591 66.7001C1590.78 66.4796 1590.51 66.3112 1590.22 66.2074C1589.92 66.1036 1589.61 66.0669 1589.3 66.1001C1587.3 66.5001 1582.2 66.4001 1580.7 65.7001C1576.2 65.5001 1573.9 66.3001 1571.4 66.1001C1571.5 66.3001 1571.9 66.4001 1571.7 66.7001C1570.4 66.9001 1571.2 66.1001 1570 66.3001C1569.6 66.9001 1567 66.6001 1565.9 66.9001C1564.3 66.1001 1562.6 66.1001 1560.7 65.6001C1560.2 65.6001 1560.4 66.0001 1559.7 65.9001C1558 65.0001 1553.1 65.2001 1549.1 64.9001V64.2001C1551.3 64.2001 1553.1 64.4001 1555.6 64.3001C1555.4 64.8001 1555.9 65.0001 1557 64.9001C1556.4 64.6001 1557 64.7001 1557 64.3001C1557.6 64.3001 1558.7 64.4001 1558.4 64.0001H1558.2C1557.2 63.2001 1554.5 63.2001 1555.4 62.1001C1553.1 62.0001 1550.8 62.1001 1548.6 62.0001C1548.7 61.3001 1548.2 61.2001 1547.7 61.1001C1546 62.0001 1543.9 62.0001 1542.1 62.3001C1540.5 62.6001 1540 63.3001 1538.8 63.5001C1538.8 63.5001 1538.6 63.2001 1538.5 63.2001C1537.56 63.2554 1536.62 63.3892 1535.7 63.6001C1533.3 63.6001 1531.2 63.2001 1528.7 63.5001C1528.8 63.4001 1528.7 63.1001 1528.7 62.9001C1526.7 62.9001 1524.7 62.8001 1522.9 62.7001C1523.1 62.7001 1523.3 62.6001 1522.9 62.6001C1522.4 62.8001 1522.9 63.4001 1521.5 63.2001C1521 63.0001 1521 62.6001 1520.1 62.6001C1519.4 63.4001 1511.6 63.3001 1509.1 62.7001C1509 63.0001 1509.5 63.0001 1509.4 63.3001C1505.9 63.1001 1501.9 63.1001 1498.8 62.4001V63.0001C1496.8 62.6001 1494.5 63.3001 1493.3 62.6001C1493.1 63.0001 1490.6 62.9001 1490.9 62.6001C1489.1 63.4001 1487.1 63.1001 1484.7 63.0001C1483.9 62.8001 1485.1 62.6001 1484.4 62.6001C1478.7 63.1001 1473.6 63.0001 1468.3 63.0001C1467.4 64.0001 1465.3 63.6001 1463.6 63.6001H1463.4C1462.2 63.6001 1461.1 63.9001 1460.7 64.9001C1460.2 64.5001 1459.5 65.0001 1459.1 64.3001C1458.57 64.4277 1458.04 64.5279 1457.5 64.6001C1457.6 63.7001 1456.6 63.9001 1456.1 64.2001C1455.7 63.4001 1454.2 64.2001 1452.8 63.9001C1453 63.6001 1452.9 63.4001 1452.8 63.1001C1450.8 63.2001 1448.5 62.8001 1446.2 63.2001C1446.09 63.0766 1445.95 62.9749 1445.8 62.9001C1444.86 62.8832 1443.93 62.8165 1443 62.7001C1441.6 63.4001 1438.6 62.9001 1436.5 63.2001C1436.04 62.8269 1435.49 62.585 1434.9 62.5001C1433.28 63.0341 1431.6 63.3699 1429.9 63.5001C1428.6 63.5001 1427.6 63.1001 1426.2 63.4001C1426.2 63.8001 1425.7 63.6001 1425.2 63.8001C1425.4 63.1001 1424.2 63.4001 1424 63.1001C1424.09 63.0282 1424.14 62.9284 1424.16 62.8185C1424.18 62.7086 1424.16 62.5957 1424.1 62.5001C1423.38 62.6422 1422.72 62.9896 1422.2 63.5001C1423.3 63.8001 1423.3 64.1001 1423.2 65.0001C1424.5 65.3001 1427.2 65.5001 1425.9 66.0001C1427.5 65.8498 1429.1 65.8498 1430.7 66.0001C1429.5 66.3001 1430.5 66.6001 1430.7 67.0001C1429.4 67.0001 1429.8 67.7001 1428 67.4001C1428.3 66.5001 1426 66.8001 1425.3 66.4001C1425.7 66.4001 1425.8 66.2001 1426 66.1001C1423.5 66.1001 1415.6 65.7001 1415.4 67.6001C1417.8 69.3001 1415.3 70.6001 1412 71.6001C1412.3 72.4001 1412 73.0001 1411.3 73.8001C1409.9 73.6001 1409 74.1001 1408.2 73.8001C1407.9 73.3001 1409.3 73.6001 1409.2 73.2001C1404.6 73.4001 1401 71.9001 1397.5 72.6001C1395.3 72.1001 1392.6 72.7001 1391.3 71.4001C1391.9 71.2001 1393.1 71.2001 1392.7 70.5001C1385.5 69.3001 1375.6 70.7001 1370.7 70.2001C1371 70.2001 1371.4 70.2001 1371.4 70.1001C1369.6 70.1001 1366.5 70.7001 1365.9 69.8001C1363.5 70.3001 1361.3 69.8001 1359.7 69.9001C1360.5 69.7001 1359.5 68.5001 1359.4 68.4001C1359.7 69.0001 1357.9 68.6001 1358.4 69.3001C1354.92 70.1075 1351.37 70.5433 1347.8 70.6001C1347 70.6001 1346.4 70.1001 1345.7 70.6001C1344.9 70.4001 1346.1 70.0001 1345.4 70.0001C1343.8 70.5001 1343.7 69.9001 1342 70.1001C1343.4 69.0001 1349 69.0001 1350.9 69.1001C1350.6 68.6001 1351.3 68.5001 1351.6 68.2001C1353.42 68.344 1355.23 67.925 1356.8 67.0001H1355.1C1355 66.4001 1355.6 67.0001 1356.5 66.9001C1356.1 66.7001 1356.1 66.5001 1356.5 66.3001C1355.7 66.7001 1355 66.2001 1353.8 66.3001C1353 66.6001 1352.7 67.8001 1351.4 67.3001C1351.74 67.2283 1352.08 67.128 1352.4 67.0001C1350.6 67.0001 1352.1 67.0001 1352.1 66.6001C1350.8 66.8001 1351.4 66.2001 1350.4 66.3001C1349.6 67.1001 1347.5 67.2001 1346.3 67.8001C1345.1 67.5001 1341.2 67.5001 1338.4 67.1001C1339.2 67.5001 1338 67.8001 1337.4 68.0001C1336.1 67.1001 1334.4 67.7001 1332.9 67.3001C1333 67.3001 1333 67.3001 1333.1 67.2001C1332.5 67.3001 1332 67.4001 1331.6 67.5001H1330.5V67.6001C1328.56 67.6326 1326.66 68.1851 1325 69.2001C1325.5 69.1001 1325.3 68.7001 1326.4 68.9001C1326.4 69.1001 1326.2 69.2001 1326.1 69.3001C1327.2 69.1001 1326.9 69.5001 1327.5 69.6001C1327.2 69.2001 1328.3 69.3001 1328.9 69.3001C1328.9 69.7001 1328.2 69.8001 1329.2 69.9001C1332.1 69.6001 1336 69.1001 1338.8 68.6001C1341.1 69.1001 1339.4 69.6001 1338.8 70.4001C1338.09 70.5592 1337.34 70.4525 1336.7 70.1001C1333 71.0001 1326.1 69.8001 1321.9 71.3001C1318.6 70.5001 1317.7 70.7001 1314 70.9001C1313.83 70.6953 1313.61 70.5277 1313.37 70.4075C1313.13 70.2872 1312.87 70.2167 1312.6 70.2001C1312.7 70.5001 1313.6 70.5001 1313.3 70.9001H1311.6C1311.7 70.4001 1310.6 70.2001 1309.5 70.2001C1309.7 68.9001 1311.4 68.6001 1312.9 69.0001C1312.67 68.7888 1312.4 68.6265 1312.11 68.5233C1311.82 68.42 1311.51 68.3781 1311.2 68.4001C1310.9 68.5001 1310.5 68.7001 1310.2 68.8001C1309.9 68.9001 1309.9 68.8001 1309.8 68.7001C1309.7 68.6001 1309.7 68.8001 1309.6 68.9001C1307.93 68.5345 1306.21 68.3999 1304.5 68.5001V68.9001C1303.5 68.5001 1302.4 69.1001 1301.7 68.3001C1297.4 68.9706 1293.02 69.038 1288.7 68.5001H1288.4C1286.2 69.0001 1282.3 68.6001 1280.2 68.5001C1280.3 69.2001 1279.2 68.8001 1278.8 69.1001C1278.6 69.0001 1278.6 68.8001 1278.5 68.7001C1277.9 68.8001 1277.3 68.8001 1276.7 68.9001C1274.35 69.1896 1271.97 69.2899 1269.6 69.2001C1269.6 69.4001 1269.4 69.4001 1269.4 69.6001C1266.99 69.0975 1264.51 69.0975 1262.1 69.6001C1261.1 69.3001 1259 68.2001 1257.4 69.7001C1257.5 69.4001 1257.2 69.4001 1257.1 69.3001C1257.7 69.4001 1257.6 69.1001 1257.8 68.9001C1257.6 68.9001 1257.5 68.7001 1257.3 68.6001C1257.4 69.1001 1256.8 68.9001 1257 69.5001C1256.4 69.5001 1255.9 69.5001 1255.8 69.2001C1255.8 69.4001 1255.6 69.4001 1255.6 69.6001C1255.1 69.6001 1255 69.1001 1254.2 69.3001C1253.7 70.5001 1251.6 68.6001 1250.9 69.9001C1250.6 69.4001 1249.8 69.4001 1249 69.5001C1248.24 69.423 1247.47 69.3896 1246.7 69.4001C1245.7 69.4001 1244.9 70.0001 1243.9 70.0001C1242.91 69.8109 1241.91 69.7105 1240.9 69.7001C1239.7 69.8001 1237.9 70.4001 1236.7 70.4001C1235.7 70.4001 1234.7 70.0001 1233.7 70.0001C1232 70.0001 1230.3 70.6001 1228.8 70.0001C1228.9 70.0001 1229 69.9001 1228.8 69.9001C1228.5 70.1001 1228.4 70.4001 1227.9 70.3001C1226.7 69.7001 1225.1 70.9001 1223.7 70.2001C1223 70.6001 1222.6 70.4001 1221.8 70.6001C1221.6 70.5001 1221.8 70.0001 1221.5 70.0001C1220.8 70.0001 1220.6 70.5001 1219.9 70.1001C1219.9 70.3001 1220.2 70.3001 1219.9 70.4001C1218.86 70.1849 1217.78 70.2895 1216.8 70.7001C1216.2 70.8001 1216.4 70.2001 1215.8 70.3001C1215.7 71.1001 1214.7 70.6001 1214.2 70.4001C1213.4 71.3001 1211.3 70.2001 1210.4 70.7001C1210.3 70.2001 1209.1 71.1001 1208.8 70.3001C1208.8 71.4001 1206.9 69.7001 1207.1 70.9001C1206.4 70.9001 1205.6 71.0001 1205.5 70.5001C1205 71.6001 1203.8 70.6001 1202.9 71.2001C1202.1 70.6001 1200.1 71.2001 1198.9 70.5001C1198.3 70.6001 1197.6 71.6001 1197.2 70.9001C1195.7 71.6001 1193.4 71.5001 1191.1 71.9001C1190.9 71.6001 1191.5 71.3001 1191.1 71.3001C1188.2 72.0001 1186.3 73.8001 1183.3 74.1001C1182.77 73.8134 1182.18 73.6469 1181.57 73.6124C1180.97 73.5778 1180.36 73.676 1179.8 73.9001C1179.1 73.6001 1178.3 72.6001 1177.7 72.7001C1177.4 72.2001 1178.3 72.6001 1178.2 72.3001C1177.3 71.7001 1176 72.2001 1175.2 71.6001C1175.6 70.1001 1174.5 68.9001 1173.3 67.9001C1168.7 67.8001 1164.2 67.6001 1160.2 68.2001C1160 67.3001 1156.3 68.2001 1157.5 67.5001C1153.3 67.9001 1152.6 65.5001 1148.2 66.3001C1148.1 66.1001 1148.3 65.9001 1147.9 65.9001C1146.8 66.5001 1145.1 66.3001 1143.8 66.3001C1144.6 66.7001 1144.3 67.0001 1144.5 67.8001C1141.07 68.8533 1137.49 69.3595 1133.9 69.3001C1127.5 69.2001 1119 69.3001 1115.7 68.9001C1115.32 69.0156 1114.98 69.2216 1114.7 69.5001C1112.9 69.6001 1112 69.2001 1110.6 69.5001V68.6001C1107.7 68.1001 1105.4 69.3001 1102 69.0001C1103.1 67.9001 1101.7 66.9001 1098.2 67.2001C1097.98 66.9796 1097.71 66.8112 1097.42 66.7074C1097.12 66.6036 1096.81 66.5669 1096.5 66.6001C1094.5 67.0001 1089.4 66.9001 1087.9 66.2001C1083.4 66.0001 1081.1 66.8001 1078.6 66.6001C1078.7 66.8001 1079.1 66.9001 1078.9 67.2001C1077.6 67.4001 1078.4 66.6001 1077.2 66.8001C1076.8 67.4001 1074.2 67.1001 1073.1 67.4001C1071.5 66.6001 1069.8 66.6001 1067.9 66.1001C1067.4 66.1001 1067.6 66.5001 1066.9 66.4001C1065.2 65.5001 1060.3 65.7001 1056.3 65.4001V64.7001C1058.5 64.7001 1060.3 64.9001 1062.8 64.8001C1062.6 65.3001 1063.1 65.5001 1064.2 65.4001C1063.6 65.1001 1064.2 65.2001 1064.2 64.8001C1064.8 64.8001 1065.9 64.9001 1065.6 64.5001H1065.4C1064.6 63.8001 1062.6 63.8001 1062.5 63.1001C1061.3 62.9076 1060.07 62.9758 1058.9 63.3001C1058.4 63.2001 1058.8 62.7001 1058.2 62.7001L1055.2 63.0001V61.6001C1055.1 61.6001 1055.1 61.6001 1055 61.5001C1053.3 62.4001 1051.2 62.4001 1049.4 62.7001C1047.8 63.0001 1047.3 63.7001 1046.1 63.9001C1046.1 63.9001 1045.9 63.6001 1045.8 63.6001C1044.86 63.6554 1043.92 63.7892 1043 64.0001C1040.6 64.0001 1038.5 63.6001 1036 63.9001C1036.1 63.7001 1035.8 63.1001 1036.2 63.2001C1036.4 63.7001 1036.8 63.2001 1037.2 63.5001C1037.3 63.0001 1037.9 62.9001 1037.7 62.2001C1036.95 62.4045 1036.18 62.5054 1035.4 62.5001C1035 63.8001 1033.4 63.2001 1032.6 62.6001C1032.9 62.6001 1032.3 62.1001 1032.1 62.0001C1030 62.2001 1029.1 61.0001 1028.1 61.6001C1028.2 61.6001 1028.3 61.5001 1028.3 61.3001C1026.2 60.9001 1025.5 61.4001 1023.4 61.7001C1022.29 61.2251 1021.11 60.9217 1019.9 60.8001C1017.5 58.8001 1012.4 60.1001 1009.8 60.2001C1009.7 59.8001 1010.1 59.9001 1010 59.5001C1009.7 59.9001 1008.4 59.4001 1008.1 59.8001C1008.1 60.2001 1008.1 60.6001 1008.4 60.7001C1008.78 60.5846 1009.12 60.3786 1009.4 60.1001C1009.6 60.5001 1009.4 60.4001 1009.6 60.8001C1008.5 60.7001 1008.4 61.6001 1007.9 61.5001C1008.4 61.7001 1007.8 62.2001 1007.7 62.4001C1006.5 61.7001 1006 61.8001 1004.4 61.8001C1004.4 60.9001 1003.7 61.6001 1003.4 60.9001C1003.9 61.0001 1003 60.3001 1003.6 60.3001C1004.2 60.8001 1003.9 59.9001 1004.6 59.9001C1003.99 59.9777 1003.38 59.9093 1002.8 59.7006C1002.23 59.4918 1001.71 59.1488 1001.3 58.7001C1000.51 58.6714 999.724 58.8179 998.998 59.1291C998.272 59.4404 997.624 59.9086 997.1 60.5001C995.992 60.4817 994.886 60.5823 993.8 60.8001C993.7 60.8001 993.6 60.5001 993.3 60.5001C992.7 60.6001 991.9 60.5001 991 60.6001C987.4 61.1001 982.5 61.4001 979.3 61.6001C978.2 61.7001 977.2 61.1001 976.7 61.7001C976.7 61.5001 976.8 61.2001 976.5 61.1001C975.4 61.4001 973.9 61.3001 973.9 62.4001C975.2 62.8001 975.3 62.9001 975.8 62.8001C974.5 65.0001 969 62.4001 968 65.0001C967.5 64.6001 966.8 65.1001 966.4 64.4001C965.872 64.5277 965.338 64.6279 964.8 64.7001C964.9 63.8001 963.9 64.0001 963.4 64.3001C963 63.5001 961.5 64.3001 960.1 64.0001C960.3 63.6001 960 63.5001 960.1 62.8001C958.1 61.8001 957.2 63.6001 955.4 62.8001C953.613 63.1003 951.787 63.1003 950 62.8001C949.9 62.5001 950.3 62.4001 950 62.4001C949.6 62.2001 948.1 62.6001 948.5 62.6001C946.9 62.7001 945.6 62.3001 944.1 62.4001C942 62.6001 939.7 63.7001 937.3 63.7001C936 63.7001 935 63.3001 933.6 63.6001C933.6 64.0001 933.1 63.8001 932.6 64.0001C932.8 63.3001 931.6 63.6001 931.4 63.3001C931.485 63.2282 931.542 63.1284 931.56 63.0185C931.578 62.9086 931.557 62.7957 931.5 62.7001C930.783 62.8422 930.123 63.1897 929.6 63.7001C930.7 64.0001 930.7 64.3001 930.6 65.2001C931.9 65.5001 934.6 65.7001 933.3 66.2001C934.896 66.0498 936.504 66.0498 938.1 66.2001C936.9 66.5001 937.9 66.8001 938.1 67.2001C936.8 67.2001 937.2 67.9001 935.4 67.6001C935.7 66.7001 933.4 67.0001 932.7 66.6001C933.1 66.6001 933.2 66.4001 933.4 66.3001C930.9 66.3001 923 65.9001 922.8 67.8001C925.2 69.5001 922.7 70.8001 919.4 71.8001C919.7 72.6001 919.4 73.2001 918.7 74.0001C917.3 73.8001 916.4 74.3001 915.6 74.0001C915.3 73.5001 916.7 73.8001 916.6 73.4001C912 73.6001 908.4 72.1001 904.9 72.8001C902.7 72.3001 900 72.9001 898.7 71.6001C899.3 71.4001 900.5 71.4001 900.1 70.7001C892.9 69.5001 883 70.9001 878.1 70.4001C878.4 70.4001 878.8 70.4001 878.8 70.3001C877 70.3001 873.9 70.9001 873.3 70.0001C870.9 70.5001 868.7 70.0001 867.1 70.1001C867.9 69.9001 866.9 68.7001 866.8 68.6001C867.1 69.2001 865.3 68.8001 865.8 69.5001C862.323 70.3075 858.769 70.7433 855.2 70.8001C854.4 70.8001 853.8 70.3001 853.1 70.8001C852.3 70.6001 853.5 70.2001 852.8 70.2001C851.2 70.7001 851.1 70.1001 849.4 70.3001C850.8 69.2001 856.4 69.2001 858.3 69.3001C858 68.8001 858.7 68.7001 859 68.4001C860.815 68.544 862.631 68.125 864.2 67.2001H862.5C862.4 66.6001 863 67.2001 863.9 67.1001C863.5 66.9001 863.5 66.7001 863.9 66.5001C863.1 66.9001 862.4 66.4001 861.2 66.5001C860.4 66.8001 860.1 68.0001 858.8 67.5001C859.141 67.4283 859.476 67.328 859.8 67.2001C858 67.2001 859.5 67.2001 859.5 66.8001C858.2 67.0001 858.8 66.4001 857.8 66.5001C857 67.3001 854.9 67.4001 853.7 68.0001C852.5 67.7001 848.6 67.7001 845.8 67.3001C846.6 67.7001 845.4 68.0001 844.8 68.2001C843.5 67.3001 841.8 67.9001 840.3 67.5001H840.4C839.536 67.5853 838.668 67.6187 837.8 67.6001C837.9 67.7001 838 67.7001 837.9 67.8001C835.957 67.8326 834.057 68.3851 832.4 69.4001C832.9 69.3001 832.7 68.9001 833.8 69.1001C833.8 69.3001 833.6 69.4001 833.5 69.5001C834.6 69.3001 834.3 69.7001 834.9 69.8001C834.6 69.4001 835.7 69.5001 836.3 69.5001C836.3 69.9001 835.6 70.0001 836.6 70.1001C839.5 69.8001 843.4 69.3001 846.2 68.8001C848.5 69.3001 846.8 69.8001 846.2 70.6001C845.487 70.7592 844.74 70.6525 844.1 70.3001C840.4 71.2001 833.5 70.0001 829.3 71.5001C826 70.7001 825.1 70.9001 821.4 71.1001C821.226 70.8953 821.012 70.7277 820.771 70.6075C820.531 70.4872 820.268 70.4167 820 70.4001C820.1 70.7001 821 70.7001 820.7 71.1001H819C819.1 70.6001 818 70.4001 816.9 70.4001C817.1 69.1001 818.8 68.8001 820.3 69.2001C820.073 68.9888 819.805 68.8265 819.512 68.7233C819.22 68.62 818.909 68.5781 818.6 68.6001C818.3 68.7001 817.9 68.9001 817.6 69.0001C816.577 68.7984 815.541 68.6648 814.5 68.6001C814.5 68.2001 815.2 68.1001 814.2 68.0001V68.6001C812.3 68.3001 810.6 68.6001 811.1 68.0001C810.2 68.4001 804.6 69.0001 806 68.1001C803 68.0001 803.7 68.0001 801.2 68.0001C801.9 68.4001 799.4 68.2001 798.1 68.1001C796.8 69.0001 793.4 68.6001 791.2 68.8001C791.3 68.4001 790.7 68.3001 790.2 68.2001C786.2 68.6001 783 69.5001 778.2 68.8001C778.1 68.9001 778.2 69.1001 777.9 69.1001C777.8 67.6001 781.5 67.8001 783.4 67.2001C783.4 68.1001 788.7 66.9001 788.9 68.1001H791.3C791 67.7001 792 67.8001 792 67.5001C794.9 67.7001 797 67.1001 799.2 67.2001C798.9 67.0001 797.5 67.2001 797.8 66.8001C798.6 66.9001 801.6 66.8001 799.5 67.2001C800.882 67.1277 802.255 66.9268 803.6 66.6001C803.7 66.8001 803.5 67.0001 803.9 67.0001C804.2 66.6001 805.1 66.5001 806 66.4001C805.9 65.7001 804.5 65.2001 801.9 65.4001C801.679 65.1796 801.412 65.0112 801.118 64.9074C800.824 64.8036 800.51 64.7669 800.2 64.8001C798.044 65.1021 795.856 65.1021 793.7 64.8001C793.5 64.9001 793.2 64.9001 793 65.0001C791.5 64.0001 788.9 64.9001 787.5 64.6001C787.7 65.3001 786.8 65.0001 786.5 64.7001C785.9 65.0001 786.7 65.0001 786.5 65.4001C785 65.7001 783.5 66.1001 783.1 66.9001C782.6 66.6001 781.6 66.5001 781 66.2001C781 66.5001 780.1 66.5001 779.3 66.5001C778.3 66.3001 779.2 66.0001 777.9 65.8001C776.4 65.8001 774.8 65.7001 774.1 66.1001C774.2 66.6001 775.4 66.7001 776.2 67.0001C776 67.5001 776.6 67.5001 776.5 67.9001C774.112 68.1999 771.706 68.3335 769.3 68.3001C769.3 68.5001 769.7 68.5001 769.6 68.7001C767.9 68.8001 766.7 68.7001 766.5 68.1001C766.9 68.1001 767.5 68.1001 767.5 68.0001C766 67.3001 763.9 68.2001 762.3 67.9001C762.7 67.9001 763.1 67.7001 762.6 67.6001C762.5 67.9001 760.5 67.6001 761.6 68.0001C757.8 68.3001 752.3 68.1001 754.7 67.0001C752.8 66.2001 747 67.7001 746.1 66.6001C746.3 66.6001 748.2 65.8001 748.8 66.4001C749.6 66.1001 749.8 65.6001 750.9 65.5001C750.4 65.9001 751.8 66.2001 751.9 65.8001C750.9 65.7001 751.7 64.4001 751.2 64.2001C752.1 64.6001 752.2 64.2001 751.9 63.8001H753.3C752.5 64.4001 755.1 64.9001 753.6 66.0001C754.286 65.8001 755.014 65.8001 755.7 66.0001C755.7 65.5001 756.8 65.5001 756.7 65.0001C757.618 65.2147 758.584 65.0717 759.4 64.6001C759.7 64.9001 758.4 65.1001 759.4 65.2001C760.1 65.2001 760.1 64.8001 760.4 64.6001C759.1 64.4001 756.6 64.7001 756.3 64.0001C756.419 64.0001 756.534 63.9527 756.618 63.8683C756.703 63.7839 756.75 63.6694 756.75 63.5501C756.75 63.4307 756.703 63.3163 756.618 63.2319C756.534 63.1475 756.419 63.1001 756.3 63.1001C754.7 63.6001 751.5 62.9001 751.5 64.0001C750.9 64.1001 750.6 63.8001 750.5 64.0001C750.4 64.2001 750.5 64.3001 750.2 64.3001C750.2 63.2001 747.8 63.2001 745.4 63.3001C745.1 62.8001 743.4 62.8001 743.7 62.4001C742.3 63.3001 740.3 62.1001 738.8 62.3001C739 62.2001 737.5 62.2001 737.5 62.1001C737.6 63.0001 734 62.6001 733.7 62.5001C734.7 62.4001 732.6 62.4001 733.7 62.1001C733 62.1001 732.6 62.0001 732.2 62.0001V59.7001C731.995 59.6843 731.789 59.7187 731.6 59.8001C731.7 59.8001 731.8 59.7001 731.8 59.5001C729.7 59.1001 729 59.6001 726.9 59.9001C726.8 59.9001 726.7 59.8001 726.6 59.8001V61.0001C726.291 61.0187 725.988 61.0862 725.7 61.2001C727.2 61.6001 725.3 62.2001 724 62.2001C723.8 61.2001 720.5 62.5001 719.5 62.1001C721 62.0001 718.2 61.5001 716.8 61.7001C716.9 62.4001 713.8 62.0001 713.7 63.0001C714.7 62.5001 714 63.5001 715.1 63.4001C715.7 63.0001 717.5 63.1001 718.2 62.8001C718.3 63.8001 719.8 62.8001 720.6 62.8001C720.8 63.2001 720.7 63.3001 722 62.9001C722.3 63.3001 723 63.4001 724.1 63.5001C723.4 63.2001 724.5 62.7001 725.8 62.8001L726.7 63.1001V64.7001C725.137 64.5679 723.567 64.5345 722 64.6001C720.2 63.3001 714 64.8001 711 64.7001C709.2 63.9001 706.9 64.5001 704.1 64.1001C703.3 63.9001 704.5 63.7001 703.8 63.7001C701.7 64.2001 699.9 64.9001 699.3 66.1001C691 67.2001 680.7 65.6001 672.9 66.7001C672.7 65.8001 669 66.7001 670.2 66.0001C666 66.4001 665.3 64.0001 660.9 64.8001C660.8 64.6001 661 64.4001 660.6 64.4001C659.5 65.0001 657.8 64.8001 656.5 64.8001C657.3 65.2001 657 65.5001 657.2 66.3001C653.767 67.3533 650.19 67.8595 646.6 67.8001C640.2 67.7001 631.7 67.8001 628.4 67.4001C628.023 67.5156 627.679 67.7216 627.4 68.0001H627.1C626.5 68.8001 624.9 69.4001 623 70.0001C623.3 70.8001 623 71.4001 622.3 72.2001C620.9 72.0001 620 72.5001 619.2 72.2001C618.9 71.7001 620.3 72.0001 620.2 71.6001C615.6 71.8001 612 70.3001 608.5 71.0001C606.3 70.5001 603.6 71.1001 602.3 69.8001C602.9 69.6001 604.1 69.6001 603.7 68.9001C596.5 67.7001 586.6 69.1001 581.7 68.6001C582 68.6001 582.4 68.6001 582.4 68.5001C580.6 68.5001 577.5 69.1001 576.9 68.2001C574.5 68.7001 572.3 68.2001 570.7 68.3001C571.5 68.1001 570.5 66.9001 570.4 66.8001C570.7 67.4001 568.9 67.0001 569.4 67.7001C565.923 68.5075 562.369 68.9433 558.8 69.0001C558 69.0001 557.4 68.5001 556.7 69.0001C555.9 68.8001 557.1 68.4001 556.4 68.4001C554.8 68.9001 554.7 68.3001 553 68.5001C554.4 67.4001 560 67.4001 561.9 67.5001C561.6 67.0001 562.3 66.9001 562.6 66.6001C564.415 66.744 566.231 66.325 567.8 65.4001H566.1C566 64.8001 566.6 65.4001 567.5 65.3001C567.1 65.1001 567.1 64.9001 567.5 64.7001C566.7 65.1001 566 64.6001 564.8 64.7001C564 65.0001 563.7 66.2001 562.4 65.7001C562.741 65.6283 563.076 65.528 563.4 65.4001C561.6 65.4001 563.1 65.4001 563.1 65.0001C561.8 65.2001 562.4 64.6001 561.4 64.7001C560.6 65.5001 558.5 65.6001 557.3 66.2001C556.1 65.9001 552.2 65.9001 549.4 65.5001C550.2 65.9001 549 66.2001 548.4 66.4001C547.1 65.5001 545.4 66.1001 543.9 65.7001C544.4 65.6001 545 65.5001 544.9 65.1001C542.8 64.9001 543 66.1001 541.1 65.5001C541.1 65.7001 541.5 65.7001 541.4 65.9001C539.457 65.9326 537.558 66.4851 535.9 67.5001C536.4 67.4001 536.2 67.0001 537.3 67.2001C537.3 67.4001 537.1 67.5001 537 67.6001C538.1 67.4001 537.8 67.8001 538.4 67.9001C538.1 67.5001 539.2 67.6001 539.8 67.6001C539.8 68.0001 539.1 68.1001 540.1 68.2001C543 67.9001 546.9 67.4001 549.7 66.9001C552 67.4001 550.3 67.9001 549.7 68.7001C548.987 68.8592 548.24 68.7525 547.6 68.4001C543.9 69.3001 537 68.1001 532.8 69.6001C529.5 68.8001 528.6 69.0001 524.9 69.2001C524.726 68.9953 524.512 68.8277 524.271 68.7075C524.031 68.5872 523.768 68.5167 523.5 68.5001C523.6 68.8001 524.5 68.8001 524.2 69.2001H522.5C522.6 68.7001 521.5 68.5001 520.4 68.5001C520.6 67.2001 522.3 66.9001 523.8 67.3001C523.573 67.0888 523.305 66.9265 523.012 66.8233C522.72 66.72 522.409 66.6781 522.1 66.7001C521.8 66.8001 521.4 67.0001 521.1 67.1001C520.077 66.8984 519.041 66.7648 518 66.7001C518 66.3001 518.7 66.2001 517.7 66.1001V66.7001C515.8 66.4001 514.1 66.7001 514.6 66.1001C513.7 66.5001 508.1 67.1001 509.5 66.2001C506.5 66.1001 507.2 66.1001 504.7 66.1001C505.4 66.5001 502.9 66.3001 501.6 66.2001C500.3 67.1001 496.9 66.7001 494.7 66.9001C494.8 66.5001 494.2 66.4001 493.7 66.3001C489.7 66.7001 486.5 67.6001 481.7 66.9001C481.6 67.0001 481.7 67.2001 481.4 67.2001C481.3 65.7001 485 65.9001 486.9 65.3001C486.9 66.2001 492.2 65.0001 492.4 66.2001H494.8C494.5 65.8001 495.5 65.9001 495.5 65.6001C498.4 65.8001 500.5 65.2001 502.7 65.3001C502.4 65.1001 501 65.3001 501.3 64.9001C502.1 65.0001 505.1 64.9001 503 65.3001C504.382 65.2277 505.755 65.0268 507.1 64.7001C507.2 64.9001 507 65.1001 507.4 65.1001C507.8 64.4001 509.9 64.6001 510.8 64.5001C510.8 64.3001 510.2 64.4001 510.1 64.2001C512.9 64.3001 513.4 63.8001 515.2 63.9001C515.4 62.9001 517.8 62.5001 518.6 61.4001C518.131 61.4289 517.66 61.3952 517.2 61.3001V61.9001C510.7 61.1001 503.4 62.4001 498.7 62.3001C498.3 62.8001 497.2 62.9001 496.3 63.2001C494.8 62.2001 492.2 63.1001 490.8 62.8001C491 63.5001 490.1 63.2001 489.8 62.9001C489.2 63.2001 490 63.2001 489.8 63.6001C488.3 63.9001 486.8 64.3001 486.4 65.1001C485.9 64.8001 484.9 64.7001 484.3 64.4001C484.3 64.7001 483.4 64.7001 482.6 64.7001C481.6 64.5001 482.5 64.2001 481.2 64.0001C479.7 64.0001 478.1 63.9001 477.4 64.3001C477.5 64.8001 478.7 64.9001 479.5 65.2001C479.3 65.7001 479.9 65.7001 479.8 66.1001C477.412 66.3999 475.006 66.5335 472.6 66.5001C472.6 66.7001 473 66.7001 472.9 66.9001C471.2 67.0001 470 66.9001 469.8 66.3001C470.2 66.3001 470.8 66.3001 470.8 66.2001C469.3 65.5001 467.2 66.4001 465.6 66.1001C466 66.1001 466.4 65.9001 465.9 65.8001C465.8 66.1001 463.8 65.8001 464.9 66.2001C461.1 66.5001 455.6 66.3001 458 65.2001C456.4 64.5001 451.8 65.5001 450 65.1001C449.8 65.3001 450.4 65.6001 450.5 65.9001C449.2 65.9001 449.6 66.6001 447.8 66.3001C448.1 65.4001 445.8 65.7001 445.1 65.3001C445.5 65.3001 445.6 65.1001 445.8 65.0001C443.3 65.0001 435.4 64.6001 435.2 66.5001C437.6 68.2001 435.1 69.5001 431.8 70.5001C432.1 71.3001 431.8 71.9001 431.1 72.7001C429.7 72.5001 428.8 73.0001 428 72.7001C427.7 72.2001 429.1 72.5001 429 72.1001C424.4 72.3001 420.8 70.8001 417.3 71.5001C415.1 71.0001 412.4 71.6001 411.1 70.3001C411.7 70.1001 412.9 70.1001 412.5 69.4001C405.3 68.2001 395.4 69.6001 390.5 69.1001C390.8 69.1001 391.2 69.1001 391.2 69.0001C389.4 69.0001 386.3 69.6001 385.7 68.7001C383.3 69.2001 381.1 68.7001 379.5 68.8001C380.3 68.6001 379.3 67.4001 379.2 67.3001C379.5 67.9001 377.7 67.5001 378.2 68.2001C374.723 69.0075 371.169 69.4433 367.6 69.5001C366.8 69.5001 366.2 69.0001 365.5 69.5001C364.7 69.3001 365.9 68.9001 365.2 68.9001C363.6 69.4001 363.5 68.8001 361.8 69.0001C363.2 67.9001 368.8 67.9001 370.7 68.0001C370.4 67.5001 371.1 67.4001 371.4 67.1001C373.216 67.244 375.031 66.825 376.6 65.9001H374.9C374.8 65.3001 375.4 65.9001 376.3 65.8001C375.9 65.6001 375.9 65.4001 376.3 65.2001C375.5 65.6001 374.8 65.1001 373.6 65.2001C372.8 65.5001 372.5 66.7001 371.2 66.2001C371.541 66.1283 371.876 66.028 372.2 65.9001C370.4 65.9001 371.9 65.9001 371.9 65.5001C370.6 65.7001 371.2 65.1001 370.2 65.2001C369.4 66.0001 367.3 66.1001 366.1 66.7001C364.9 66.4001 361 66.4001 358.2 66.0001C359 66.4001 357.8 66.7001 357.2 66.9001C355.9 66.0001 354.2 66.6001 352.7 66.2001C353.2 66.1001 353.8 66.0001 353.7 65.6001C351.6 65.4001 351.8 66.6001 349.9 66.0001C349.9 66.2001 350.3 66.2001 350.2 66.4001C348.257 66.4326 346.358 66.9851 344.7 68.0001C345.2 67.9001 345 67.5001 346.1 67.7001C346.1 67.9001 345.9 68.0001 345.8 68.1001C346.9 67.9001 346.6 68.3001 347.2 68.4001C346.9 68.0001 348 68.1001 348.6 68.1001C348.6 68.5001 347.9 68.6001 348.9 68.7001C351.8 68.4001 355.7 67.9001 358.5 67.4001C360.8 67.9001 359.1 68.4001 358.5 69.2001C357.787 69.3592 357.04 69.2525 356.4 68.9001C352.7 69.8001 345.8 68.6001 341.6 70.1001C338.3 69.3001 337.4 69.5001 333.7 69.7001C333.526 69.4953 333.312 69.3277 333.071 69.2075C332.831 69.0872 332.568 69.0167 332.3 69.0001C332.4 69.3001 333.3 69.3001 333 69.7001H331.3C331.4 69.2001 330.3 69.0001 329.2 69.0001C329.4 67.7001 331.1 67.4001 332.6 67.8001C332.373 67.5888 332.105 67.4265 331.812 67.3233C331.52 67.22 331.209 67.1781 330.9 67.2001C330.6 67.3001 330.2 67.5001 329.9 67.6001C328.877 67.3984 327.841 67.2648 326.8 67.2001C326.8 66.8001 327.5 66.7001 326.5 66.6001V67.2001C324.6 66.9001 322.9 67.2001 323.4 66.6001C322.5 67.0001 316.9 67.6001 318.3 66.7001C315.3 66.6001 316 66.6001 313.5 66.6001C314.2 67.0001 311.7 66.8001 310.4 66.7001C309.1 67.6001 305.7 67.2001 303.5 67.4001C303.6 67.0001 303 66.9001 302.5 66.8001C298.5 67.2001 295.3 68.1001 290.5 67.4001C290.4 67.5001 290.5 67.7001 290.2 67.7001C290.1 66.2001 293.8 66.4001 295.7 65.8001C295.7 66.7001 301 65.5001 301.2 66.7001H303.6C303.3 66.3001 304.3 66.4001 304.3 66.1001C307.2 66.3001 309.3 65.7001 311.5 65.8001C311.2 65.6001 309.8 65.8001 310.1 65.4001C310.9 65.5001 313.9 65.4001 311.8 65.8001C313.182 65.7277 314.555 65.5268 315.9 65.2001C316 65.4001 315.8 65.6001 316.2 65.6001C316.6 64.9001 318.7 65.1001 319.6 65.0001C319.6 64.8001 319 64.9001 318.9 64.7001C321.7 64.8001 322.2 64.3001 324 64.4001C324.2 63.4001 326.6 63.0001 327.4 61.9001H327.2C326.844 62.1406 326.429 62.2789 326 62.3001V62.4001H325.5C324.661 62.3544 323.821 62.4217 323 62.6001C322.694 62.4075 322.355 62.272 322 62.2001C316.6 62.1001 311.2 62.9001 307.4 62.9001C307 63.4001 305.9 63.5001 305 63.8001C303.5 62.8001 300.9 63.7001 299.5 63.4001C299.7 64.1001 298.8 63.8001 298.5 63.5001C297.9 63.8001 298.7 63.8001 298.5 64.2001C297 64.5001 295.5 64.9001 295.1 65.7001C294.6 65.4001 293.6 65.3001 293 65.0001C293 65.3001 292.1 65.3001 291.3 65.3001C290.3 65.1001 291.2 64.8001 289.9 64.6001C288.4 64.6001 286.8 64.5001 286.1 64.9001C286.2 65.4001 287.4 65.5001 288.2 65.8001C288 66.3001 288.6 66.3001 288.5 66.7001C286.112 66.9999 283.706 67.1335 281.3 67.1001C281.3 67.3001 281.7 67.3001 281.6 67.5001C279.9 67.6001 278.7 67.5001 278.5 66.9001C278.9 66.9001 279.5 66.9001 279.5 66.8001C278 66.1001 275.9 67.0001 274.3 66.7001C274.7 66.7001 275.1 66.5001 274.6 66.4001C274.5 66.7001 272.5 66.4001 273.6 66.8001C269.8 67.1001 264.3 66.9001 266.7 65.8001C264.8 65.0001 259 66.5001 258.1 65.4001C258.3 65.4001 260.2 64.6001 260.8 65.2001C261.6 64.9001 261.8 64.4001 262.9 64.3001C262.4 64.7001 263.8 65.0001 263.9 64.6001C263.4 64.6001 263.4 64.3001 263.4 63.9001C260.8 64.0001 257.6 64.6001 255.7 64.6001C253.9 63.8001 251.6 64.4001 248.8 64.0001C248 63.8001 249.2 63.6001 248.5 63.6001C246.4 64.1001 244.6 64.8001 244 66.0001C235.7 67.1001 225.4 65.5001 217.6 66.6001C217.4 65.7001 213.7 66.6001 214.9 65.9001C210.7 66.3001 210 63.9001 205.6 64.7001C205.5 64.5001 205.7 64.3001 205.3 64.3001C204.2 64.9001 202.5 64.7001 201.2 64.7001C202 65.1001 201.7 65.4001 201.9 66.2001C198.467 67.2533 194.89 67.7595 191.3 67.7001C184.9 67.6001 176.4 67.7001 173.1 67.3001C172.723 67.4156 172.379 67.6216 172.1 67.9001C171.099 67.9239 170.097 67.8906 169.1 67.8001C169.121 68.148 169.07 68.4965 168.949 68.8235C168.829 69.1505 168.642 69.449 168.4 69.7001C167 69.5001 166.1 70.0001 165.3 69.7001C165 69.2001 166.4 69.5001 166.3 69.1001C161.7 69.3001 158.1 67.8001 154.6 68.5001C152.4 68.0001 149.7 68.6001 148.4 67.3001C149 67.1001 150.2 67.1001 149.8 66.4001C142.6 65.2001 132.7 66.6001 127.8 66.1001C128.1 66.1001 128.5 66.1001 128.5 66.0001C126.7 66.0001 123.6 66.6001 123 65.7001C120.6 66.2001 118.4 65.7001 116.8 65.8001C117.6 65.6001 116.6 64.4001 116.5 64.3001C116.8 64.9001 115 64.5001 115.5 65.2001C112.023 66.0075 108.469 66.4433 104.9 66.5001C104.1 66.5001 103.5 66.0001 102.8 66.5001C102 66.3001 103.2 65.9001 102.5 65.9001C100.9 66.4001 100.8 65.8001 99.1 66.0001C100.5 64.9001 106.1 64.9001 108 65.0001C107.7 64.5001 108.4 64.4001 108.7 64.1001C110.485 64.2612 112.274 63.8402 113.8 62.9001H112.1C112 62.3001 112.6 62.9001 113.5 62.8001C113.1 62.6001 113.1 62.4001 113.5 62.2001C112.7 62.6001 112 62.1001 110.8 62.2001C110 62.5001 109.7 63.7001 108.4 63.2001C108.741 63.1283 109.076 63.028 109.4 62.9001C107.6 62.9001 109.1 62.9001 109.1 62.5001C107.8 62.7001 108.4 62.1001 107.4 62.2001C106.6 63.0001 104.5 63.1001 103.3 63.7001C102.1 63.4001 98.2 63.4001 95.4 63.0001C96.2 63.4001 95 63.7001 94.4 63.9001C93.1 63.0001 91.4 63.6001 89.9 63.2001C90.4 63.1001 91 63.0001 90.9 62.6001C88.8 62.4001 89 63.6001 87.1 63.0001C87.1 63.2001 87.5 63.2001 87.4 63.4001C85.4567 63.4326 83.5575 63.9851 81.9 65.0001C82.4 64.9001 82.2 64.5001 83.3 64.7001C83.3 64.9001 83.1 65.0001 83 65.1001C84.1 64.9001 83.8 65.3001 84.4 65.4001C84.1 65.0001 85.2 65.1001 85.8 65.1001C85.8 65.5001 85.1 65.6001 86.1 65.7001C89 65.4001 92.9 64.9001 95.7 64.4001C98 64.9001 96.3 65.4001 95.7 66.2001C94.9868 66.3592 94.2401 66.2525 93.6 65.9001C89.9 66.8001 83 65.6001 78.8 67.1001C75.5 66.3001 74.6 66.5001 70.9 66.7001C70.7257 66.4953 70.5119 66.3277 70.2713 66.2075C70.0308 66.0872 69.7684 66.0167 69.5 66.0001C69.6 66.3001 70.5 66.3001 70.2 66.7001H68.5C68.6 66.2001 67.5 66.0001 66.4 66.0001C66.6 64.7001 68.3 64.4001 69.8 64.8001C69.573 64.5888 69.3049 64.4265 69.0124 64.3233C68.7199 64.22 68.4094 64.1781 68.1 64.2001C67.8 64.3001 67.4 64.5001 67.1 64.6001C66.0767 64.3984 65.041 64.2648 64 64.2001C64 63.8001 64.7 63.7001 63.7 63.6001V64.2001C61.8 63.9001 60.1 64.2001 60.6 63.6001C59.7 64.0001 54.1 64.6001 55.5 63.7001C52.5 63.6001 53.2 63.6001 50.7 63.6001C51.4 64.0001 48.9 63.8001 47.6 63.7001C46.3 64.6001 42.9 64.2001 40.7 64.4001C40.8 64.0001 40.2 63.9001 39.7 63.8001C35.7 64.2001 32.5 65.1001 27.7 64.4001C27.6 64.5001 27.7 64.7001 27.4 64.7001C27.3 63.2001 31 63.4001 32.9 62.8001C32.9 63.7001 38.2 62.5001 38.4 63.7001H40.8C40.5 63.3001 41.5 63.4001 41.5 63.1001C44.4 63.3001 46.5 62.7001 48.7 62.8001C48.4 62.6001 47 62.8001 47.3 62.4001C48.1 62.5001 51.1 62.4001 49 62.8001C50.3823 62.7277 51.7549 62.5268 53.1 62.2001C53.2 62.4001 53 62.6001 53.4 62.6001C53.8 61.9001 55.9 62.1001 56.8 62.0001C56.8 61.8001 56.2 61.9001 56.1 61.7001C58.9 61.8001 59.4 61.3001 61.2 61.4001C61.3 60.9001 62 60.5001 62.8 60.1001H61.8C61.8 59.2001 61.1 59.9001 60.8 59.2001C60.9 59.2001 61 59.2001 60.9 59.1001C55.1 58.8001 48.9 59.8001 44.7 59.8001C44.3 60.3001 43.2 60.4001 42.3 60.7001C40.8 59.7001 38.2 60.6001 36.8 60.3001C37 61.0001 36.1 60.7001 35.8 60.4001C35.2 60.7001 36 60.7001 35.8 61.1001C34.3 61.4001 32.8 61.8001 32.4 62.6001C32.1026 62.3902 31.7601 62.2531 31.4 62.2001C29.4 62.4001 26.7 61.7001 25.6 63.1001C25.7 63.2001 25.9 63.3001 25.9 63.5001C23.5121 63.7999 21.1064 63.9335 18.7 63.9001C18.7 64.1001 19.1 64.1001 19 64.3001C17.3 64.4001 16.1 64.3001 15.9 63.7001C16.3 63.7001 16.9 63.7001 16.9 63.6001C15.4 62.9001 13.3 63.8001 11.7 63.5001C12.1 63.5001 12.5 63.3001 12 63.2001C11.9 63.5001 9.89999 63.2001 11 63.6001C7.2 63.9001 1.70001 63.7001 4.10001 62.6001C2.20001 61.8001 -3.60001 63.3001 -4.5 62.2001C-4.39417 62.1879 -4.29201 62.1538 -4.2 62.1001C-4.59431 62.1829 -4.99739 62.2165 -5.39999 62.2001C-6.7 62.2001 -7.70001 61.8001 -9.10001 62.1001C-9.10001 62.5001 -9.60001 62.3001 -10.1 62.5001C-9.90001 61.8001 -11.1 62.1001 -11.3 61.8001C-11.2149 61.7282 -11.1582 61.6284 -11.1398 61.5185C-11.1215 61.4086 -11.1429 61.2957 -11.2 61.2001C-11.9169 61.3422 -12.577 61.6897 -13.1 62.2001C-12 62.5001 -12 62.8001 -12.1 63.7001C-10.8 64.0001 -8.09999 64.2001 -9.39999 64.7001C-7.80353 64.5498 -6.19647 64.5498 -4.60001 64.7001C-5.8 65.0001 -4.8 65.3001 -4.60001 65.7001C-5.90001 65.7001 -5.5 66.4001 -7.3 66.1001C-7 65.2001 -9.3 65.5001 -10 65.1001C-9.60001 65.1001 -9.5 64.9001 -9.3 64.8001C-12.7 64.5001 -20.7 64.2001 -20.9 66.0001C-18.5 67.7001 -21 69.0001 -24.3 70.0001C-24 70.8001 -24.3 71.4001 -25 72.2001C-26.4 72.0001 -27.3 72.5001 -28.1 72.2001C-28.4 71.7001 -27 72.0001 -27.1 71.6001C-31.7 71.8001 -35.3 70.3001 -38.8 71.0001C-41 70.5001 -43.7 71.1001 -45 69.8001C-44.4 69.6001 -43.2 69.6001 -43.6 68.9001C-50.8 67.7001 -60.7 69.1001 -65.6 68.6001C-65.3 68.6001 -64.9 68.6001 -64.9 68.5001C-66.7 68.5001 -69.8 69.1001 -70.4 68.2001C-72.8 68.7001 -75 68.2001 -76.6 68.3001C-75.8 68.1001 -76.8 66.9001 -76.9 66.8001C-76.6 67.4001 -78.4 67.0001 -77.9 67.7001C-81.3773 68.5075 -84.9306 68.9433 -88.5 69.0001C-89.3 69.0001 -89.9 68.5001 -90.6 69.0001C-91.4 68.8001 -90.2 68.4001 -90.9 68.4001C-92.5 68.9001 -92.6 68.3001 -94.3 68.5001C-92.9 67.4001 -87.3 67.4001 -85.4 67.5001C-85.7 67.0001 -85 66.9001 -84.7 66.6001C-82.8845 66.744 -81.0688 66.325 -79.5 65.4001H-81.2C-81.3 64.8001 -80.7 65.4001 -79.8 65.3001C-80.2 65.1001 -80.2 64.9001 -79.8 64.7001C-80.6 65.1001 -81.3 64.6001 -82.5 64.7001C-83.3 65.0001 -83.6 66.2001 -84.9 65.7001C-84.5588 65.6283 -84.2243 65.528 -83.9 65.4001C-85.7 65.4001 -84.2 65.4001 -84.2 65.0001C-85.5 65.2001 -84.9 64.6001 -85.9 64.7001C-86.7 65.5001 -88.8 65.6001 -90 66.2001C-91.2 65.9001 -95.1 65.9001 -97.9 65.5001C-97.1 65.9001 -98.3 66.2001 -98.9 66.4001C-100.2 65.5001 -101.9 66.1001 -103.4 65.7001C-102.9 65.6001 -102.3 65.5001 -102.4 65.1001C-104.5 64.9001 -104.3 66.1001 -106.2 65.5001C-106.2 65.7001 -105.8 65.7001 -105.9 65.9001C-107.843 65.9326 -109.742 66.4851 -111.4 67.5001C-110.9 67.4001 -111.1 67.0001 -110 67.2001C-110 67.4001 -110.2 67.5001 -110.3 67.6001C-109.2 67.4001 -109.5 67.8001 -108.9 67.9001C-109.2 67.5001 -108.1 67.6001 -107.5 67.6001C-107.5 68.0001 -108.2 68.1001 -107.2 68.2001C-104.3 67.9001 -100.4 67.4001 -97.6 66.9001C-95.3 67.4001 -97 67.9001 -97.6 68.7001C-98.3132 68.8592 -99.0599 68.7525 -99.7 68.4001C-103.4 69.3001 -110.3 68.1001 -114.5 69.6001C-117.8 68.8001 -118.7 69.0001 -122.4 69.2001C-122.574 68.9953 -122.788 68.8277 -123.029 68.7075C-123.269 68.5872 -123.532 68.5167 -123.8 68.5001C-123.7 68.8001 -122.8 68.8001 -123.1 69.2001H-124.8C-124.7 68.7001 -125.8 68.5001 -126.9 68.5001C-126.7 67.2001 -125 66.9001 -123.5 67.3001C-123.727 67.0888 -123.995 66.9265 -124.288 66.8233C-124.58 66.72 -124.891 66.6781 -125.2 66.7001C-125.5 66.8001 -125.9 67.0001 -126.2 67.1001C-127.223 66.8984 -128.259 66.7648 -129.3 66.7001C-129.3 66.3001 -128.6 66.2001 -129.6 66.1001V66.7001C-131.5 66.4001 -133.2 66.7001 -132.7 66.1001C-133.6 66.5001 -139.2 67.1001 -137.8 66.2001C-140.8 66.1001 -140.1 66.1001 -142.6 66.1001C-141.9 66.5001 -144.4 66.3001 -145.7 66.2001C-147 67.1001 -150.4 66.7001 -152.6 66.9001C-152.5 66.5001 -153.1 66.4001 -153.6 66.3001C-157.6 66.7001 -160.8 67.6001 -165.6 66.9001C-165.7 67.0001 -165.6 67.2001 -165.9 67.2001C-166 65.7001 -162.3 65.9001 -160.4 65.3001C-160.4 66.2001 -155.1 65.0001 -154.9 66.2001H-152.5C-152.8 65.8001 -151.8 65.9001 -151.8 65.6001C-148.9 65.8001 -146.8 65.2001 -144.6 65.3001C-144.9 65.1001 -146.3 65.3001 -146 64.9001C-145.2 65.0001 -142.2 64.9001 -144.3 65.3001C-142.918 65.2277 -141.545 65.0268 -140.2 64.7001C-140.1 64.9001 -140.3 65.1001 -139.9 65.1001C-139.5 64.4001 -137.4 64.6001 -136.5 64.5001C-136.5 64.3001 -137.1 64.4001 -137.2 64.2001C-134.4 64.3001 -133.9 63.8001 -132.1 63.9001C-131.9 62.9001 -129.5 62.5001 -128.7 61.4001C-129.176 61.4562 -129.659 61.3872 -130.1 61.2001V61.8001C-136.6 61.0001 -143.9 62.3001 -148.6 62.2001C-149 62.7001 -150.1 62.8001 -151 63.1001C-152.5 62.1001 -155.1 63.0001 -156.5 62.7001C-156.3 63.4001 -157.2 63.1001 -157.5 62.8001C-158.1 63.1001 -157.3 63.1001 -157.5 63.5001C-159 63.8001 -160.5 64.2001 -160.9 65.0001C-161.4 64.7001 -162.4 64.6001 -163 64.3001C-163 64.6001 -163.9 64.6001 -164.7 64.6001C-165.7 64.4001 -164.8 64.1001 -166.1 63.9001C-167.6 63.9001 -169.2 63.8001 -169.9 64.2001C-169.8 65.0001 -168.7 65.1001 -167.9 65.3001C-168.1 65.8001 -167.5 65.8001 -167.6 66.2001C-169.988 66.4999 -172.394 66.6335 -174.8 66.6001C-174.8 66.8001 -174.4 66.8001 -174.5 67.0001C-176.2 67.1001 -177.4 67.0001 -177.6 66.4001C-177.2 66.4001 -176.6 66.4001 -176.6 66.3001C-178.1 65.6001 -180.2 66.5001 -181.8 66.2001C-181.4 66.2001 -181 66.0001 -181.5 65.9001C-181.6 66.2001 -183.6 65.9001 -182.5 66.3001C-186.3 66.6001 -191.8 66.4001 -189.4 65.3001C-191 64.5001 -196.8 66.0001 -197.7 64.9001C-197.5 64.9001 -195.6 64.1001 -195 64.7001C-194.2 64.4001 -194 63.9001 -192.9 63.8001C-193.4 64.2001 -192 64.5001 -191.9 64.1001C-192.9 64.0001 -192.1 62.7001 -192.6 62.5001C-191.7 62.9001 -191.6 62.5001 -191.9 62.1001H-190.5C-191.3 62.7001 -188.7 63.2001 -190.2 64.3001C-189.514 64.1001 -188.786 64.1001 -188.1 64.3001C-188.1 63.8001 -187 63.8001 -187.1 63.3001C-186.182 63.5147 -185.216 63.3717 -184.4 62.9001C-184.1 63.2001 -185.4 63.4001 -184.4 63.5001C-183.7 63.5001 -183.7 63.1001 -183.4 62.9001C-184.7 62.7001 -187.2 63.0001 -187.5 62.3001C-187.381 62.3001 -187.266 62.2527 -187.182 62.1683C-187.097 62.0839 -187.05 61.9694 -187.05 61.8501C-187.05 61.7308 -187.097 61.6163 -187.182 61.5319C-187.266 61.4475 -187.381 61.4001 -187.5 61.4001C-189.1 61.9001 -192.3 61.2001 -192.3 62.3001C-192.9 62.4001 -193.2 62.1001 -193.3 62.3001C-193.4 62.5001 -193.3 62.6001 -193.6 62.6001C-193.6 61.5001 -196 61.5001 -198.4 61.6001C-198.7 61.1001 -200.4 61.1001 -200.1 60.7001C-201.5 61.6001 -203.5 60.4001 -205 60.6001C-204.8 60.5001 -206.3 60.5001 -206.3 60.4001C-206.2 61.3001 -209.8 60.9001 -210.1 60.8001C-209.1 60.7001 -211.2 60.7001 -210.1 60.4001C-210.8 60.4001 -211.2 60.3001 -211.6 60.3001V56.9001H-212V9.91821e-05H1707.3V56.8001H1703.1ZM512.3 64.8001H511.6C511.8 65.2001 512.5 65.5001 513.7 65.5001C513.5 65.1001 512.6 65.3001 512.3 64.8001ZM321.2 65.3001H320.5C320.7 65.7001 321.4 66.0001 322.6 66.0001C322.4 65.7001 321.5 65.9001 321.2 65.3001ZM58.6 62.0001H57.9C58.1 62.4001 58.8 62.7001 60 62.7001C59.7 62.4001 58.9 62.6001 58.6 62.0001ZM-133.9 65.0001H-134.6C-134.4 65.4001 -133.7 65.7001 -132.5 65.7001C-132.7 65.4001 -133.5 65.6001 -133.9 65.0001ZM-71.7 64.0001V63.6001C-72.2 63.6001 -73 63.7001 -73.1 63.5001C-73.5 63.5001 -73.3 63.6001 -73.1 63.6001C-73 63.8001 -73.2 63.9001 -73.4 63.9001C-73.1 64.0001 -72.8 63.9001 -71.7 64.0001ZM-73.4 65.6001C-73.2 66.1001 -72.5 65.8001 -71.7 65.7001C-71.7 65.4001 -72.1 65.4001 -72 65.1001C-72.8 65.2001 -72.7 65.6001 -73.4 65.6001ZM-70.4 63.8001C-69.7 63.8001 -70.3 63.1001 -69.4 63.2001C-69.5 63.0001 -70.5 63.1001 -70.1 62.6001C-70.6012 62.5434 -71.1044 62.6871 -71.5 63.0001C-71.8 63.6001 -70.1 63.3001 -70.4 63.8001ZM-68 57.4001C-68 57.0001 -69.9 57.0001 -70.4 57.3001C-70.2 57.6001 -68.7 57.3001 -68 57.4001ZM-41.2 58.9001C-40.4 58.7001 -41.8 58.5001 -40.9 58.3001C-41.6 57.5001 -46.3 58.7001 -43.3 58.9001C-43.4 58.7001 -44 58.8001 -44 58.6001C-43.2 58.2001 -42.6 59.1001 -41.2 58.9001ZM29.8 58.6001H30.1C30.3764 58.5811 30.6472 58.5134 30.9 58.4001C30.509 58.2596 30.0923 58.2047 29.6783 58.2392C29.2642 58.2737 28.8624 58.3968 28.5 58.6001C28.9276 58.7002 29.3725 58.7002 29.8 58.6001ZM120.4 63.1001C120.1 63.1001 119.8 63.2001 119.4 63.2001C119.781 63.3518 120.19 63.4199 120.6 63.4001C120.4 63.2001 120.4 63.2001 120.4 63.1001ZM119.3 62.8001C119.769 62.807 120.237 62.7735 120.7 62.7001C120.7 62.4001 120.3 62.4001 120.4 62.1001C119.7 62.1001 119.7 62.5001 119 62.5001C119 62.6001 119.1 62.6001 119.1 62.7001C119.1 62.8001 119.2 62.8001 119.3 62.8001ZM157.5 59.6001C155.668 59.7003 153.832 59.7003 152 59.6001C151.963 59.7335 151.973 59.8755 152.027 60.0027C152.082 60.1299 152.178 60.2348 152.3 60.3001C151.3 61.3001 149.3 60.3001 147.8 60.9001V61.1001C148.981 61.5379 150.245 61.7087 151.5 61.6001L151.6 61.5001L151.7 61.6001C154.6 61.5001 157.5 60.7001 157.5 59.6001ZM146.6 60.7001C145.9 60.5001 145.7 60.1001 145.1 59.8001C144.2 59.9001 143.7 60.3001 143 59.8001C142.7 59.9001 142.5 60.2001 142.3 59.9001C141.8 59.9001 142.9 60.6001 141.3 60.5001V60.9001C141.9 60.8001 142.4 60.6001 142.3 61.1001C142.9 61.1001 143.2 61.0001 143.3 60.8001C143.545 60.9115 143.78 61.0454 144 61.2001C144.905 61.2449 145.812 61.1777 146.7 61.0001C146.387 60.8566 146.035 60.8214 145.7 60.9001C146 60.5001 146.2 60.7001 146.8 60.7001C146.8 60.8001 146.7 60.7001 146.6 60.7001ZM383 65.4001C382.3 65.4001 382.3 65.8001 381.6 65.8001C381.8 66.3001 382.5 66.0001 383.3 65.9001C383.4 65.8001 382.9 65.7001 383 65.4001ZM572.7 65.4001C572.9 65.9001 573.6 65.6001 574.4 65.5001C574.4 65.2001 574 65.2001 574.1 64.9001C573.4 65.0001 573.5 65.3001 572.7 65.4001ZM869.5 66.9001C869.7 67.4001 870.4 67.1001 871.2 67.0001C871.2 66.7001 870.8 66.7001 870.9 66.4001C870.2 66.5001 870.2 66.9001 869.5 66.9001ZM574.5 63.4001V63.2001H574.4C574.4 63.3001 574.4 63.4001 574.5 63.4001ZM574.8 62.8001C574.5 63.2001 575.3 63.1001 575.7 63.3001C575.7 63.2001 575.8 63.2001 575.8 63.1001H576.4C576.5 63.0001 576.6 63.0001 576.9 63.0001C576.8 62.8001 575.8 62.9001 576.2 62.4001C575.699 62.3434 575.196 62.4871 574.8 62.8001ZM268 62.8001C267.924 62.7895 267.854 62.7544 267.8 62.7001C267.7 62.7001 267.7 62.6001 267.6 62.6001H267.8C267.854 62.5458 267.924 62.5107 268 62.5001C268.2 62.2001 268.1 61.8001 267.7 61.8001C266.1 62.3001 263 61.6001 262.9 62.7001C263.04 62.7043 263.178 62.6697 263.3 62.6001V62.5001H263.5C263.887 62.3533 264.29 62.2526 264.7 62.2001C264.9 62.6001 264.8 62.7001 266.1 62.3001C266.2 62.5001 266.9 62.7001 268 62.8001ZM27.3 57.7001C27.1111 57.7815 26.9052 57.8159 26.7 57.8001C26.8139 57.9236 26.9495 58.0253 27.1 58.1001C27.3 58.1001 27.3 57.9001 27.3 57.7001ZM1364.3 65.2001V64.8001C1363.8 64.8001 1363 64.9001 1362.9 64.6001C1362.5 64.6001 1362.7 64.8001 1362.9 64.8001C1363 65.0001 1362.8 65.1001 1362.6 65.1001C1362.9 65.2001 1363.3 65.1001 1364.3 65.2001ZM1362.6 66.9001C1362.8 67.4001 1363.5 67.1001 1364.3 67.0001C1364.3 66.7001 1363.9 66.7001 1364 66.4001C1363.3 66.5001 1363.3 66.8001 1362.6 66.9001ZM1365.7 65.1001C1366.4 65.1001 1365.8 64.4001 1366.7 64.5001C1366.6 64.3001 1365.6 64.4001 1366 63.9001C1365.5 63.8434 1365 63.9871 1364.6 64.3001C1364.3 64.9001 1366 64.6001 1365.7 65.1001ZM1680 63.1001C1680.3 63.1001 1680.3 63.3001 1680.7 63.2001C1680.7 63.5001 1679.8 63.4001 1680 63.8001C1680.6 63.6001 1681.7 63.8001 1682.7 63.5001C1681.8 63.0001 1679.7 63.1001 1679.6 62.6001C1678 62.5001 1679.1 63.2001 1678.6 63.2001C1678.7 63.6001 1679.6 63.1001 1680 63.1001ZM1648.1 57.2001C1648.3 57.0096 1648.54 56.8719 1648.8 56.8001H1646.5L1646.4 56.9001C1646.7 57.3001 1648.1 56.5001 1648.1 57.2001ZM1626.1 66.9001C1626.1 66.7001 1625.9 66.3001 1626.4 66.3001C1625.2 65.4001 1621.1 65.7001 1620.9 66.7001C1622.1 67.6001 1624.2 67.2001 1626.1 66.9001ZM1593.5 60.6001C1591.5 60.1001 1586.7 60.3001 1585.6 61.2001C1584.6 61.2001 1584.9 60.7001 1583.5 60.9001C1584.6 61.2001 1583.9 61.6001 1583.8 62.4001C1587 63.7001 1594.4 62.4001 1593.5 60.6001ZM1577 62.2001C1577.7 62.3001 1578.5 61.7001 1578.4 62.3001C1579 62.3001 1579.3 62.2001 1579.4 62.0001C1579.65 62.1115 1579.88 62.2454 1580.1 62.4001C1581.6 62.5001 1582 62.1001 1583.5 62.3001C1582.8 61.8001 1581.3 61.6001 1582.1 60.8001C1581.4 60.6001 1580.9 61.0001 1581.1 60.2001C1579.6 60.0957 1578.1 60.4441 1576.8 61.2001C1576.8 61.4001 1576.7 61.6001 1576.7 61.8001C1576.78 61.8376 1576.85 61.8936 1576.9 61.9633C1576.95 62.0329 1576.99 62.1142 1577 62.2001ZM1560.4 63.9001C1559.8 63.5001 1559 63.7001 1558.1 63.8001C1559 63.8001 1559.8 63.9001 1560.4 63.9001ZM1529.7 62.7001V62.6001H1528.8C1529 62.8001 1529.3 62.5001 1529.7 62.7001ZM1423.7 61.9001C1423.55 61.8253 1423.41 61.7236 1423.3 61.6001H1423.2C1423.4 61.7001 1423.5 61.8001 1423.7 61.9001ZM1377.7 66.7001C1377.6 67.0001 1378.9 67.1001 1379.4 67.6001C1380.1 67.6001 1379.5 66.9001 1380.1 66.9001C1380.7 66.9001 1380.4 67.3001 1380.4 67.5001C1381.4 67.4001 1381.3 67.7001 1382.1 67.6001C1384.1 66.5001 1385.9 67.1001 1388.3 66.9001C1387.9 67.8001 1387.2 67.1001 1387.3 67.9001C1389.2 67.5001 1390.5 67.8001 1392.5 67.5001C1392.4 66.8001 1391.5 67.1001 1390.8 66.9001C1391.53 66.4731 1392.36 66.2648 1393.2 66.3001C1393.6 66.3001 1393.5 66.6001 1393.2 66.6001C1393.7 66.9001 1395 66.2001 1395.3 65.9001C1396.2 66.5001 1401.6 66.6001 1401.5 66.0001C1405 66.3001 1406.2 64.5001 1409.1 64.1001C1408.9 64.0001 1408.7 63.8001 1409.1 63.8001C1409.1 63.7001 1407.3 63.7001 1408.4 63.4001C1404.19 63.9561 1399.94 64.1568 1395.7 64.0001C1395.66 64.1335 1395.67 64.2755 1395.73 64.4027C1395.78 64.5299 1395.88 64.6348 1396 64.7001C1394.9 65.8001 1392.6 64.5001 1391.2 65.4001C1390.2 65.5001 1390.3 65.2001 1389.5 65.3001C1389.8 64.9001 1390 65.1001 1390.9 65.2001C1389.8 65.0001 1389.6 64.5001 1388.8 64.2001C1387.9 64.3001 1387.4 64.7001 1386.7 64.2001C1386.4 64.3001 1386.2 64.6001 1386 64.3001C1385.5 64.3001 1386.6 65.0001 1385 64.9001C1385 65.3001 1384.9 65.6001 1385.3 65.8001C1383.1 65.7001 1381 66.3001 1378.1 66.2001C1378.8 66.5001 1378.2 66.8001 1377.1 66.6001C1377.1 66.7001 1377.5 66.7001 1377.7 66.7001ZM1369.5 68.2001C1370.17 67.9643 1370.89 67.8624 1371.6 67.9001C1371 67.7001 1371.8 66.9001 1370.2 67.2001C1370.8 67.7001 1370.2 67.7001 1368.8 67.6001C1369 67.7001 1369.1 67.9001 1369.5 67.9001C1369.3 68.0001 1369.1 68.1001 1369.2 68.3001C1369.3 68.5001 1369.5 68.3001 1369.5 68.2001ZM1360.6 68.5001C1361.5 68.3001 1362.3 68.9001 1361.6 68.9001C1362.7 69.3001 1366.3 68.8001 1365.4 68.3001C1366.4 68.9001 1367.8 68.3001 1368.8 68.0001C1368.7 67.4001 1368 67.2001 1367.4 66.8001C1365.82 67.1413 1364.21 67.3421 1362.6 67.4001C1362.5 67.7001 1362.9 67.7001 1363.3 67.7001C1362.7 67.9001 1360.1 67.5001 1360.6 68.5001ZM1314.9 69.2001C1315.4 69.1001 1315.4 68.9001 1315.9 68.9001C1315.9 68.7001 1314.4 68.6001 1315.6 68.5001C1315.3 68.2001 1315 68.5001 1314.6 68.5001C1314.8 68.7001 1315 68.9001 1314.9 69.2001ZM1224.1 60.8001C1224.1 60.4001 1223.8 60.3001 1223.8 60.1001C1223.87 59.9794 1223.97 59.8843 1224.1 59.83C1224.23 59.7756 1224.37 59.7651 1224.5 59.8001V59.1001C1224.32 59.1982 1224.12 59.2577 1223.91 59.2749C1223.7 59.2921 1223.5 59.2666 1223.3 59.2001C1223.1 59.3001 1223 59.3001 1222.8 59.4001C1223.1 59.5001 1223 60.0001 1223.4 59.7001C1223.4 59.9001 1223.4 60.1001 1223.6 60.1001C1223.2 60.1001 1223 60.8001 1222.9 60.5001C1222.4 60.5001 1223.3 60.9001 1222.6 60.8001C1223.1 61.1001 1223.6 60.8001 1224.1 60.8001ZM1222.5 59.5001C1222.35 59.5749 1222.21 59.6766 1222.1 59.8001C1221.7 59.8001 1221.4 59.9001 1221 59.9001C1221.54 59.9424 1222.08 60.043 1222.6 60.2001C1222.8 60.0001 1222.5 59.9001 1222.5 59.5001ZM1222.3 61.0001C1222.4 60.7001 1221.8 60.8001 1221.8 60.6001C1221.6 60.6001 1221.7 60.7001 1221.8 60.7001C1221.8 61.0001 1221.1 60.8001 1220.8 60.8001C1221.2 61.3001 1221.5 60.9001 1222.3 61.0001ZM1133 66.9001C1133 66.7001 1132.8 66.3001 1133.3 66.3001C1132.1 65.4001 1128 65.7001 1127.8 66.7001C1129 67.7001 1131.2 67.2001 1133 66.9001ZM1097.2 62.7001C1097 62.6001 1096.9 62.6001 1096.7 62.5001C1095.88 62.7147 1095.04 62.8817 1094.2 63.0001C1095.21 62.9994 1096.21 62.8989 1097.2 62.7001ZM1067.3 64.0001C1066.7 63.6001 1065.9 63.8001 1065 63.9001C1065.9 63.9001 1066.7 64.0001 1067.3 64.0001ZM1006.8 59.1001C1006.8 58.5001 1005.7 58.9001 1005.4 59.0001C1005.7 59.1001 1006.5 59.4001 1006.8 59.1001ZM991.8 58.3001C992 57.4001 991 57.7001 991.3 56.8001C991.246 56.8066 991.191 56.8011 991.139 56.7838C991.087 56.7665 991.04 56.7379 991 56.7001H990.5C990.4 56.9001 990.7 57.2001 990 57.1001C990.4 57.4001 990.1 57.7001 989.5 57.5001C989.8 58.6001 990.7 58.1001 991.8 58.3001ZM974.4 59.5001C973.7 58.0001 971.4 58.9001 969.7 59.2001C970.2 60.1001 972.9 60.3001 974.4 59.5001ZM930.6 62.0001C930.4 61.9001 930.2 61.7001 930.2 61.6001C930.2 61.7001 930.2 61.7001 930.1 61.7001C930.279 61.7774 930.447 61.8783 930.6 62.0001ZM925.6 60.7001C925.7 59.8001 926.7 58.8001 925.4 58.3001C921 58.0001 917.8 58.9001 916.6 60.2001C919.557 60.8259 922.592 60.9945 925.6 60.7001ZM884.6 66.8001C884.5 67.1001 885.8 67.2001 886.3 67.7001C887 67.7001 886.4 67.0001 887 67.0001C887.6 67.0001 887.3 67.4001 887.3 67.6001C888.3 67.5001 888.2 67.8001 889 67.7001C891 66.6001 892.8 67.2001 895.2 67.0001C894.8 67.9001 894.1 67.2001 894.2 68.0001C896.1 67.6001 897.4 67.9001 899.4 67.6001C899.3 66.9001 898.4 67.2001 897.7 67.0001C898.425 66.5731 899.259 66.3648 900.1 66.4001C900.5 66.4001 900.4 66.7001 900.1 66.7001C900.6 67.0001 901.9 66.3001 902.2 66.0001C903.1 66.6001 908.5 66.7001 908.4 66.1001C911.9 66.4001 913 64.6001 915.9 64.2001C914.6 64.1001 913.4 64.1001 912.2 64.1001L911.6 63.8001C909 64.0001 906.2 64.1001 903.8 64.1001C903.4 64.1001 903 64.2001 902.6 64.2001C902.6 64.5001 902.7 64.6001 903 64.8001C901.9 65.9001 899.6 64.6001 898.2 65.5001C897.2 65.6001 897.3 65.3001 896.5 65.4001C896.8 65.0001 897 65.2001 897.9 65.3001C896.8 65.1001 896.6 64.6001 895.8 64.3001C894.9 64.4001 894.4 64.8001 893.7 64.3001C893.4 64.4001 893.2 64.7001 893 64.4001C892.5 64.4001 893.6 65.1001 892 65.0001C892 65.4001 891.9 65.7001 892.3 65.9001C890.1 65.8001 888 66.4001 885.1 66.3001C885.8 66.6001 885.2 66.9001 884.1 66.7001C884 66.8001 884.4 66.7001 884.6 66.8001ZM876.4 68.3001C877.074 68.0643 877.787 67.9624 878.5 68.0001C877.9 67.8001 878.7 67.0001 877.1 67.3001C877.7 67.8001 877.1 67.8001 875.7 67.7001C875.9 67.8001 876 68.0001 876.4 68.0001C876.2 68.1001 876 68.2001 876.1 68.4001C876.4 68.4001 876.4 68.4001 876.4 68.3001ZM867.5 68.6001C868.4 68.4001 869.2 69.0001 868.5 69.0001C869.6 69.4001 873.2 68.9001 872.3 68.4001C873.3 69.0001 874.7 68.4001 875.7 68.1001C875.6 67.5001 874.9 67.3001 874.3 66.9001C872.721 67.2413 871.115 67.4421 869.5 67.5001C869.4 67.8001 869.8 67.8001 870.2 67.8001C869.6 68.0001 867.1 67.6001 867.5 68.6001ZM821.8 69.3001C822.3 69.2001 822.3 69.0001 822.8 69.0001C822.8 68.8001 821.3 68.7001 822.5 68.6001C822.2 68.3001 821.9 68.6001 821.5 68.6001C821.567 68.6242 821.629 68.6619 821.681 68.7109C821.733 68.7599 821.774 68.8191 821.802 68.8848C821.831 68.9504 821.845 69.0212 821.844 69.0927C821.844 69.1641 821.829 69.2348 821.8 69.3001ZM810.5 67.1001C810.3 66.8001 809.7 66.9001 809.3 66.5001C809.1 66.5001 808.9 66.6001 808.7 66.6001C809.237 66.941 809.864 67.115 810.5 67.1001ZM766.9 67.7001C767 67.9001 767.8 67.8001 768.3 67.8001C768.1 67.7001 767.8 67.4001 768.3 67.4001C768.2 67.2001 767.4 67.3001 766.9 67.3001C766.8 67.5001 767.5 67.6001 766.9 67.7001ZM760.7 66.0001C761.3 66.0001 761.7 65.2001 762.4 65.7001C763.1 66.0001 762.1 65.2001 762.7 65.0001C763.1 65.2001 763.6 65.1001 763 65.0001C762.9 64.6001 764.6 65.1001 764 64.6001C765.1 64.5001 764.7 65.0001 765.7 64.9001C765.2 64.6001 765.9 64.5001 765.4 64.0001C763.2 63.8001 762.7 64.3001 761.3 64.4001C760.8 65.2001 761.1 65.4001 759.9 65.9001C760.1 66.1001 760.6 65.8001 760.7 66.0001ZM760 64.4001C760.1 64.6001 761.1 64.0001 761 63.7001C760.5 63.6001 760.2 64.3001 760 63.8001C759.1 63.8001 760.5 64.1001 760 64.4001ZM699 62.2001C699.3 62.2001 699.3 62.4001 699.7 62.3001C699.7 62.6001 698.8 62.5001 699 62.9001C699.6 62.7001 700.7 62.9001 701.7 62.6001C700.8 62.1001 698.7 62.2001 698.6 61.7001C697 61.6001 698.1 62.3001 697.6 62.3001C697.8 62.7001 698.6 62.2001 699 62.2001ZM645.1 65.9001C645.1 65.7001 644.9 65.3001 645.4 65.3001C644.5 64.6001 641.9 64.6001 640.6 65.1001C640.6 65.1266 640.611 65.1521 640.629 65.1708C640.648 65.1896 640.673 65.2001 640.7 65.2001H640.4C640.285 65.2409 640.18 65.3069 640.093 65.3934C640.007 65.48 639.941 65.5847 639.9 65.7001C641.1 66.6001 643.3 66.2001 645.1 65.9001ZM592.3 66.1001C594.3 65.0001 596.1 65.6001 598.5 65.4001C598.1 66.3001 597.4 65.6001 597.5 66.4001C599.4 66.0001 600.7 66.3001 602.7 66.0001C602.6 65.3001 601.7 65.6001 601 65.4001C601.225 65.282 601.459 65.1817 601.7 65.1001C600.979 65.0408 600.271 64.8722 599.6 64.6001C595.1 64.4001 592.8 65.2001 590.3 65.0001C590.4 65.2001 590.7 65.3001 590.7 65.5001C590.7 65.7001 590.7 65.8001 590.8 66.0001C591.6 65.8001 591.5 66.2001 592.3 66.1001ZM590 65.6001C589.5 65.5001 589.8 65.1001 588.8 65.2001C588.741 65.3042 588.653 65.3883 588.546 65.4418C588.439 65.4952 588.319 65.5155 588.2 65.5001C588.6 65.7001 589.3 65.8001 589.6 66.1001C590 66.1001 589.9 65.8001 590 65.6001ZM579.6 66.7001C580.274 66.4643 580.987 66.3624 581.7 66.4001C581.1 66.2001 581.9 65.4001 580.3 65.7001C580.9 66.2001 580.3 66.2001 578.9 66.1001C579.1 66.2001 579.2 66.4001 579.6 66.4001C579.4 66.5001 579.2 66.6001 579.3 66.8001C579.6 66.9001 579.6 66.8001 579.6 66.7001ZM570.7 67.0001C571.6 66.8001 572.4 67.4001 571.7 67.4001C572.8 67.8001 576.4 67.3001 575.5 66.8001C576.5 67.4001 577.9 66.8001 578.9 66.5001C578.8 65.9001 578.1 65.7001 577.5 65.3001C575.921 65.6413 574.315 65.8421 572.7 65.9001C572.6 66.2001 573 66.2001 573.4 66.2001C572.8 66.4001 570.3 66.0001 570.7 67.0001ZM525 67.7001C525.5 67.6001 525.5 67.4001 526 67.4001C526 67.2001 524.5 67.1001 525.7 67.0001C525.4 66.7001 525.1 67.0001 524.7 67.0001C525 67.2001 525.1 67.4001 525 67.7001ZM518.8 62.1001C519.252 61.9565 519.732 61.9223 520.2 62.0001V61.7001C519.885 61.5629 519.536 61.528 519.2 61.6001C519.211 61.6206 519.217 61.6432 519.218 61.6662C519.219 61.6893 519.215 61.7123 519.206 61.7337C519.197 61.7551 519.184 61.7743 519.167 61.7901C519.15 61.8059 519.13 61.8178 519.108 61.8251C519.086 61.8324 519.063 61.8349 519.04 61.8324C519.017 61.8299 518.995 61.8224 518.975 61.8105C518.956 61.7987 518.939 61.7826 518.926 61.7636C518.913 61.7445 518.904 61.7229 518.9 61.7001C518.3 61.7001 519 61.8001 518.8 62.1001ZM470.1 66.1001C470.2 66.3001 471 66.2001 471.5 66.2001C471.3 66.1001 471 65.8001 471.5 65.8001C471.4 65.6001 470.6 65.7001 470.1 65.7001C470 65.9001 470.7 66.0001 470.1 66.1001ZM463.9 64.5001C464.5 64.5001 464.9 63.7001 465.6 64.2001C466.3 64.5001 465.3 63.7001 465.9 63.5001C466.3 63.7001 466.8 63.6001 466.2 63.5001C466.1 63.1001 467.8 63.6001 467.2 63.1001C468.3 63.0001 467.9 63.5001 468.9 63.4001C468.4 63.1001 469.1 63.0001 468.6 62.5001C466.4 62.3001 465.9 62.8001 464.5 62.9001C464 63.7001 464.3 63.9001 463.1 64.4001C463.3 64.5001 463.8 64.2001 463.9 64.5001ZM463.2 62.8001C463.3 63.0001 464.3 62.4001 464.2 62.1001C463.7 62.0001 463.4 62.7001 463.2 62.2001C462.3 62.3001 463.7 62.5001 463.2 62.8001ZM442.1 63.7001C443.4 64.0001 446.1 64.2001 444.8 64.7001C446.029 64.5694 447.266 64.536 448.5 64.6001C448.9 64.5001 450.6 63.8001 451.2 64.5001C452 64.2001 452.2 63.7001 453.3 63.6001C452.8 64.0001 454.2 64.3001 454.3 63.9001C453.3 63.8001 454.1 62.5001 453.6 62.3001C454.5 62.7001 454.6 62.3001 454.3 61.9001H455.7C454.9 62.5001 457.5 63.0001 456 64.1001C456.686 63.9001 457.414 63.9001 458.1 64.1001C458.1 63.6001 459.2 63.6001 459.1 63.1001C460.018 63.3147 460.984 63.1717 461.8 62.7001C462.1 63.0001 460.8 63.2001 461.8 63.3001C462.5 63.3001 462.5 62.9001 462.8 62.7001C461.5 62.5001 459 62.8001 458.7 62.1001C458.772 62.1009 458.842 62.0839 458.906 62.0504C458.969 62.017 459.023 61.9683 459.063 61.9086C459.103 61.849 459.127 61.7804 459.133 61.7091C459.14 61.6377 459.128 61.5659 459.1 61.5001H458.3C458.2 61.5001 458.2 61.4001 458.1 61.4001C456.4 61.6001 453.9 61.2001 453.9 62.2001C453.3 62.3001 453 62.0001 452.9 62.2001C452.8 62.4001 452.9 62.5001 452.6 62.5001C452.6 62.2001 452.5 62.1001 452.2 61.9001C451.099 62.2532 449.955 62.4551 448.8 62.5001C447.5 62.5001 446.5 62.1001 445.1 62.4001C445.1 62.8001 444.6 62.6001 444.1 62.8001C444.3 62.1001 443.1 62.4001 442.9 62.1001C442.985 62.0282 443.042 61.9284 443.06 61.8185C443.078 61.7086 443.057 61.5957 443 61.5001C442.283 61.6422 441.623 61.9896 441.1 62.5001C442.2 62.4001 442.2 62.8001 442.1 63.7001ZM396.7 65.7001C396.6 66.0001 397.9 66.1001 398.4 66.6001C399.1 66.6001 398.5 65.9001 399.1 65.9001C399.7 65.9001 399.4 66.3001 399.4 66.5001C400.4 66.4001 400.3 66.7001 401.1 66.6001C403.1 65.5001 404.9 66.1001 407.3 65.9001C406.9 66.8001 406.2 66.1001 406.3 66.9001C408.2 66.5001 409.5 66.8001 411.5 66.5001C411.4 65.8001 410.5 66.1001 409.8 65.9001C410.526 65.4731 411.359 65.2648 412.2 65.3001C412.6 65.3001 412.5 65.6001 412.2 65.6001C412.7 65.9001 414 65.2001 414.3 64.9001C415.2 65.5001 420.6 65.6001 420.5 65.0001C423.8 65.3001 425 63.7001 427.5 63.2001C423.2 63.2001 418.8 62.9001 414.7 63.0001C414.6 63.3001 414.8 63.5001 415.1 63.7001C414 64.8001 411.7 63.5001 410.3 64.4001C409.3 64.5001 409.4 64.2001 408.6 64.3001C408.9 63.9001 409.1 64.1001 410 64.2001C408.9 64.0001 408.7 63.5001 407.9 63.2001C407 63.3001 406.5 63.7001 405.8 63.2001C405.5 63.3001 405.3 63.6001 405.1 63.3001C404.6 63.3001 405.7 64.0001 404.1 63.9001C404.1 64.3001 404 64.6001 404.4 64.8001C402.2 64.7001 400.1 65.3001 397.2 65.2001C397.9 65.5001 397.3 65.8001 396.2 65.6001C396.1 65.7001 396.5 65.7001 396.7 65.7001ZM388.5 67.2001C389.174 66.9643 389.887 66.8624 390.6 66.9001C390 66.7001 390.8 65.9001 389.2 66.2001C389.8 66.7001 389.2 66.7001 387.8 66.6001C388 66.7001 388.1 66.9001 388.5 66.9001C388.3 67.0001 388.1 67.1001 388.2 67.3001C388.5 67.4001 388.5 67.3001 388.5 67.2001ZM379.6 67.5001C380.5 67.3001 381.3 67.9001 380.6 67.9001C381.7 68.3001 385.3 67.8001 384.4 67.3001C385.4 67.9001 386.8 67.3001 387.8 67.0001C387.7 66.4001 387 66.2001 386.4 65.8001C384.821 66.1413 383.215 66.3421 381.6 66.4001C381.5 66.7001 381.9 66.7001 382.3 66.7001C381.7 67.0001 379.2 66.5001 379.6 67.5001ZM333.9 68.3001C334.4 68.2001 334.4 68.0001 334.9 68.0001C334.9 67.8001 333.4 67.7001 334.6 67.6001C334.3 67.3001 334 67.6001 333.6 67.6001C333.9 67.7001 334 67.9001 333.9 68.3001ZM327.7 62.6001C328.152 62.4565 328.632 62.4223 329.1 62.5001V62.2001C328.785 62.0629 328.436 62.028 328.1 62.1001C328.2 62.3001 328 62.3001 327.9 62.3001V62.4001H327.6C327.7 62.4001 327.8 62.5001 327.7 62.6001ZM293.4 62.0001C294.5 61.3001 290.8 61.3001 291 62.1001C292.6 62.0001 292.5 61.6001 293.4 62.0001ZM287.2 61.7001C286.9 61.2001 287.7 61.2001 287.9 61.6001C288.8 61.5001 287.1 60.9001 288.6 60.9001C289.3 60.9001 288.8 61.4001 288.9 61.6001C290 61.7001 290 61.3001 289.9 60.9001C288.3 61.0001 288.9 60.2001 289.6 60.2001C289 60.0001 285.5 60.5001 284.5 60.1001C283.9 60.2001 284.1 60.7001 283.8 61.0001C285.8 60.8001 285.3 61.5001 287.2 61.7001ZM279 66.6001C279.1 66.8001 279.9 66.7001 280.4 66.7001C280.2 66.6001 279.9 66.3001 280.4 66.3001C280.3 66.1001 279.5 66.2001 279 66.2001C278.9 66.4001 279.6 66.6001 279 66.6001ZM272.8 65.0001C273.4 65.0001 273.8 64.2001 274.5 64.7001C275.2 65.0001 274.2 64.2001 274.8 64.0001C275.2 64.2001 275.7 64.1001 275.1 64.0001C275 63.6001 276.7 64.1001 276.1 63.6001C277.2 63.5001 276.8 64.0001 277.8 63.9001C277.3 63.6001 278 63.5001 277.5 63.0001C275.3 62.8001 274.8 63.3001 273.4 63.4001C272.9 64.2001 273.2 64.4001 272 64.9001C272.2 65.1001 272.7 64.7001 272.8 65.0001ZM272.1 63.4001C272.2 63.6001 273.2 63.0001 273.1 62.7001C272.6 62.6001 272.3 63.3001 272.1 62.8001C271.2 62.8001 272.6 63.0001 272.1 63.4001ZM271.8 63.1001C271.44 63.0127 271.07 62.979 270.7 63.0001V63.1001H270.8C270.9 63.2001 270.8 63.3001 270.7 63.4001V63.7001H270.8C271.4 63.6001 271.4 63.3001 271.8 63.1001ZM267 64.6001C267 64.5001 267.1 64.4001 267.2 64.3001H266L265.4 64.0001C265.4 64.2001 265.2 64.4001 265 64.6001C265.651 64.399 266.349 64.399 267 64.6001ZM259.1 62.6001C259.768 62.3327 260.481 62.1968 261.2 62.2001C260.229 61.7612 259.159 61.5886 258.1 61.7001C257.996 61.7426 257.905 61.8109 257.835 61.8983C257.765 61.9858 257.719 62.0897 257.7 62.2001C258.7 61.7001 258 62.7001 259.1 62.6001ZM243.9 61.9001C244.2 61.9001 244.2 62.1001 244.6 62.0001C244.6 62.3001 243.7 62.2001 243.9 62.6001C244.5 62.4001 245.6 62.6001 246.6 62.3001C245.7 61.8001 243.6 61.9001 243.5 61.4001C241.9 61.3001 243 62.0001 242.5 62.0001C242.7 62.4001 243.5 61.9001 243.9 61.9001ZM190 65.6001C190 65.4001 189.8 65.0001 190.3 65.0001C189.1 64.1001 185 64.4001 184.8 65.4001C186 66.3001 188.2 65.9001 190 65.6001ZM116.9 64.2001C117.8 64.0001 118.6 64.6001 117.9 64.6001C119 65.0001 122.6 64.5001 121.7 64.0001C121.923 64.1355 122.171 64.2233 122.429 64.2577C122.687 64.2921 122.95 64.2725 123.2 64.2001C122.1 63.7001 119.9 63.6001 117.5 63.5001C117.1 63.7001 116.8 63.9001 116.9 64.2001ZM71.3 65.0001C71.8 64.9001 71.8 64.7001 72.3 64.7001C72.3 64.5001 70.8 64.4001 72 64.3001C71.7 64.0001 71.4 64.3001 71 64.3001C71.1291 64.3574 71.2317 64.4614 71.2873 64.5912C71.343 64.7211 71.3475 64.8671 71.3 65.0001ZM66.5 59.2001V58.9001C66.3 58.9001 66.2 58.8001 65.9 58.8001C65.7272 58.7845 65.5535 58.8193 65.4 58.9001C65.4 59.0001 65.3 59.0001 65.2 59.0001C65.1 59.0001 65.1 59.1001 65 59.1001C65.1 59.2001 65.1 59.2001 65.1 59.3001C65.5602 59.205 66.031 59.1713 66.5 59.2001ZM16.3 63.4001C16.4 63.6001 17.2 63.5001 17.7 63.5001C17.5 63.4001 17.2 63.1001 17.7 63.1001C17.6 62.9001 16.8 63.0001 16.3 63.0001C16.2 63.2001 16.9 63.3001 16.3 63.4001ZM10.1 61.7001C10.7 61.7001 11.1 60.9001 11.8 61.4001C12.2 61.6001 12 61.3001 11.9 61.0001H11.8C11.2412 61.1218 10.6718 61.1888 10.1 61.2001C10 61.3001 9.7 61.4001 9.39999 61.6001C9.59999 61.8001 10.1 61.4001 10.1 61.7001ZM4.3 61.3001C4.3 61.0001 4.8 60.8001 5.10001 60.6001C4.90001 60.7001 4.79999 60.7001 4.89999 60.7001C4.13223 60.7667 3.35909 60.7331 2.60001 60.6001C2.59196 60.7264 2.55075 60.8484 2.48053 60.9538C2.41031 61.0591 2.31354 61.1441 2.2 61.2001C2.89897 61.0808 3.61554 61.1149 4.3 61.3001ZM-2.60001 61.7001C-1.8 61.4001 -1.60001 60.9001 -0.5 60.8001C-1 61.2001 0.399994 61.5001 0.5 61.1001C0.100006 61.1001 0 60.9001 0 60.6001C-1.10001 60.8001 -2.2 61.1001 -3.39999 61.4001C-3 61.5001 -2.70001 61.5001 -2.60001 61.7001ZM-12.3 60.7001C-12.5 60.6001 -12.7 60.4001 -12.7 60.3001C-12.7 60.4001 -12.7 60.4001 -12.8 60.4001C-12.6475 60.5219 -12.4793 60.6228 -12.3 60.7001ZM-17.4 59.4001C-17.3 58.8001 -17 58.3001 -16.9 57.8001C-17.1361 57.7901 -17.3706 57.7566 -17.6 57.7001C-16.6 57.6001 -18.7 57.6001 -17.6 57.3001C-18.3 57.3001 -18.7 57.2001 -19.1 57.2001V56.9001C-22.7 56.9001 -25.3 57.8001 -26.3 58.9001C-23.377 59.5259 -20.3747 59.6946 -17.4 59.4001ZM-58.3 65.4001C-58.4 65.7001 -57.1 65.8001 -56.6 66.3001C-55.9 66.3001 -56.5 65.6001 -55.9 65.6001C-55.3 65.6001 -55.6 66.0001 -55.6 66.2001C-54.6 66.1001 -54.7 66.4001 -53.9 66.3001C-51.9 65.2001 -50.1 65.8001 -47.7 65.6001C-48.1 66.5001 -48.8 65.8001 -48.7 66.6001C-46.8 66.2001 -45.5 66.5001 -43.5 66.2001C-43.6 65.5001 -44.5 65.8001 -45.2 65.6001C-44.4745 65.1731 -43.6411 64.9648 -42.8 65.0001C-42.4 65.0001 -42.5 65.3001 -42.8 65.3001C-42.3 65.6001 -41 64.9001 -40.7 64.6001C-39.8 65.2001 -34.4 65.3001 -34.5 64.7001C-31 65.0001 -29.8 63.2001 -26.9 62.8001C-27.1 62.7001 -27.3 62.5001 -26.9 62.5001C-26.9 62.4001 -28.7 62.4001 -27.6 62.1001C-31.809 62.6561 -36.0573 62.8568 -40.3 62.7001C-40.3368 62.8335 -40.3272 62.9755 -40.2727 63.1027C-40.2181 63.2299 -40.122 63.3348 -40 63.4001C-41.1 64.5001 -43.4 63.2001 -44.8 64.1001C-45.8 64.2001 -45.7 63.9001 -46.5 64.0001C-46.2 63.6001 -46 63.8001 -45.1 63.9001C-46.2 63.7001 -46.4 63.2001 -47.2 62.9001C-48.1 63.0001 -48.6 63.4001 -49.3 62.9001C-49.6 63.0001 -49.8 63.3001 -50 63.0001C-50.5 63.0001 -49.4 63.7001 -51 63.6001C-51 64.0001 -51.1 64.3001 -50.7 64.5001C-52.9 64.4001 -55 65.0001 -57.9 64.9001C-57.2 65.2001 -57.8 65.5001 -58.9 65.3001C-59 65.4001 -58.6 65.4001 -58.3 65.4001ZM-63.1 57.9001C-62.2 57.9001 -62.4 57.4001 -62.4 57.0001C-63.7 57.0001 -63.4 57.5001 -63.1 57.9001ZM-66.6 66.9001C-65.9262 66.6643 -65.2129 66.5624 -64.5 66.6001C-65.1 66.4001 -64.3 65.6001 -65.9 65.9001C-65.3 66.4001 -65.9 66.4001 -67.3 66.3001C-67.1 66.4001 -67 66.6001 -66.6 66.6001C-66.8 66.7001 -67 66.8001 -66.9 67.0001C-66.6 67.1001 -66.6 67.0001 -66.6 66.9001ZM-75.5 67.2001C-74.6 67.0001 -73.8 67.6001 -74.5 67.6001C-73.4 68.0001 -69.8 67.5001 -70.7 67.0001C-69.7 67.6001 -68.3 67.0001 -67.3 66.7001C-67.4 66.1001 -68.1 65.9001 -68.7 65.5001C-70.2792 65.8413 -71.8854 66.0421 -73.5 66.1001C-73.6 66.4001 -73.2 66.4001 -72.8 66.4001C-73.4 66.7001 -75.9 66.2001 -75.5 67.2001ZM-75.2 58.2001C-74.9 57.9001 -73.6 57.6001 -74.5 57.2001C-76.1 57.8001 -78.5 56.7001 -79.3 57.9001C-77.9281 57.9065 -76.5582 58.0067 -75.2 58.2001ZM-93.7 58.9001C-93.7 59.2001 -94.1 59.2001 -94 59.5001C-93.2 59.6001 -92.4 59.7001 -92.3 60.1001C-90.4 60.2001 -89.8 59.6001 -87.8 60.0001C-88 59.7001 -87.3 59.7001 -86.8 59.7001C-86.4 58.1001 -91 58.0001 -94 58.7001C-94.3 58.7001 -94.3 58.6001 -94.3 58.6001C-95.4 58.6001 -93.4 59.0001 -94.6 59.0001C-94.5 59.2001 -94.1 58.9001 -93.7 58.9001ZM-102.6 60.2001C-103 59.7001 -102.6 59.9001 -102.6 59.3001C-102.9 59.4001 -103.7 60.0001 -104 59.6001C-104.5 59.7001 -103.7 59.9001 -104.3 59.9001C-104.3 60.3001 -103.5 60.3001 -102.6 60.2001ZM-121.2 68.0001C-120.7 67.9001 -120.7 67.7001 -120.2 67.7001C-120.2 67.5001 -121.7 67.4001 -120.5 67.3001C-120.8 67.0001 -121.1 67.3001 -121.5 67.3001C-121.2 67.4001 -121.1 67.6001 -121.2 68.0001ZM-127.4 62.3001C-126.948 62.1565 -126.468 62.1223 -126 62.2001V61.9001C-126.315 61.7629 -126.664 61.728 -127 61.8001C-126.989 61.8206 -126.983 61.8432 -126.982 61.8662C-126.981 61.8893 -126.985 61.9123 -126.994 61.9337C-127.003 61.9551 -127.016 61.9743 -127.033 61.9901C-127.05 62.0059 -127.07 62.0178 -127.092 62.0251C-127.114 62.0324 -127.137 62.0349 -127.16 62.0324C-127.183 62.0299 -127.205 62.0224 -127.225 62.0105C-127.244 61.9987 -127.261 61.9826 -127.274 61.9636C-127.287 61.9445 -127.296 61.9229 -127.3 61.9001C-127.9 61.9001 -127.2 62.1001 -127.4 62.3001ZM-161.7 61.7001C-160.6 61.0001 -164.3 61.0001 -164.1 61.8001C-162.4 61.7001 -162.6 61.3001 -161.7 61.7001ZM-167.9 61.4001C-168.2 60.9001 -167.4 60.9001 -167.2 61.3001C-166.3 61.2001 -168 60.6001 -166.5 60.6001C-165.8 60.6001 -166.3 61.1001 -166.2 61.3001C-165.1 61.4001 -165.1 61.0001 -165.2 60.6001C-166.8 60.7001 -166.2 59.9001 -165.5 59.9001C-166.1 59.7001 -169.6 60.2001 -170.6 59.8001C-171.2 59.9001 -171 60.4001 -171.3 60.7001C-169.3 60.6001 -169.8 61.2001 -167.9 61.4001ZM-176.1 66.3001C-176 66.5001 -175.2 66.4001 -174.7 66.4001C-174.9 66.3001 -175.2 66.0001 -174.7 66.0001C-174.8 65.8001 -175.6 65.9001 -176.1 65.9001C-176.2 66.1001 -175.5 66.3001 -176.1 66.3001ZM-182.3 64.7001C-181.7 64.7001 -181.3 63.9001 -180.6 64.4001C-179.9 64.7001 -180.9 63.9001 -180.3 63.7001C-179.9 63.9001 -179.4 63.8001 -180 63.7001C-180.1 63.3001 -178.4 63.8001 -179 63.3001C-177.9 63.2001 -178.3 63.7001 -177.3 63.6001C-177.8 63.3001 -177.1 63.2001 -177.6 62.7001C-179.8 62.5001 -180.3 63.0001 -181.7 63.1001C-182.2 63.9001 -181.9 64.1001 -183.1 64.6001C-182.9 64.8001 -182.4 64.4001 -182.3 64.7001ZM-183 63.1001C-182.9 63.3001 -181.9 62.7001 -182 62.4001C-182.5 62.3001 -182.8 63.0001 -183 62.5001C-183.9 62.5001 -182.5 62.7001 -183 63.1001ZM-194.7 56.8001C-194.4 56.8001 -194.1 56.8001 -194 56.7001L-194.7 56.8001Z" fill="#F2F0E8"/>
</svg>
