<svg xmlns="http://www.w3.org/2000/svg" viewBox="0 0 1919.3 74.1"><defs><style>.cls-1{fill:#f2f0e8;}</style></defs><g id="Layer_2" data-name="Layer 2"><g id="Layer_1-2" data-name="Layer 1"><path class="cls-1" d="M1919.3,56.8V0H0V56.9H.4v3.4c.4,0,.8.1,1.5.1-1.1.3,1,.3,0,.4.3.1,3.9.5,3.8-.4,0,.1,1.5.1,1.3.2,1.5-.2,3.5,1,4.9.1-.3.4,1.4.4,1.7.9,2.4-.1,4.8-.1,4.8,1,.3,0,.2-.2.3-.3s.4.1,1,0c0-1.1,3.2-.4,4.8-.9a.45.45,0,1,1,0,.9c.3.7,2.8.4,4.1.6-.3.2-.3.6-1,.6-1-.1.3-.3,0-.6a3.71,3.71,0,0,1-2.7.4c.1.5-1,.5-1,1a3.75,3.75,0,0,0-2.1,0c1.5-1.1-1.1-1.6-.3-2.2H20.1c.3.4.2.8-.7.4.5.2-.3,1.5.7,1.6-.1.4-1.5.1-1-.3-1.1.1-1.3.6-2.1.9-.6-.6-2.5.2-2.7.2.9,1.1,6.7-.4,8.3.4-2.4,1.1,3.1,1.3,6.9,1-1.1-.4.9-.1,1-.4.5.1.1.3-.3.3,1.6.3,3.7-.6,5.2.1,0,.1-.6.1-1,.1.2.6,1.4.7,3.1.6.1-.2-.3-.2-.3-.4a52,52,0,0,0,7.2-.4c.1-.4-.5-.4-.3-.9-.8-.2-1.9-.3-2-1.1.7-.4,2.3-.3,3.8-.3,1.3.2.4.5,1.4.7.8,0,1.7,0,1.7-.3.6.3,1.6.4,2.1.7.4-.8,1.9-1.2,3.4-1.5.2-.4-.6-.4,0-.7.3.3,1.2.6,1-.1,1.4.3,4-.6,5.5.4.9-.3,2-.4,2.4-.9,4.7.1,12-1.2,18.5-.4v-.6a2.76,2.76,0,0,0,1.4.2c-.8,1.1-3.2,1.5-3.4,2.5-1.8-.1-2.3.4-5.1.3.1.2.7.1.7.3-.9.1-3-.1-3.4.6-.4,0-.2-.2-.3-.4a22.32,22.32,0,0,1-4.1.6c2.1-.4-.9-.3-1.7-.4-.3.4,1.1.2,1.4.4-2.2-.1-4.3.5-7.2.3,0,.3-1,.2-.7.6H57.1c-.2-1.2-5.5,0-5.5-.9-1.9.6-5.6.4-5.5,1.9.3,0,.2-.2.3-.3,4.8.7,8-.2,12-.6.5.1,1.1.2,1,.6,2.2-.2,5.6.2,6.9-.7,1.3.1,3.8.3,3.1-.1,2.5,0,1.8,0,4.8.1-1.4.9,4.2.3,5.1-.1-.5.6,1.2.3,3.1.6v-.6c1,.1.3.2.3.6a23.59,23.59,0,0,1,3.1.4c.3-.1.7-.3,1-.4a2.26,2.26,0,0,1,1.7.6c-1.5-.4-3.2-.1-3.4,1.2,1.1,0,2.2.2,2.1.7h1.7c.3-.4-.6-.4-.7-.7a2,2,0,0,1,1.4.7c3.7-.2,4.6-.4,7.9.4,4.2-1.5,11.1-.3,14.8-1.2a3,3,0,0,0,2.1.3c.6-.8,2.3-1.3,0-1.8-2.8.5-6.7,1-9.6,1.3-1-.1-.3-.2-.3-.6-.6,0-1.7-.1-1.4.3-.6-.1-.3-.5-1.4-.3.1-.1.3-.2.3-.4-1.1-.2-.9.2-1.4.3a10.88,10.88,0,0,1,5.5-1.6c.1-.2-.3-.2-.3-.4,1.9.6,1.7-.6,3.8-.4.1.4-.5.5-1,.6,1.5.4,3.2-.2,4.5.7.6-.2,1.8-.5,1-.9,2.8.4,6.7.4,7.9.7,1.2-.6,3.3-.7,4.1-1.5,1-.1.4.5,1.7.3,0,.4-1.5.4.3.4a6.21,6.21,0,0,1-1,.3c1.3.5,1.6-.7,2.4-1,1.2-.1,1.9.4,2.7,0q-.6.3,0,.6c-.9.1-1.5-.5-1.4.1h1.7a8.86,8.86,0,0,1-5.2,1.2c-.3.3-1,.4-.7.9-1.9-.1-7.5-.1-8.9,1,1.7-.2,1.8.4,3.4-.1.7,0-.5.4.3.6.7-.5,1.3,0,2.1,0a50.41,50.41,0,0,0,10.6-1.3c-.5-.7,1.3-.3,1-.9.1.1,1.1,1.3.3,1.5,1.6-.1,3.8.4,6.2-.1.6.9,3.7.3,5.5.3,0,.1-.4.1-.7.1,4.9.5,14.8-.9,22,.3.4.7-.8.7-1.4.9,1.3,1.3,4,.7,6.2,1.2,3.5-.7,7.1.8,11.7.6.1.4-1.3.1-1,.6.8.3,1.7-.2,3.1,0,.7-.8,1-1.4.7-2.2,3.3-1,5.8-2.3,3.4-4,.2-1.8,8.2-1.5,11.6-1.2-.2.1-.3.3-.7.3.7.4,3,.1,2.7,1,1.8.3,1.4-.4,2.7-.4-.2-.4-1.2-.7,0-1a25.6,25.6,0,0,0-4.8,0c1.3-.5-1.4-.7-2.7-1,.1-.9.1-1.2-1-1.5a3.77,3.77,0,0,1,1.9-1,.47.47,0,0,1-.1.6c.2.3,1.4,0,1.2.7.5-.2,1,0,1-.4,1.4-.3,2.4.1,3.7.1a4.87,4.87,0,0,0,1.2-.1.77.77,0,0,1-.3.1c.9,1.1,6.7-.4,8.6.4-2.4,1.1,3.1,1.3,6.9,1-1.1-.4.9-.1,1-.4.5.1.1.3-.3.3,1.6.3,3.7-.6,5.2.1,0,.1-.6.1-1,.1.2.6,1.4.7,3.1.6.1-.2-.3-.2-.3-.4a52,52,0,0,0,7.2-.4c0-.2-.2-.3-.3-.4,1.1-1.4,3.8-.7,5.8-.9a2.32,2.32,0,0,1,1,.4c.4-.8,1.9-1.2,3.4-1.5.2-.4-.6-.4,0-.7.3.3,1.2.6,1-.1,1.4.3,4-.6,5.5.4.9-.3,2-.4,2.4-.9,4.2,0,10.4-1,16.2-.7.1.1,0,.1-.1.1.3.7,1,0,1,.9h1c-.8.4-1.5.8-1.6,1.3-1.8-.1-2.3.4-5.1.3.1.2.7.1.7.3-.9.1-3-.1-3.4.6-.4,0-.2-.2-.3-.4a22.32,22.32,0,0,1-4.1.6c2.1-.4-.9-.3-1.7-.4-.3.4,1.1.2,1.4.4-2.2-.1-4.3.5-7.2.3,0,.3-1,.2-.7.6h-2.4c-.2-1.2-5.5,0-5.5-.9-1.9.6-5.6.4-5.5,1.9.3,0,.2-.2.3-.3,4.8.7,8-.2,12-.6.5.1,1.1.2,1,.6,2.2-.2,5.6.2,6.9-.7,1.3.1,3.8.3,3.1-.1,2.5,0,1.8,0,4.8.1-1.4.9,4.2.3,5.1-.1-.5.6,1.2.3,3.1.6v-.6c1,.1.3.2.3.6a23.59,23.59,0,0,1,3.1.4c.3-.1.7-.3,1-.4a2.26,2.26,0,0,1,1.7.6c-1.5-.4-3.2-.1-3.4,1.2,1.1,0,2.2.2,2.1.7h1.7c.3-.4-.6-.4-.7-.7a2,2,0,0,1,1.4.7c3.7-.2,4.6-.4,7.9.4,4.2-1.5,11.1-.3,14.8-1.2a3,3,0,0,0,2.1.3c.6-.8,2.3-1.3,0-1.8-2.8.5-6.7,1-9.6,1.3-1-.1-.3-.2-.3-.6-.6,0-1.7-.1-1.4.3-.6-.1-.3-.5-1.4-.3.1-.1.3-.2.3-.4-1.1-.2-.9.2-1.4.3a10.88,10.88,0,0,1,5.5-1.6c.1-.2-.3-.2-.3-.4,1.9.6,1.7-.6,3.8-.4.1.4-.5.5-1,.6,1.5.4,3.2-.2,4.5.7.6-.2,1.8-.5,1-.9,2.8.4,6.7.4,7.9.7,1.2-.6,3.3-.7,4.1-1.5,1-.1.4.5,1.7.3,0,.4-1.5.4.3.4a6.21,6.21,0,0,1-1,.3c1.3.5,1.6-.7,2.4-1,1.2-.1,1.9.4,2.7,0q-.6.3,0,.6c-.9.1-1.5-.5-1.4.1h1.7a8.3,8.3,0,0,1-5.1,1.2c-.3.3-1,.4-.7.9-1.9-.1-7.5-.1-8.9,1,1.7-.2,1.8.4,3.4-.1.7,0-.5.4.3.6.7-.5,1.3,0,2.1,0a50.41,50.41,0,0,0,10.6-1.3c-.5-.7,1.3-.3,1-.9.1.1,1.1,1.3.3,1.5,1.6-.1,3.8.4,6.2-.1.6.9,3.7.3,5.5.3,0,.1-.4.1-.7.1,4.9.5,14.8-.9,22,.3.4.7-.8.7-1.4.9,1.3,1.3,4,.7,6.2,1.2,3.5-.7,7.1.8,11.7.6.1.4-1.3.1-1,.6.8.3,1.7-.2,3.1,0a2.52,2.52,0,0,0,.7-1.9,26.28,26.28,0,0,0,3,.1,2.42,2.42,0,0,1,1-.6c3.3.4,11.8.3,18.2.4a34.21,34.21,0,0,0,10.6-1.5c-.2-.8.1-1.1-.7-1.5,1.3,0,3,.2,4.1-.4.4,0,.2.2.3.4,4.4-.8,5.1,1.6,9.3,1.2-1.2.7,2.5-.2,2.7.7,7.8-1.1,18.1.5,26.4-.6.6-1.2,2.4-1.9,4.5-2.4.7,0-.5.2.3.4,2.8.4,5.1-.2,6.9.6,1.9,0,5.1-.6,7.7-.7,0,.4,0,.7.5.7-.1.4-1.5.1-1-.3-1.1.1-1.3.6-2.1.9-.6-.6-2.5.2-2.7.2.9,1.1,6.7-.4,8.6.4-2.4,1.1,3.1,1.3,6.9,1-1.1-.4.9-.1,1-.4.5.1.1.3-.3.3,1.6.3,3.7-.6,5.2.1,0,.1-.6.1-1,.1.2.6,1.4.7,3.1.6.1-.2-.3-.2-.3-.4a52,52,0,0,0,7.2-.4c.1-.4-.5-.4-.3-.9-.8-.3-2-.4-2.1-.9.7-.4,2.3-.3,3.8-.3,1.3.2.4.5,1.4.7.8,0,1.7,0,1.7-.3.6.3,1.6.4,2.1.7.4-.8,1.9-1.2,3.4-1.5.2-.4-.6-.4,0-.7.3.3,1.2.6,1-.1,1.4.3,4-.6,5.5.4.9-.3,2-.4,2.4-.9,3.8,0,9.2-.8,14.6-.7a3,3,0,0,1,1,.4,9.37,9.37,0,0,1,2.5-.2h.5v-.1a2.35,2.35,0,0,0,1.2-.4h.2c-.8,1.1-3.2,1.5-3.4,2.5-1.8-.1-2.3.4-5.1.3.1.2.7.1.7.3-.9.1-3-.1-3.4.6-.4,0-.2-.2-.3-.4a22.32,22.32,0,0,1-4.1.6c2.1-.4-.9-.3-1.7-.4-.3.4,1.1.2,1.4.4-2.2-.1-4.3.5-7.2.3,0,.3-1,.2-.7.6h-2.4c-.2-1.2-5.5,0-5.5-.9-1.9.6-5.6.4-5.5,1.9.3,0,.2-.2.3-.3,4.8.7,8-.2,12-.6.5.1,1.1.2,1,.6,2.2-.2,5.6.2,6.9-.7,1.3.1,3.8.3,3.1-.1,2.5,0,1.8,0,4.8.1-1.4.9,4.2.3,5.1-.1-.5.6,1.2.3,3.1.6v-.6c1,.1.3.2.3.6a23.59,23.59,0,0,1,3.1.4c.3-.1.7-.3,1-.4a2.26,2.26,0,0,1,1.7.6c-1.5-.4-3.2-.1-3.4,1.2,1.1,0,2.2.2,2.1.7H545c.3-.4-.6-.4-.7-.7a2,2,0,0,1,1.4.7c3.7-.2,4.6-.4,7.9.4,4.2-1.5,11.1-.3,14.8-1.2a3,3,0,0,0,2.1.3c.6-.8,2.3-1.3,0-1.8-2.8.5-6.7,1-9.6,1.3-1-.1-.3-.2-.3-.6-.6,0-1.7-.1-1.4.3-.6-.1-.3-.5-1.4-.3.1-.1.3-.2.3-.4-1.1-.2-.9.2-1.4.3a10.88,10.88,0,0,1,5.5-1.6c.1-.2-.3-.2-.3-.4,1.9.6,1.7-.6,3.8-.4.1.4-.5.5-1,.6,1.5.4,3.2-.2,4.5.7.6-.2,1.8-.5,1-.9,2.8.4,6.7.4,7.9.7,1.2-.6,3.3-.7,4.1-1.5,1-.1.4.5,1.7.3,0,.4-1.5.4.3.4a6.21,6.21,0,0,1-1,.3c1.3.5,1.6-.7,2.4-1,1.2-.1,1.9.4,2.7,0q-.6.3,0,.6c-.9.1-1.5-.5-1.4.1h1.7a8.86,8.86,0,0,1-5.2,1.2c-.3.3-1,.4-.7.9-1.9-.1-7.5-.1-8.9,1,1.7-.2,1.8.4,3.4-.1.7,0-.5.4.3.6.7-.5,1.3,0,2.1,0a50.41,50.41,0,0,0,10.6-1.3c-.5-.7,1.3-.3,1-.9.1.1,1.1,1.3.3,1.5,1.6-.1,3.8.4,6.2-.1.6.9,3.7.3,5.5.3,0,.1-.4.1-.7.1,4.9.5,14.8-.9,22,.3.4.7-.8.7-1.4.9,1.3,1.3,4,.7,6.2,1.2,3.5-.7,7.1.8,11.7.6.1.4-1.3.1-1,.6.8.3,1.7-.2,3.1,0,.7-.8,1-1.4.7-2.2,3.3-1,5.8-2.3,3.4-4,.2-1.9,8.1-1.5,10.6-1.5-.2.1-.3.3-.7.3.7.4,3,.1,2.7,1,1.8.3,1.4-.4,2.7-.4-.1-.3-.7-.6-.5-.8,1.8.4,6.4-.6,8,.1-2.4,1.1,3.1,1.3,6.9,1-1.1-.4.9-.1,1-.4.5.1.1.3-.3.3,1.6.3,3.7-.6,5.2.1,0,.1-.6.1-1,.1.2.6,1.4.7,3.1.6.1-.2-.3-.2-.3-.4a52,52,0,0,0,7.2-.4c.1-.4-.5-.4-.3-.9-.8-.3-2-.4-2.1-.9.7-.4,2.3-.3,3.8-.3,1.3.2.4.5,1.4.7.8,0,1.7,0,1.7-.3.6.3,1.6.4,2.1.7.4-.8,1.9-1.2,3.4-1.5.2-.4-.6-.4,0-.7.3.3,1.2.6,1-.1,1.4.3,4-.6,5.5.4.9-.3,2-.4,2.4-.9,4.7.1,12-1.2,18.5-.4v-.6a5.31,5.31,0,0,0,1.4.1c-.8,1.1-3.2,1.5-3.4,2.5-1.8-.1-2.3.4-5.1.3.1.2.7.1.7.3-.9.1-3-.1-3.4.6-.4,0-.2-.2-.3-.4a22.32,22.32,0,0,1-4.1.6c2.1-.4-.9-.3-1.7-.4-.3.4,1.1.2,1.4.4-2.2-.1-4.3.5-7.2.3,0,.3-1,.2-.7.6h-2.4c-.2-1.2-5.5,0-5.5-.9-1.9.6-5.6.4-5.5,1.9.3,0,.2-.2.3-.3,4.8.7,8-.2,12-.6.5.1,1.1.2,1,.6,2.2-.2,5.6.2,6.9-.7,1.3.1,3.8.3,3.1-.1,2.5,0,1.8,0,4.8.1-1.4.9,4.2.3,5.1-.1-.5.6,1.2.3,3.1.6v-.6c1,.1.3.2.3.6a23.59,23.59,0,0,1,3.1.4c.3-.1.7-.3,1-.4a2.26,2.26,0,0,1,1.7.6c-1.5-.4-3.2-.1-3.4,1.2,1.1,0,2.2.2,2.1.7h1.7c.3-.4-.6-.4-.7-.7a2,2,0,0,1,1.4.7c3.7-.2,4.6-.4,7.9.4,4.2-1.5,11.1-.3,14.8-1.2a3,3,0,0,0,2.1.3c.6-.8,2.3-1.3,0-1.8-2.8.5-6.7,1-9.6,1.3-1-.1-.3-.2-.3-.6-.6,0-1.7-.1-1.4.3-.6-.1-.3-.5-1.4-.3.1-.1.3-.2.3-.4-1.1-.2-.9.2-1.4.3a10.88,10.88,0,0,1,5.5-1.6c.1-.2-.3-.2-.3-.4,1.9.6,1.7-.6,3.8-.4.1.4-.5.5-1,.6,1.5.4,3.2-.2,4.5.7.6-.2,1.8-.5,1-.9,2.8.4,6.7.4,7.9.7,1.2-.6,3.3-.7,4.1-1.5,1-.1.4.5,1.7.3,0,.4-1.5.4.3.4a6.21,6.21,0,0,1-1,.3c1.3.5,1.6-.7,2.4-1,1.2-.1,1.9.4,2.7,0q-.6.3,0,.6c-.9.1-1.5-.5-1.4.1h1.7a8.86,8.86,0,0,1-5.2,1.2c-.3.3-1,.4-.7.9-1.9-.1-7.5-.1-8.9,1,1.7-.2,1.8.4,3.4-.1.7,0-.5.4.3.6.7-.5,1.3,0,2.1,0a50.41,50.41,0,0,0,10.6-1.3c-.5-.7,1.3-.3,1-.9.1.1,1.1,1.3.3,1.5,1.6-.1,3.8.4,6.2-.1.6.9,3.7.3,5.5.3,0,.1-.4.1-.7.1,4.9.5,14.8-.9,22,.3.4.7-.8.7-1.4.9,1.3,1.3,4,.7,6.2,1.2,3.5-.7,7.1.8,11.7.6.1.4-1.3.1-1,.6.8.3,1.7-.2,3.1,0,.7-.8,1-1.4.7-2.2,1.9-.6,3.5-1.2,4.1-2h.3a2.42,2.42,0,0,1,1-.6c3.3.4,11.8.3,18.2.4a34.21,34.21,0,0,0,10.6-1.5c-.2-.8.1-1.1-.7-1.5,1.3,0,3,.2,4.1-.4.4,0,.2.2.3.4,4.4-.8,5.1,1.6,9.3,1.2-1.2.7,2.5-.2,2.7.7,7.8-1.1,18.1.5,26.4-.6.6-1.2,2.4-1.9,4.5-2.4.7,0-.5.2.3.4,2.8.4,5.1-.2,6.9.6,3,.1,9.2-1.4,11-.1a37.26,37.26,0,0,1,4.7.1V63.1l-.9-.3c-1.3-.1-2.4.4-1.7.7-1.1-.1-1.8-.2-2.1-.6-1.3.4-1.2.3-1.4-.1-.8,0-2.3,1-2.4,0-.7.3-2.5.2-3.1.6-1.1.1-.4-.9-1.4-.4.1-1,3.2-.6,3.1-1.3,1.4-.2,4.2.3,2.7.4,1,.4,4.3-.9,4.5.1,1.3,0,3.2-.6,1.7-1a2.92,2.92,0,0,1,.9-.2V59.8c.1,0,.2.1.3.1,2.1-.3,2.8-.8,4.9-.4,0,.2-.1.3-.2.3a1.27,1.27,0,0,1,.6-.1V62c.4,0,.8.1,1.5.1-1.1.3,1,.3,0,.4.3.1,3.9.5,3.8-.4,0,.1,1.5.1,1.3.2,1.5-.2,3.5,1,4.9.1-.3.4,1.4.4,1.7.9,2.4-.1,4.8-.1,4.8,1,.3,0,.2-.2.3-.3s.4.1,1,0c0-1.1,3.2-.4,4.8-.9a.45.45,0,1,1,0,.9c.3.7,2.8.4,4.1.6-.3.2-.3.6-1,.6-1-.1.3-.3,0-.6a3.71,3.71,0,0,1-2.7.4c.1.5-1,.5-1,1a3.75,3.75,0,0,0-2.1,0c1.5-1.1-1.1-1.6-.3-2.2h-1.4c.3.4.2.8-.7.4.5.2-.3,1.5.7,1.6-.1.4-1.5.1-1-.3-1.1.1-1.3.6-2.1.9-.6-.6-2.5.2-2.7.2.9,1.1,6.7-.4,8.6.4-2.4,1.1,3.1,1.3,6.9,1-1.1-.4.9-.1,1-.4.5.1.1.3-.3.3,1.6.3,3.7-.6,5.2.1,0,.1-.6.1-1,.1.2.6,1.4.7,3.1.6.1-.2-.3-.2-.3-.4a52,52,0,0,0,7.2-.4c.1-.4-.5-.4-.3-.9-.8-.3-2-.4-2.1-.9.7-.4,2.3-.3,3.8-.3,1.3.2.4.5,1.4.7.8,0,1.7,0,1.7-.3.6.3,1.6.4,2.1.7.4-.8,1.9-1.2,3.4-1.5.2-.4-.6-.4,0-.7.3.3,1.2.6,1-.1,1.4.3,4-.6,5.5.4.2-.1.5-.1.7-.2a23.43,23.43,0,0,0,6.5,0,2.09,2.09,0,0,1,1.7.6c2.6-.2,4,.3,4.1,1-.9.1-1.8.2-2.1.6-.4,0-.2-.2-.3-.4a22.32,22.32,0,0,1-4.1.6c2.1-.4-.9-.3-1.7-.4-.3.4,1.1.2,1.4.4-2.2-.1-4.3.5-7.2.3,0,.3-1,.2-.7.6h-2.4c-.2-1.2-5.5,0-5.5-.9-1.9.6-5.6.4-5.5,1.9.3,0,.2-.2.3-.3,4.8.7,8-.2,12-.6.5.1,1.1.2,1,.6,2.2-.2,5.6.2,6.9-.7,1.3.1,3.8.3,3.1-.1,2.5,0,1.8,0,4.8.1-1.4.9,4.2.3,5.1-.1-.5.6,1.2.3,3.1.6V68c1,.1.3.2.3.6a23.59,23.59,0,0,1,3.1.4c.3-.1.7-.3,1-.4a2.26,2.26,0,0,1,1.7.6c-1.5-.4-3.2-.1-3.4,1.2,1.1,0,2.2.2,2.1.7h1.7c.3-.4-.6-.4-.7-.7a2,2,0,0,1,1.4.7c3.7-.2,4.6-.4,7.9.4,4.2-1.5,11.1-.3,14.8-1.2a3,3,0,0,0,2.1.3c.6-.8,2.3-1.3,0-1.8-2.8.5-6.7,1-9.6,1.3-1-.1-.3-.2-.3-.6-.6,0-1.7-.1-1.4.3-.6-.1-.3-.5-1.4-.3.1-.1.3-.2.3-.4-1.1-.2-.9.2-1.4.3a10.88,10.88,0,0,1,5.5-1.6c.1-.1,0-.1-.1-.2a21.75,21.75,0,0,0,2.6-.1h-.1c1.5.4,3.2-.2,4.5.7.6-.2,1.8-.5,1-.9,2.8.4,6.7.4,7.9.7,1.2-.6,3.3-.7,4.1-1.5,1-.1.4.5,1.7.3,0,.4-1.5.4.3.4a6.21,6.21,0,0,1-1,.3c1.3.5,1.6-.7,2.4-1,1.2-.1,1.9.4,2.7,0q-.6.3,0,.6c-.9.1-1.5-.5-1.4.1h1.7a8.86,8.86,0,0,1-5.2,1.2c-.3.3-1,.4-.7.9-1.9-.1-7.5-.1-8.9,1,1.7-.2,1.8.4,3.4-.1.7,0-.5.4.3.6.7-.5,1.3,0,2.1,0a50.41,50.41,0,0,0,10.6-1.3c-.5-.7,1.3-.3,1-.9.1.1,1.1,1.3.3,1.5,1.6-.1,3.8.4,6.2-.1.6.9,3.7.3,5.5.3,0,.1-.4.1-.7.1,4.9.5,14.8-.9,22,.3.4.7-.8.7-1.4.9,1.3,1.3,4,.7,6.2,1.2,3.5-.7,7.1.8,11.7.6.1.4-1.3.1-1,.6.8.3,1.7-.2,3.1,0,.7-.8,1-1.4.7-2.2,3.3-1,5.8-2.3,3.4-4,.2-1.9,8.1-1.5,10.6-1.5-.2.1-.3.3-.7.3.7.4,3,.1,2.7,1,1.8.3,1.4-.4,2.7-.4-.2-.4-1.2-.7,0-1a25.6,25.6,0,0,0-4.8,0c1.3-.5-1.4-.7-2.7-1,.1-.9.1-1.2-1-1.5a3.77,3.77,0,0,1,1.9-1,.47.47,0,0,1-.1.6c.2.3,1.4,0,1.2.7.5-.2,1,0,1-.4,1.4-.3,2.4.1,3.7.1,2.4,0,4.7-1.1,6.8-1.3,1.5-.1,2.8.3,4.4.2-.4,0,1.1-.4,1.5-.2.3,0-.1.1,0,.4a16.3,16.3,0,0,0,5.4,0c1.8.8,2.7-1,4.7,0-.1.7.2.8,0,1.2,1.4.3,2.9-.5,3.3.3.5-.3,1.5-.5,1.4.4a15.69,15.69,0,0,0,1.6-.3c.4.7,1.1.2,1.6.6,1-2.6,6.5,0,7.8-2.2-.5.1-.6,0-1.9-.4,0-1.1,1.5-1,2.6-1.3.3.1.2.4.2.6.5-.6,1.5,0,2.6-.1,3.2-.2,8.1-.5,11.7-1,.9-.1,1.7,0,2.3-.1.3,0,.4.3.5.3a15.48,15.48,0,0,1,3.3-.3,5.35,5.35,0,0,1,4.2-1.8,3.83,3.83,0,0,0,3.3,1.2c-.7,0-.4.9-1,.4-.6,0,.3.7-.2.6.3.7,1,0,1,.9,1.6,0,2.1-.1,3.3.6.1-.2.7-.7.2-.9.5.1.6-.8,1.7-.7-.2-.4,0-.3-.2-.7a2.42,2.42,0,0,1-1,.6c-.3-.1-.3-.5-.3-.9.3-.4,1.6.1,1.9-.3.1.4-.3.3-.2.7,2.6-.1,7.7-1.4,10.1.6a12,12,0,0,1,3.5.9c2.1-.3,2.8-.8,4.9-.4,0,.2-.1.3-.2.3,1-.6,1.9.6,4,.4.2.1.8.6.5.6.8.6,2.4,1.2,2.8-.1a8.52,8.52,0,0,0,2.3-.3c.2.7-.4.8-.5,1.3-.4-.3-.8.2-1-.3-.4-.1-.1.5-.2.7,2.5-.3,4.6.1,7,.1a17,17,0,0,1,2.8-.4c.1,0,.3.3.3.3,1.2-.2,1.7-.9,3.3-1.2,1.8-.3,3.9-.3,5.6-1.2.1.1.1.1.2.1V63l3-.3c.6,0,.2.5.7.6a8.47,8.47,0,0,1,3.6-.2c.1.7,2.1.7,2.9,1.4h.2c.3.4-.8.3-1.4.3,0,.4-.6.3,0,.6-1.1.1-1.6-.1-1.4-.6-2.5.1-4.3-.1-6.5-.1v.7c4,.3,8.9.1,10.6,1,.7.1.5-.3,1-.3,1.9.5,3.6.5,5.2,1.3,1.1-.3,3.7,0,4.1-.6,1.2-.2.4.6,1.7.4.2-.3-.2-.4-.3-.6,2.5.2,4.8-.6,9.3-.4,1.5.7,6.6.8,8.6.4a2.09,2.09,0,0,1,1.7.6c3.5-.3,4.9.7,3.8,1.8,3.4.3,5.7-.9,8.6-.4v.9c1.4-.3,2.3.1,4.1,0a2.42,2.42,0,0,1,1-.6c3.3.4,11.8.3,18.2.4a34.21,34.21,0,0,0,10.6-1.5c-.2-.8.1-1.1-.7-1.5,1.3,0,3,.2,4.1-.4.4,0,.2.2.3.4,4.4-.8,5.1,1.6,9.3,1.2-1.2.7,2.5-.2,2.7.7,4-.6,8.5-.4,13.1-.3,1.2,1,2.3,2.2,1.9,3.7.8.6,2.1.1,3,.7.1.3-.8-.1-.5.4.6-.1,1.4.9,2.1,1.2a4.15,4.15,0,0,1,3.5.2c3-.3,4.9-2.1,7.8-2.8.4,0-.2.3,0,.6,2.3-.4,4.6-.3,6.1-1,.4.7,1.1-.3,1.7-.4,1.2.7,3.2.1,4,.7.9-.6,2.1.4,2.6-.7.1.5.9.4,1.6.4-.2-1.2,1.7.5,1.7-.6.3.8,1.5-.1,1.6.4.9-.5,3,.6,3.8-.3.5.2,1.5.7,1.6-.1.6-.1.4.5,1,.4a5.26,5.26,0,0,1,3.1-.3c.3-.1,0-.1,0-.3.7.4.9-.1,1.6-.1.3,0,.1.5.3.6.8-.2,1.2,0,1.9-.4,1.4.7,3-.5,4.2.1.5.1.6-.2.9-.4.2,0,.1.1,0,.1,1.5.6,3.2,0,4.9,0,1,0,2,.4,3,.4,1.2,0,3-.6,4.2-.7a16.9,16.9,0,0,1,3,.3c1,0,1.8-.6,2.8-.6a20.15,20.15,0,0,1,2.3.1c.8-.1,1.6-.1,1.9.4.7-1.3,2.8.6,3.3-.6.8-.2.9.3,1.4.3,0-.2.2-.2.2-.4.1.3.6.3,1.2.3-.2-.6.4-.4.3-.9.2.1.3.3.5.3-.2.2-.1.5-.7.4.1.1.4.1.3.4,1.6-1.5,3.7-.4,4.7-.1a17.86,17.86,0,0,1,7.3,0c0-.2.2-.2.2-.4a44.41,44.41,0,0,0,7.1-.3c.6-.1,1.2-.1,1.8-.2.1.1.1.3.3.4.4-.3,1.5.1,1.4-.6,2.1.1,6,.5,8.2,0h.3a46.85,46.85,0,0,0,13-.2c.7.8,1.8.2,2.8.6v-.4a18.76,18.76,0,0,1,5.1.4c.1-.1.1-.2.2-.2s.2.1.4.1.7-.3,1-.4h0a2.26,2.26,0,0,1,1.7.6c-1.5-.4-3.2-.1-3.4,1.2,1.1,0,2.2.2,2.1.7h1.7c.3-.4-.6-.4-.7-.7a2,2,0,0,1,1.4.7c3.7-.2,4.6-.4,7.9.4,4.2-1.5,11.1-.3,14.8-1.2a3,3,0,0,0,2.1.3c.6-.8,2.3-1.3,0-1.8-2.8.5-6.7,1-9.6,1.3-1-.1-.3-.2-.3-.6-.6,0-1.7-.1-1.4.3-.6-.1-.3-.5-1.4-.3.1-.1.3-.2.3-.4-1.1-.2-.9.2-1.4.3a10.88,10.88,0,0,1,5.5-1.6v-.1h1.1q.6-.15,1.5-.3c-.1.1-.1.1-.2.1,1.5.4,3.2-.2,4.5.7.6-.2,1.8-.5,1-.9,2.8.4,6.7.4,7.9.7,1.2-.6,3.3-.7,4.1-1.5,1-.1.4.5,1.7.3,0,.4-1.5.4.3.4a6.21,6.21,0,0,1-1,.3c1.3.5,1.6-.7,2.4-1,1.2-.1,1.9.4,2.7,0q-.6.3,0,.6c-.9.1-1.5-.5-1.4.1h1.7a8.86,8.86,0,0,1-5.2,1.2c-.3.3-1,.4-.7.9-1.9-.1-7.5-.1-8.9,1,1.7-.2,1.8.4,3.4-.1.7,0-.5.4.3.6.7-.5,1.3,0,2.1,0a50.41,50.41,0,0,0,10.6-1.3c-.5-.7,1.3-.3,1-.9.1.1,1.1,1.3.3,1.5,1.6-.1,3.8.4,6.2-.1.6.9,3.7.3,5.5.3,0,.1-.4.1-.7.1,4.9.5,14.8-.9,22,.3.4.7-.8.7-1.4.9,1.3,1.3,4,.7,6.2,1.2,3.5-.7,7.1.8,11.7.6.1.4-1.3.1-1,.6.8.3,1.7-.2,3.1,0,.7-.8,1-1.4.7-2.2,3.3-1,5.8-2.3,3.4-4,.2-1.9,8.1-1.5,10.6-1.5-.2.1-.3.3-.7.3.7.4,3,.1,2.7,1,1.8.3,1.4-.4,2.7-.4-.2-.4-1.2-.7,0-1a25.6,25.6,0,0,0-4.8,0c1.3-.5-1.4-.7-2.7-1,.1-.9.1-1.2-1-1.5a3.77,3.77,0,0,1,1.9-1,.47.47,0,0,1-.1.6c.2.3,1.4,0,1.2.7.5-.2,1,0,1-.4,1.4-.3,2.4.1,3.7.1a21.12,21.12,0,0,0,5-1,3.29,3.29,0,0,1,1.6.7c2.1-.3,5.1.2,6.5-.5a26.35,26.35,0,0,0,2.8.2,1.38,1.38,0,0,1,.4.3c2.3-.4,4.6,0,6.6-.1.1.3.2.5,0,.8,1.4.3,2.9-.5,3.3.3.5-.3,1.5-.5,1.4.4a15.69,15.69,0,0,0,1.6-.3c.4.7,1.1.2,1.6.6.4-1,1.5-1.3,2.7-1.3h.2c1.7,0,3.8.4,4.7-.6,5.3,0,10.4.1,16.1-.4.7,0-.5.2.3.4,2.4.1,4.4.4,6.2-.4-.3.3,2.2.4,2.4,0,1.2.7,3.5,0,5.5.4v-.6c3.1.7,7.1.7,10.6.9.1-.3-.4-.3-.3-.6,2.5.6,10.3.7,11-.1.9,0,.9.4,1.4.6,1.4.2.9-.4,1.4-.6.4,0,.2.1,0,.1,1.8.1,3.8.2,5.8.2,0,.2.1.5,0,.6,2.5-.3,4.6.1,7,.1a17,17,0,0,1,2.8-.4c.1,0,.3.3.3.3,1.2-.2,1.7-.9,3.3-1.2,1.8-.3,3.9-.3,5.6-1.2.5.1,1,.2.9.9,2.2.1,4.5,0,6.8.1-.9,1.1,1.8,1.1,2.8,1.9h.2c.3.4-.8.3-1.4.3,0,.4-.6.3,0,.6-1.1.1-1.6-.1-1.4-.6-2.5.1-4.3-.1-6.5-.1v.7c4,.3,8.9.1,10.6,1,.7.1.5-.3,1-.3,1.9.5,3.6.5,5.2,1.3,1.1-.3,3.7,0,4.1-.6,1.2-.2.4.6,1.7.4.2-.3-.2-.4-.3-.6,2.5.2,4.8-.6,9.3-.4,1.5.7,6.6.8,8.6.4a2.09,2.09,0,0,1,1.7.6c3.5-.3,4.9.7,3.8,1.8,3.4.3,5.7-.9,8.6-.4V69c1.3-.3,2.3.1,4.1,0a2.42,2.42,0,0,1,1-.6c3.3.4,11.8.3,18.2.4a34.21,34.21,0,0,0,10.6-1.5c-.2-.8.1-1.1-.7-1.5,1.3,0,3,.2,4.1-.4.4,0,.2.2.3.4,4.4-.8,5.1,1.6,9.3,1.2-1.2.7,2.5-.2,2.7.7,7.8-1.1,18.1.5,26.4-.6.6-1.2,2.4-1.9,4.5-2.4.7,0-.5.2.3.4,2.8.4,5.1-.2,6.9.6,3,.1,9.2-1.4,11-.1a37.26,37.26,0,0,1,4.7.1V63.6l-.9-.3c-1.3-.1-2.4.4-1.7.7-1.1-.1-1.8-.2-2.1-.6-1.3.4-1.2.3-1.4-.1-.8,0-2.3,1-2.4,0-.7.3-2.5.2-3.1.6-1.1.1-.4-.9-1.4-.4.1-1,3.2-.6,3.1-1.3,1.4-.2,4.2.3,2.7.4,1,.4,4.3-.9,4.5.1,1.3,0,3.2-.6,1.7-1a2.92,2.92,0,0,1,.9-.2V57.3c-1.2-.1-2.5-.1-3.7-.2.2-.2.2-.2.1-.3ZM725.7,65.5c-1.2,0-1.9-.3-2.1-.7h.7C724.6,65.3,725.5,65.1,725.7,65.5ZM534.6,66c-1.2,0-1.9-.3-2.1-.7h.7C533.5,65.9,534.4,65.7,534.6,66ZM272,62.7c-1.2,0-1.9-.3-2.1-.7h.7C270.9,62.6,271.7,62.4,272,62.7Zm-192.5,3c-1.2,0-1.9-.3-2.1-.7h.7C78.5,65.6,79.3,65.4,79.5,65.7Zm59.1-1.8c.2,0,.4-.1.3-.3-.2,0-.4-.1,0-.1.1.2.9.1,1.4.1V64C139.2,63.9,138.9,64,138.6,63.9Zm1.4,1.2c-.1.3.3.3.3.6-.8.1-1.5.4-1.7-.1C139.3,65.6,139.2,65.2,140,65.1Zm.5-2.1a1.91,1.91,0,0,1,1.4-.4c-.4.5.6.4.7.6-.9-.1-.3.6-1,.6C141.9,63.3,140.2,63.6,140.5,63Zm1.1-5.7c.5-.3,2.4-.3,2.4.1C143.3,57.3,141.8,57.6,141.6,57.3ZM168,58.6c0,.2.6.1.7.3-3-.2,1.7-1.4,2.4-.6-.9.2.5.4-.3.6C169.4,59.1,168.8,58.2,168,58.6Zm72.5,0a2.9,2.9,0,0,1,2.4-.2,2.35,2.35,0,0,1-.8.2h-.3A2.85,2.85,0,0,1,240.5,58.6Zm92.1,4.8a2.87,2.87,0,0,1-1.2-.2c.4,0,.7-.1,1-.1C332.4,63.2,332.4,63.2,332.6,63.4Zm-1.3-.6c-.1,0-.1,0-.2-.1s-.1-.1-.1-.2c.7,0,.7-.4,1.4-.4-.1.3.3.3.3.6a8.17,8.17,0,0,1-1.4.1Zm32.4-1.2-.1-.1-.1.1a8.53,8.53,0,0,1-3.7-.5v-.2c1.5-.6,3.5.4,4.5-.6a.61.61,0,0,1-.3-.7,50.37,50.37,0,0,0,5.5,0C369.5,60.7,366.6,61.5,363.7,61.6Zm-4.9-.9c-.6,0-.8-.2-1.1.2a1.55,1.55,0,0,1,1,.1,11,11,0,0,1-2.7.2,4.35,4.35,0,0,0-.7-.4c-.1.2-.4.3-1,.3.1-.5-.4-.3-1-.2v-.4c1.6.1.5-.6,1-.6.2.3.4,0,.7-.1.7.5,1.2.1,2.1,0,.6.3.8.7,1.5.9C358.7,60.7,358.8,60.8,358.8,60.7Zm.6.4Zm235.9,4.8c-.8.1-1.5.4-1.7-.1.7,0,.7-.4,1.4-.4C594.9,65.7,595.4,65.8,595.3,65.9Zm190.8-1c-.1.3.3.3.3.6-.8.1-1.5.4-1.7-.1C785.5,65.3,785.4,65,786.1,64.9Zm296.8,1.5c-.1.3.3.3.3.6-.8.1-1.5.4-1.7-.1C1082.2,66.9,1082.2,66.5,1082.9,66.4ZM786.4,63.2h.1v.2C786.4,63.4,786.4,63.3,786.4,63.2Zm1.8-.8h0c-.4.5.6.4.7.6-.3,0-.4,0-.5.1h-.6c0,.1-.1.1-.1.2-.4-.2-1.2-.1-.9-.5A1.91,1.91,0,0,1,788.2,62.4Zm-310.1-.1c-1.3.4-1.2.3-1.4-.1a5.27,5.27,0,0,0-1.2.3h-.2v.1a.76.76,0,0,1-.4.1c.1-1.1,3.2-.4,4.8-.9.4,0,.5.4.3.7a.35.35,0,0,0-.2.1h-.2c.1,0,.1.1.2.1a.35.35,0,0,0,.2.1C478.9,62.7,478.2,62.5,478.1,62.3Zm-3.7.2h0ZM239.1,58.1a1.38,1.38,0,0,1-.4-.3,1.27,1.27,0,0,0,.6-.1C239.3,57.9,239.3,58.1,239.1,58.1Zm1335.5,7c.2,0,.4-.1.3-.3-.2,0-.4-.2,0-.2.1.3.9.2,1.4.2v.4C1575.3,65.1,1574.9,65.2,1574.6,65.1Zm1.4,1.3c-.1.3.3.3.3.6-.8.1-1.5.4-1.7-.1C1575.3,66.8,1575.3,66.5,1576,66.4Zm.6-2.1a1.91,1.91,0,0,1,1.4-.4c-.4.5.6.4.7.6-.9-.1-.3.6-1,.6C1578,64.6,1576.3,64.9,1576.6,64.3Zm314-1.1c.5,0-.6-.7,1-.6.1.5,2.2.4,3.1.9-1,.3-2.1.1-2.7.3-.2-.4.7-.3.7-.6-.4.1-.4-.1-.7-.1S1890.7,63.6,1890.6,63.2Zm-32.2-6.3.1-.1h2.3a1.61,1.61,0,0,0-.7.4C1860.1,56.5,1858.7,57.3,1858.4,56.9Zm-25.5,9.8c.2-1,4.3-1.3,5.5-.4-.5,0-.3.4-.3.6C1836.2,67.2,1834.1,67.6,1832.9,66.7Zm-37.1-4.3c.1-.8.8-1.2-.3-1.5,1.4-.2,1.1.3,2.1.3,1.1-.9,5.9-1.1,7.9-.6C1806.4,62.4,1799,63.7,1795.8,62.4Zm-7.1-.6c0-.2.1-.4.1-.6a7.52,7.52,0,0,1,4.3-1c-.2.8.3.4,1,.6-.8.8.7,1,1.4,1.5-1.5-.2-1.9.2-3.4.1a4.35,4.35,0,0,0-.7-.4c-.1.2-.4.3-1,.3.1-.6-.7,0-1.4-.1A.54.54,0,0,0,1788.7,61.8Zm-18.6,2c.9-.1,1.7-.3,2.3.1C1771.8,63.9,1771,63.8,1770.1,63.8Zm-29.3-1.2h.9v.1C1741.3,62.5,1741,62.8,1740.8,62.6Zm-105.6-1h.1a1.38,1.38,0,0,0,.4.3C1635.5,61.8,1635.4,61.7,1635.2,61.6Zm-46.1,5c1.1.2,1.7-.1,1-.4,2.9.1,5-.5,7.2-.4-.4-.2-.3-.5-.3-.9,1.6.1.5-.6,1-.6.2.3.4,0,.7-.1.7.5,1.2.1,2.1,0,.8.3,1,.8,2.1,1-.9-.1-1.1-.3-1.4.1.8-.1.7.2,1.7.1,1.4-.9,3.7.4,4.8-.7a.61.61,0,0,1-.3-.7,75.65,75.65,0,0,0,12.7-.6c-1.1.3.7.3.7.4-.4,0-.2.2,0,.3-2.9.4-4.1,2.2-7.6,1.9.1.6-5.3.5-6.2-.1-.3.3-1.6,1-2.1.7.3,0,.4-.3,0-.3a4.37,4.37,0,0,0-2.4.6c.7.2,1.6-.1,1.7.6-2,.3-3.3,0-5.2.4-.1-.8.6-.1,1-1-2.4.2-4.2-.4-6.2.7-.8.1-.7-.2-1.7-.1,0-.2.2-.6-.3-.6s0,.7-.7.7c-.5-.5-1.8-.6-1.7-.9C1589.5,66.7,1589.1,66.7,1589.1,66.6Zm-7.9,1.7c-.1-.2.1-.3.3-.4-.4,0-.5-.2-.7-.3,1.4.1,2,.1,1.4-.4,1.6-.3.8.5,1.4.7a5.48,5.48,0,0,0-2.1.3C1581.5,68.3,1581.4,68.4,1581.2,68.3Zm-5.9-.6c-.4,0-.8,0-.7-.3a27.38,27.38,0,0,0,4.8-.6c.6.4,1.3.6,1.4,1.2-1,.3-2.4.9-3.4.3.9.5-2.7,1-3.8.6.7,0-.1-.6-1-.4C1572.1,67.5,1574.7,67.9,1575.3,67.7Zm-48.7.8c.4,0,.7-.3,1,0-1.2.1.3.2.3.4-.5,0-.5.2-1,.3C1527,68.9,1526.8,68.7,1526.6,68.5Zm-92-7.7c.7.1-.2-.3.3-.3.1.3.3-.4.7-.4-.2,0-.2-.2-.2-.4-.4.3-.3-.2-.6-.3.2-.1.3-.1.5-.2a1.51,1.51,0,0,0,1.2-.1h0v.7a.62.62,0,0,0-.7.3c0,.2.3.3.3.7C1435.6,60.8,1435.1,61.1,1434.6,60.8Zm0-.6a7.58,7.58,0,0,0-1.6-.3c.4,0,.7-.1,1.1-.1a1.38,1.38,0,0,1,.4-.3C1434.5,59.9,1434.8,60,1434.6,60.2Zm-1.8.6c.3,0,1,.2,1-.1-.1,0-.2-.1,0-.1,0,.2.6.1.5.4C1433.5,60.9,1433.2,61.3,1432.8,60.8Zm-93,5.9c.2-1,4.3-1.3,5.5-.4-.5,0-.3.4-.3.6C1343.2,67.2,1341,67.7,1339.8,66.7ZM1306.2,63a22.11,22.11,0,0,0,2.5-.5c.2.1.3.1.5.2A15.26,15.26,0,0,1,1306.2,63Zm-29.2.9c.9-.1,1.7-.3,2.3.1C1278.7,64,1277.9,63.9,1277,63.9ZM1217.4,59c.3-.1,1.4-.5,1.4.1C1218.5,59.4,1217.7,59.1,1217.4,59Zm-15.9-1.5c.6.2.9-.1.5-.4.7.1.4-.2.5-.4h.5a.37.37,0,0,0,.3.1c-.3.9.7.6.5,1.5C1202.7,58.1,1201.8,58.6,1201.5,57.5Zm-19.8,1.7c1.7-.3,4-1.2,4.7.3C1184.9,60.3,1182.2,60.1,1181.7,59.2Zm-39.6,2.5c.1,0,.1,0,.1-.1,0,.1.2.3.4.4A2.19,2.19,0,0,0,1142.1,61.7Zm-13.5-1.5c1.2-1.3,4.4-2.2,8.8-1.9,1.3.5.3,1.5.2,2.4A29.56,29.56,0,0,1,1128.6,60.2Zm-32.5,6.5c1.1.2,1.7-.1,1-.4,2.9.1,5-.5,7.2-.4-.4-.2-.3-.5-.3-.9,1.6.1.5-.6,1-.6.2.3.4,0,.7-.1.7.5,1.2.1,2.1,0,.8.3,1,.8,2.1,1-.9-.1-1.1-.3-1.4.1.8-.1.7.2,1.7.1,1.4-.9,3.7.4,4.8-.7-.3-.2-.4-.3-.4-.6.4,0,.8-.1,1.2-.1,2.4,0,5.2-.1,7.8-.3l.6.3c1.2,0,2.4,0,3.7.1-2.9.4-4,2.2-7.5,1.9.1.6-5.3.5-6.2-.1-.3.3-1.6,1-2.1.7.3,0,.4-.3,0-.3a4.37,4.37,0,0,0-2.4.6c.7.2,1.6-.1,1.7.6-2,.3-3.3,0-5.2.4-.1-.8.6-.1,1-1-2.4.2-4.2-.4-6.2.7-.8.1-.7-.2-1.7-.1,0-.2.2-.6-.3-.6s0,.7-.7.7c-.5-.5-1.8-.6-1.7-.9C1096.4,66.7,1096,66.8,1096.1,66.7Zm-8,1.7c-.1-.2.1-.3.3-.4-.4,0-.5-.2-.7-.3,1.4.1,2,.1,1.4-.4,1.6-.3.8.5,1.4.7a5.48,5.48,0,0,0-2.1.3C1088.4,68.4,1088.4,68.4,1088.1,68.4Zm-5.9-.6c-.4,0-.8,0-.7-.3a27.38,27.38,0,0,0,4.8-.6c.6.4,1.3.6,1.4,1.2-1,.3-2.4.9-3.4.3.9.5-2.7,1-3.8.6.7,0-.1-.6-1-.4C1079.1,67.6,1081.6,68,1082.2,67.8Zm-48.7.8c.4,0,.7-.3,1,0-1.2.1.3.2.3.4-.5,0-.5.2-1,.3A.52.52,0,0,0,1033.5,68.6Zm-12.8-2c.2,0,.4-.1.6-.1.4.4,1,.3,1.2.6A3.22,3.22,0,0,1,1020.7,66.6Zm-41.8.7c.5,0,1.3-.1,1.4.1-.5,0-.2.3,0,.4-.5,0-1.3.1-1.4-.1C979.5,67.6,978.8,67.5,978.9,67.3Zm-7-1.4c1.2-.5.9-.7,1.4-1.5,1.4-.1,1.9-.6,4.1-.4.5.5-.2.6.3.9-1,.1-.6-.4-1.7-.3.6.5-1.1,0-1,.4.6.1.1.2-.3,0-.6.2.4,1-.3.7-.7-.5-1.1.3-1.7.3C972.6,65.8,972.1,66.1,971.9,65.9Zm.1-2.1c.2.5.5-.2,1-.1.1.3-.9.9-1,.7C972.5,64.1,971.1,63.8,972,63.8Zm-62.4-1.5c.5,0-.6-.7,1-.6.1.5,2.2.4,3.1.9-1,.3-2.1.1-2.7.3-.2-.4.7-.3.7-.6-.4.1-.4-.1-.7-.1S909.8,62.7,909.6,62.3Zm-57.7,3.4a.82.82,0,0,1,.5-.5h.3a.1.1,0,0,1-.1-.1c1.3-.5,3.9-.5,4.8.2-.5,0-.3.4-.3.6C855.3,66.2,853.1,66.6,851.9,65.7Zm-49.1.3c-.1-.2,0-.4-.1-.5s-.3-.3-.4-.5c2.5.2,4.8-.6,9.3-.4a7.14,7.14,0,0,0,2.1.5,4.88,4.88,0,0,0-.7.3c.7.2,1.6-.1,1.7.6-2,.3-3.3,0-5.2.4-.1-.8.6-.1,1-1-2.4.2-4.2-.4-6.2.7C803.5,66.2,803.6,65.8,802.8,66Zm-1.2.1c-.3-.3-1-.4-1.4-.6a.6.6,0,0,0,.6-.3c1-.1.7.3,1.2.4C801.9,65.8,802,66.1,801.6,66.1Zm-10.3.7c-.1-.2.1-.3.3-.4-.4,0-.5-.2-.7-.3,1.4.1,2,.1,1.4-.4,1.6-.3.8.5,1.4.7a5.48,5.48,0,0,0-2.1.3C791.6,66.8,791.6,66.9,791.3,66.8Zm-5.9-.6c-.4,0-.8,0-.7-.3a27.38,27.38,0,0,0,4.8-.6c.6.4,1.3.6,1.4,1.2-1,.3-2.4.9-3.4.3.9.5-2.7,1-3.8.6.7,0-.1-.6-1-.4C782.3,66,784.8,66.4,785.4,66.2Zm-48.7.8c.4,0,.7-.3,1,0-1.2.1.3.2.3.4-.5,0-.5.2-1,.3C737.1,67.4,737,67.2,736.7,67Zm-5.8-5.3a.16.16,0,1,0,.3-.1,1.64,1.64,0,0,1,1,.1V62a3,3,0,0,0-1.4.1C731,61.8,730.3,61.7,730.9,61.7Zm-48.8,4c.5,0,1.3-.1,1.4.1-.5,0-.2.3,0,.4-.5,0-1.3.1-1.4-.1C682.7,66,682,65.9,682.1,65.7Zm-7-1.3c1.2-.5.9-.7,1.4-1.5,1.4-.1,1.9-.6,4.1-.4.5.5-.2.6.3.9-1,.1-.6-.4-1.7-.3.6.5-1.1,0-1,.4.6.1.1.2-.3,0-.6.2.4,1-.3.7-.7-.5-1.1.3-1.7.3C675.8,64.2,675.3,64.5,675.1,64.4Zm.1-2.2c.2.5.5-.2,1-.1.1.3-.9.9-1,.7C675.7,62.5,674.3,62.3,675.2,62.2Zm-22.1.3a3.77,3.77,0,0,1,1.9-1,.47.47,0,0,1-.1.6c.2.3,1.4,0,1.2.7.5-.2,1,0,1-.4,1.4-.3,2.4.1,3.7.1a12.76,12.76,0,0,0,3.4-.6c.3.2.4.3.4.6.3,0,.2-.2.3-.3s.4.1,1,0c0-1,2.5-.6,4.2-.8.1,0,.1.1.2.1h.8a.43.43,0,0,1-.4.6c.3.7,2.8.4,4.1.6-.3.2-.3.6-1,.6-1-.1.3-.3,0-.6a3.71,3.71,0,0,1-2.7.4c.1.5-1,.5-1,1a3.75,3.75,0,0,0-2.1,0c1.5-1.1-1.1-1.6-.3-2.2h-1.4c.3.4.2.8-.7.4.5.2-.3,1.5.7,1.6-.1.4-1.5.1-1-.3-1.1.1-1.3.6-2.1.9-.6-.7-2.3,0-2.7.1a23.47,23.47,0,0,0-3.7.1c1.3-.5-1.4-.7-2.7-1C654.2,62.8,654.2,62.4,653.1,62.5Zm-44.9,3.1c1.1.2,1.7-.1,1-.4,2.9.1,5-.5,7.2-.4-.4-.2-.3-.5-.3-.9,1.6.1.5-.6,1-.6.2.3.4,0,.7-.1.7.5,1.2.1,2.1,0,.8.3,1,.8,2.1,1-.9-.1-1.1-.3-1.4.1.8-.1.7.2,1.7.1,1.4-.9,3.7.4,4.8-.7-.3-.2-.5-.4-.4-.7,4.1-.1,8.5.2,12.8.2-2.5.5-3.7,2.1-7,1.8.1.6-5.3.5-6.2-.1-.3.3-1.6,1-2.1.7.3,0,.4-.3,0-.3a4.37,4.37,0,0,0-2.4.6c.7.2,1.6-.1,1.7.6-2,.3-3.3,0-5.2.4-.1-.8.6-.1,1-1-2.4.2-4.2-.4-6.2.7-.8.1-.7-.2-1.7-.1,0-.2.2-.6-.3-.6s0,.7-.7.7c-.5-.5-1.8-.6-1.7-.9C608.5,65.7,608.1,65.7,608.2,65.6Zm-8,1.7c-.1-.2.1-.3.3-.4-.4,0-.5-.2-.7-.3,1.4.1,2,.1,1.4-.4,1.6-.3.8.5,1.4.7a5.48,5.48,0,0,0-2.1.3C600.5,67.3,600.5,67.4,600.2,67.3Zm-5.9-.6c-.4,0-.8,0-.7-.3a27.38,27.38,0,0,0,4.8-.6c.6.4,1.3.6,1.4,1.2-1,.3-2.4.9-3.4.3.9.5-2.7,1-3.8.6.7,0-.1-.6-1-.4C591.2,66.5,593.7,67,594.3,66.7Zm-48.7.9c.4,0,.7-.3,1,0-1.2.1.3.2.3.4-.5,0-.5.2-1,.3C546,67.9,545.9,67.7,545.6,67.6Zm-6-5.2h.3v-.1c.1,0,.3,0,.2-.2a1.64,1.64,0,0,1,1,.1v.3a3,3,0,0,0-1.4.1C539.8,62.5,539.7,62.4,539.6,62.4ZM503,62.1c-.2-.8,3.5-.8,2.4-.1C504.5,61.6,504.6,62,503,62.1ZM495.8,61c.3-.3.1-.8.7-.9,1,.4,4.5-.1,5.1.1-.7,0-1.3.8.3.7.1.4.1.8-1,.7-.1-.2.4-.7-.3-.7-1.5,0,.2.6-.7.7-.2-.4-1-.4-.7.1C497.3,61.5,497.8,60.8,495.8,61ZM491,66.2c.5,0,1.3-.1,1.4.1-.5,0-.2.3,0,.4-.5,0-1.3.1-1.4-.1C491.6,66.6,490.9,66.4,491,66.2Zm-7-1.3c1.2-.5.9-.7,1.4-1.5,1.4-.1,1.9-.6,4.1-.4.5.5-.2.6.3.9-1,.1-.6-.4-1.7-.3.6.5-1.1,0-1,.4.6.1.1.2-.3,0-.6.2.4,1-.3.7-.7-.5-1.1.3-1.7.3C484.7,64.7,484.2,65.1,484,64.9Zm.1-2.1c.2.5.5-.2,1-.1.1.3-.9.9-1,.7C484.6,63,483.2,62.8,484.1,62.8Zm-1.3.9h-.1v-.3c.1-.1.2-.2.1-.3h-.1V63a3.75,3.75,0,0,1,1.1.1C483.4,63.3,483.4,63.6,482.8,63.7Zm-5.8.9c.2-.2.4-.4.4-.6l.6.3h1.2c-.1.1-.2.2-.2.3A3.39,3.39,0,0,0,477,64.6Zm-7.3-2.4a.66.66,0,0,1,.4-.5,6,6,0,0,1,3.1.5,5.58,5.58,0,0,0-2.1.4C470,62.7,470.7,61.7,469.7,62.2ZM454.5,62c.5,0-.6-.7,1-.6.1.5,2.2.4,3.1.9-1,.3-2.1.1-2.7.3-.2-.4.7-.3.7-.6-.4.1-.4-.1-.7-.1S454.7,62.4,454.5,62Zm-57.7,3.4c.2-1,4.3-1.3,5.5-.4-.5,0-.3.4-.3.6C400.2,65.9,398,66.3,396.8,65.4Zm-67.3-1.9c2.4.1,4.6.2,5.7.7a1.88,1.88,0,0,1-1.5-.2c.9.5-2.7,1-3.8.6.7,0-.1-.6-1-.4C328.8,63.9,329.1,63.7,329.5,63.5Zm-46.5.8c.4,0,.7-.3,1,0-1.2.1.3.2.3.4-.5,0-.5.2-1,.3A.56.56,0,0,0,283,64.3Zm-5.9-5c0-.1,0-.1-.1-.2.1,0,.1-.1.2-.1s.2,0,.2-.1a.9.9,0,0,1,.5-.1c.3,0,.4.1.6.1v.3A5.31,5.31,0,0,0,277.1,59.3ZM228.3,63c.5,0,1.3-.1,1.4.1-.5,0-.2.3,0,.4-.5,0-1.3.1-1.4-.1C228.9,63.3,228.2,63.2,228.3,63Zm-6.9-1.4c.3-.2.6-.3.7-.4a8.81,8.81,0,0,0,1.7-.2h.1c.1.3.3.6-.1.4-.7-.5-1.1.3-1.7.3C222.1,61.4,221.6,61.8,221.4,61.6Zm-7.2-.4a.72.72,0,0,0,.4-.6,8.88,8.88,0,0,0,2.3.1c-.1,0,0,0,.2-.1-.3.2-.8.4-.8.7A4.89,4.89,0,0,0,214.2,61.2Zm-5.6.2c1.2-.3,2.3-.6,3.4-.8,0,.3.1.5.5.5-.1.4-1.5.1-1-.3-1.1.1-1.3.6-2.1.9C209.3,61.5,209,61.5,208.6,61.4Zm-9.4-1c.1,0,.1,0,.1-.1,0,.1.2.3.4.4A2.19,2.19,0,0,1,199.2,60.4Zm-13.5-1.5c1-1.1,3.6-2,7.2-2v.3c.4,0,.8.1,1.5.1-1.1.3,1,.3,0,.4a3.55,3.55,0,0,0,.7.1c-.1.5-.4,1-.5,1.6A28.91,28.91,0,0,1,185.7,58.9Zm-32.6,6.4c1.1.2,1.7-.1,1-.4,2.9.1,5-.5,7.2-.4-.4-.2-.3-.5-.3-.9,1.6.1.5-.6,1-.6.2.3.4,0,.7-.1.7.5,1.2.1,2.1,0,.8.3,1,.8,2.1,1-.9-.1-1.1-.3-1.4.1.8-.1.7.2,1.7.1,1.4-.9,3.7.4,4.8-.7a.61.61,0,0,1-.3-.7,75.65,75.65,0,0,0,12.7-.6c-1.1.3.7.3.7.4-.4,0-.2.2,0,.3-2.9.4-4.1,2.2-7.6,1.9.1.6-5.3.5-6.2-.1-.3.3-1.6,1-2.1.7.3,0,.4-.3,0-.3a4.37,4.37,0,0,0-2.4.6c.7.2,1.6-.1,1.7.6-2,.3-3.3,0-5.2.4-.1-.8.6-.1,1-1-2.4.2-4.2-.4-6.2.7-.8.1-.7-.2-1.7-.1,0-.2.2-.6-.3-.6s0,.7-.7.7c-.5-.5-1.8-.6-1.7-.9C153.4,65.4,153,65.4,153.1,65.3ZM149.6,57c0,.4.2.9-.7.9C148.6,57.5,148.3,57,149.6,57Zm-4.5,10c-.1-.2.1-.3.3-.4-.4,0-.5-.2-.7-.3,1.4.1,2,.1,1.4-.4,1.6-.3.8.5,1.4.7a5.48,5.48,0,0,0-2.1.3C145.4,67,145.4,67.1,145.1,67Zm-5.9-.6c-.4,0-.8,0-.7-.3a27.38,27.38,0,0,0,4.8-.6c.6.4,1.3.6,1.4,1.2-1,.3-2.4.9-3.4.3.9.5-2.7,1-3.8.6.7,0-.1-.6-1-.4C136.1,66.2,138.6,66.7,139.2,66.4Zm-6.5-8.5c.8-1.2,3.2-.1,4.8-.7.9.4-.4.7-.7,1A30.09,30.09,0,0,0,132.7,57.9ZM117.4,59c1.2,0-.8-.4.3-.4,0,0,0,.1.3.1,3-.7,7.6-.6,7.2,1-.5,0-1.2,0-1,.3-2-.4-2.6.2-4.5.1-.1-.4-.9-.5-1.7-.6-.1-.3.3-.3.3-.6C117.9,58.9,117.5,59.2,117.4,59Zm-9.7.9c.6,0-.2-.2.3-.3.3.4,1.1-.2,1.4-.3,0,.6-.4.4,0,.9C108.5,60.3,107.7,60.3,107.7,59.9ZM90.5,67.3c.4,0,.7-.3,1,0-1.2.1.3.2.3.4-.5,0-.5.2-1,.3C90.9,67.6,90.8,67.4,90.5,67.3Zm-5.8-5.4a.16.16,0,1,0,.3-.1,1.64,1.64,0,0,1,1,.1v.3a3,3,0,0,0-1.4.1C84.8,62.1,84.1,61.9,84.7,61.9Zm-36.8-.1c-.2-.8,3.5-.8,2.4-.1C49.4,61.3,49.6,61.7,47.9,61.8Zm-7.2-1.1c.3-.3.1-.8.7-.9,1,.4,4.5-.1,5.1.1-.7,0-1.3.8.3.7.1.4.1.8-1,.7-.1-.2.4-.7-.3-.7-1.5,0,.2.6-.7.7-.2-.4-1-.4-.7.1C42.2,61.2,42.7,60.6,40.7,60.7Zm-4.8,5.2c.5,0,1.3-.1,1.4.1-.5,0-.2.3,0,.4-.5,0-1.3.1-1.4-.1C36.5,66.3,35.8,66.1,35.9,65.9Zm-7-1.3c1.2-.5.9-.7,1.4-1.5,1.4-.1,1.9-.6,4.1-.4.5.5-.2.6.3.9-1,.1-.6-.4-1.7-.3.6.5-1.1,0-1,.4.6.1.1.2-.3,0-.6.2.4,1-.3.7-.7-.5-1.1.3-1.7.3C29.6,64.4,29.1,64.8,28.9,64.6Zm.1-2.1c.2.5.5-.2,1-.1.1.3-.9.9-1,.7C29.5,62.7,28.1,62.5,29,62.5ZM17.3,56.8l.7-.1c-.1.1-.4.1-.7.1Z"/></g></g></svg>