<svg xmlns="http://www.w3.org/2000/svg" viewBox="0 0 1919.3 74.1"><defs><style>.cls-1{fill:#f2f0e8;}</style></defs><g id="Layer_2" data-name="Layer 2"><g id="Layer_1-2" data-name="Layer 1"><path class="cls-1" d="M1915.1,17.3c.1-.1.1-.1-.1-.3,1.2-.1,2.5-.1,3.7-.2V12.6a2.92,2.92,0,0,1-.9-.2c1.5-.4-.4-1-1.7-1-.2,1-3.5-.3-4.5.1,1.5.1-1.3.6-2.7.4.1-.7-3-.3-3.1-1.3,1,.5.3-.5,1.4-.4.6.4,2.4.3,3.1.6.1-1,1.6,0,2.4,0,.2-.4.1-.5,1.4-.1.3-.4,1-.5,2.1-.6-.7.3.4.8,1.7.7l.9-.3V8.4a37.26,37.26,0,0,1-4.7.1c-1.8,1.3-8-.2-11-.1-1.8.8-4.1.2-6.9.6-.8.2.4.4-.3.4-2.1-.5-3.9-1.2-4.5-2.4-8.3-1.1-18.6.5-26.4-.6-.2.9-3.9,0-2.7.7-4.2-.4-4.9,2-9.3,1.2-.1.2.1.4-.3.4-1.1-.6-2.8-.4-4.1-.4.8-.4.5-.7.7-1.5a34.21,34.21,0,0,0-10.6-1.5c-6.4.1-14.9,0-18.2.4a2.42,2.42,0,0,1-1-.6c-1.8-.1-2.8.3-4.1,0V6c-2.9.5-5.2-.7-8.6-.4,1.1,1.1-.3,2.1-3.8,1.8a2.09,2.09,0,0,1-1.7.6c-2-.4-7.1-.3-8.6.4-4.5.2-6.8-.6-9.3-.4.1-.2.5-.3.3-.6-1.3-.2-.5.6-1.7.4-.4-.6-3-.3-4.1-.6-1.6.8-3.3.8-5.2,1.3-.5,0-.3-.4-1-.3-1.7.9-6.6.7-10.6,1v.7c2.2,0,4-.2,6.5-.1-.2-.5.3-.7,1.4-.6-.6.3,0,.2,0,.6.6,0,1.7-.1,1.4.3h-.2c-1,.8-3.7.8-2.8,1.9-2.3.1-4.6,0-6.8.1.1.7-.4.8-.9.9-1.7-.9-3.8-.9-5.6-1.2-1.6-.3-2.1-1-3.3-1.2,0,0-.2.3-.3.3a17,17,0,0,1-2.8-.4c-2.4,0-4.5.4-7,.1.1.1,0,.4,0,.6-2,0-4,.1-5.8.2.2,0,.4.1,0,.1-.5-.2,0-.8-1.4-.6-.5.2-.5.6-1.4.6-.7-.8-8.5-.7-11-.1-.1-.3.4-.3.3-.6-3.5.2-7.5.2-10.6.9v-.6c-2,.4-4.3-.3-5.5.4-.2-.4-2.7-.3-2.4,0-1.8-.8-3.8-.5-6.2-.4-.8.2.4.4-.3.4-5.7-.5-10.8-.4-16.1-.4-.9-1-3-.6-4.7-.6h-.2c-1.2,0-2.3-.3-2.7-1.3-.5.4-1.2-.1-1.6.6a15.69,15.69,0,0,0-1.6-.3c.1.9-.9.7-1.4.4-.4.8-1.9,0-3.3.3.2.3.1.5,0,.8-2-.1-4.3.3-6.6-.1a1.38,1.38,0,0,1-.4.3,26.35,26.35,0,0,0-2.8.2c-1.4-.7-4.4-.2-6.5-.5a3.29,3.29,0,0,1-1.6.7,21.12,21.12,0,0,0-5-1c-1.3,0-2.3.4-3.7.1,0-.4-.5-.2-1-.4.2.7-1,.4-1.2.7a.47.47,0,0,1,.1.6,3.77,3.77,0,0,1-1.9-1c1.1-.3,1.1-.6,1-1.5,1.3-.3,4-.5,2.7-1a25.6,25.6,0,0,0,4.8,0c-1.2-.3-.2-.6,0-1-1.3,0-.9-.7-2.7-.4.3.9-2,.6-2.7,1,.4,0,.5.2.7.3-2.5,0-10.4.4-10.6-1.5,2.4-1.7-.1-3-3.4-4,.3-.8,0-1.4-.7-2.2-1.4.2-2.3-.3-3.1,0-.3.5,1.1.2,1,.6-4.6-.2-8.2,1.3-11.7.6-2.2.5-4.9-.1-6.2,1.2.6.2,1.8.2,1.4.9-7.2,1.2-17.1-.2-22,.3.3,0,.7,0,.7.1-1.8,0-4.9-.6-5.5.3-2.4-.5-4.6,0-6.2-.1.8.2-.2,1.4-.3,1.5.3-.6-1.5-.2-1-.9a50.41,50.41,0,0,0-10.6-1.3c-.8,0-1.4.5-2.1,0-.8.2.4.6-.3.6-1.6-.5-1.7.1-3.4-.1,1.4,1.1,7,1.1,8.9,1-.3.5.4.6.7.9a8.86,8.86,0,0,1,5.2,1.2h-1.7c-.1.6.5,0,1.4.1q-.6.3,0,.6c-.8-.4-1.5.1-2.7,0-.8-.3-1.1-1.5-2.4-1a6.21,6.21,0,0,1,1,.3c-1.8,0-.3,0-.3.4-1.3-.2-.7.4-1.7.3-.8-.8-2.9-.9-4.1-1.5-1.2.3-5.1.3-7.9.7.8-.4-.4-.7-1-.9-1.3.9-3,.3-4.5.7.1,0,.1,0,.2.1q-.9-.15-1.5-.3h-1.1V6.5a10.88,10.88,0,0,1-5.5-1.6c.5.1.3.5,1.4.3,0-.2-.2-.3-.3-.4,1.1.2.8-.2,1.4-.3-.3.4.8.3,1.4.3,0-.4-.7-.5.3-.6,2.9.3,6.8.8,9.6,1.3,2.3-.5.6-1,0-1.8a3,3,0,0,0-2.1.3c-3.7-.9-10.6.3-14.8-1.2-3.3.8-4.2.6-7.9.4a2,2,0,0,1-1.4.7c.1-.3,1-.3.7-.7h-1.7c.1.5-1,.7-2.1.7.2,1.3,1.9,1.6,3.4,1.2a2.26,2.26,0,0,1-1.7.6h0c-.3-.1-.7-.3-1-.4s-.3,0-.4.1-.1-.1-.2-.2a18.76,18.76,0,0,1-5.1.4V5.2c-1,.4-2.1-.2-2.8.6a46.85,46.85,0,0,0-13-.2h-.3c-2.2-.5-6.1-.1-8.2,0,.1-.7-1-.3-1.4-.6-.2.1-.2.3-.3.4-.6-.1-1.2-.1-1.8-.2a44.41,44.41,0,0,0-7.1-.3c0-.2-.2-.2-.2-.4a17.86,17.86,0,0,1-7.3,0c-1,.3-3.1,1.4-4.7-.1.1.3-.2.3-.3.4.6-.1.5.2.7.4-.2,0-.3.2-.5.3.1-.5-.5-.3-.3-.9-.6,0-1.1,0-1.2.3,0-.2-.2-.2-.2-.4-.5,0-.6.5-1.4.3-.5-1.2-2.6.7-3.3-.6-.3.5-1.1.5-1.9.4a20.15,20.15,0,0,1-2.3.1c-1,0-1.8-.6-2.8-.6a16.9,16.9,0,0,1-3,.3c-1.2-.1-3-.7-4.2-.7-1,0-2,.4-3,.4-1.7,0-3.4-.6-4.9,0,.1,0,.2.1,0,.1-.3-.2-.4-.5-.9-.4-1.2.6-2.8-.6-4.2.1-.7-.4-1.1-.2-1.9-.4-.2.1,0,.6-.3.6-.7,0-.9-.5-1.6-.1,0-.2.3-.2,0-.3a5.26,5.26,0,0,1-3.1-.3c-.6-.1-.4.5-1,.4-.1-.8-1.1-.3-1.6-.1-.8-.9-2.9.2-3.8-.3-.1.5-1.3-.4-1.6.4,0-1.1-1.9.6-1.7-.6-.7,0-1.5-.1-1.6.4-.5-1.1-1.7-.1-2.6-.7-.8.6-2.8,0-4,.7-.6-.1-1.3-1.1-1.7-.4-1.5-.7-3.8-.6-6.1-1-.2.3.4.6,0,.6-2.9-.7-4.8-2.5-7.8-2.8a4.15,4.15,0,0,1-3.5.2c-.7.3-1.5,1.3-2.1,1.2-.3.5.6.1.5.4-.9.6-2.2.1-3,.7.4,1.5-.7,2.7-1.9,3.7-4.6.1-9.1.3-13.1-.3-.2.9-3.9,0-2.7.7-4.2-.4-4.9,2-9.3,1.2-.1.2.1.4-.3.4-1.1-.6-2.8-.4-4.1-.4.8-.4.5-.7.7-1.5a34.21,34.21,0,0,0-10.6-1.5c-6.4.1-14.9,0-18.2.4a2.42,2.42,0,0,1-1-.6c-1.8-.1-2.7.3-4.1,0v.9c-2.9.5-5.2-.7-8.6-.4,1.1,1.1-.3,2.1-3.8,1.8a2.09,2.09,0,0,1-1.7.6c-2-.4-7.1-.3-8.6.4-4.5.2-6.8-.6-9.3-.4.1-.2.5-.3.3-.6-1.3-.2-.5.6-1.7.4-.4-.6-3-.3-4.1-.6-1.6.8-3.3.8-5.2,1.3-.5,0-.3-.4-1-.3-1.7.9-6.6.7-10.6,1v.7c2.2,0,4-.2,6.5-.1-.2-.5.3-.7,1.4-.6-.6.3,0,.2,0,.6.6,0,1.7-.1,1.4.3h-.2c-.8.7-2.8.7-2.9,1.4a8.47,8.47,0,0,1-3.6-.2c-.5.1-.1.6-.7.6l-3-.3v1.4c-.1,0-.1,0-.2.1-1.7-.9-3.8-.9-5.6-1.2-1.6-.3-2.1-1-3.3-1.2,0,0-.2.3-.3.3a17,17,0,0,1-2.8-.4c-2.4,0-4.5.4-7,.1.1.2-.2.8.2.7.2-.5.6,0,1-.3.1.5.7.6.5,1.3a8.52,8.52,0,0,0-2.3-.3c-.4-1.3-2-.7-2.8-.1.3,0-.3.5-.5.6-2.1-.2-3,1-4,.4.1,0,.2.1.2.3-2.1.4-2.8-.1-4.9-.4a12,12,0,0,1-3.5.9c-2.4,2-7.5.7-10.1.6-.1.4.3.3.2.7-.3-.4-1.6.1-1.9-.3,0-.4,0-.8.3-.9a2.42,2.42,0,0,1,1,.6c.2-.4,0-.3.2-.7-1.1.1-1.2-.8-1.7-.7.5-.2-.1-.7-.2-.9-1.2.7-1.7.6-3.3.6,0,.9-.7.2-1,.9.5-.1-.4.6.2.6.6-.5.3.4,1,.4a3.83,3.83,0,0,0-3.3,1.2,5.35,5.35,0,0,1-4.2-1.8,15.48,15.48,0,0,1-3.3-.3c-.1,0-.2.3-.5.3-.6-.1-1.4,0-2.3-.1-3.6-.5-8.5-.8-11.7-1-1.1-.1-2.1.5-2.6-.1,0,.2.1.5-.2.6-1.1-.3-2.6-.2-2.6-1.3,1.3-.4,1.4-.5,1.9-.4-1.3-2.2-6.8.4-7.8-2.2-.5.4-1.2-.1-1.6.6a15.69,15.69,0,0,0-1.6-.3c.1.9-.9.7-1.4.4-.4.8-1.9,0-3.3.3.2.4-.1.5,0,1.2-2,1-2.9-.8-4.7,0a16.3,16.3,0,0,0-5.4,0c-.1.3.3.4,0,.4-.4.2-1.9-.2-1.5-.2-1.6-.1-2.9.3-4.4.2-2.1-.2-4.4-1.3-6.8-1.3-1.3,0-2.3.4-3.7.1,0-.4-.5-.2-1-.4.2.7-1,.4-1.2.7a.47.47,0,0,1,.1.6,3.77,3.77,0,0,1-1.9-1c1.1-.3,1.1-.6,1-1.5,1.3-.3,4-.5,2.7-1a25.6,25.6,0,0,0,4.8,0c-1.2-.3-.2-.6,0-1-1.3,0-.9-.7-2.7-.4.3.9-2,.6-2.7,1,.4,0,.5.2.7.3-2.5,0-10.4.4-10.6-1.5,2.4-1.7-.1-3-3.4-4,.3-.8,0-1.4-.7-2.2-1.4.2-2.3-.3-3.1,0-.3.5,1.1.2,1,.6-4.6-.2-8.2,1.3-11.7.6-2.2.5-4.9-.1-6.2,1.2.6.2,1.8.2,1.4.9-7.2,1.2-17.1-.2-22,.3.3,0,.7,0,.7.1-1.8,0-4.9-.6-5.5.3-2.4-.5-4.6,0-6.2-.1.8.2-.2,1.4-.3,1.5.3-.6-1.5-.2-1-.9a50.41,50.41,0,0,0-10.6-1.3c-.8,0-1.4.5-2.1,0-.8.2.4.6-.3.6-1.6-.5-1.7.1-3.4-.1,1.4,1.1,7,1.1,8.9,1-.3.5.4.6.7.9a8.86,8.86,0,0,1,5.2,1.2h-1.7c-.1.6.5,0,1.4.1q-.6.3,0,.6c-.8-.4-1.5.1-2.7,0-.8-.3-1.1-1.5-2.4-1a6.21,6.21,0,0,1,1,.3c-1.8,0-.3,0-.3.4-1.3-.2-.7.4-1.7.3-.8-.8-2.9-.9-4.1-1.5-1.2.3-5.1.3-7.9.7.8-.4-.4-.7-1-.9-1.3.9-3,.3-4.5.7h.1a21.75,21.75,0,0,0-2.6-.1c.1-.1.2-.1.1-.2a10.88,10.88,0,0,1-5.5-1.6c.5.1.3.5,1.4.3,0-.2-.2-.3-.3-.4,1.1.2.8-.2,1.4-.3-.3.4.8.3,1.4.3,0-.4-.7-.5.3-.6,2.9.3,6.8.8,9.6,1.3,2.3-.5.6-1,0-1.8a3,3,0,0,0-2.1.3c-3.7-.9-10.6.3-14.8-1.2-3.3.8-4.2.6-7.9.4a2,2,0,0,1-1.4.7c.1-.3,1-.3.7-.7H1031c.1.5-1,.7-2.1.7.2,1.3,1.9,1.6,3.4,1.2a2.26,2.26,0,0,1-1.7.6c-.3-.1-.7-.3-1-.4a23.59,23.59,0,0,1-3.1.4c0,.4.7.5-.3.6V5.5c-1.9.3-3.6,0-3.1.6-.9-.4-6.5-1-5.1-.1-3,.1-2.3.1-4.8.1.7-.4-1.8-.2-3.1-.1-1.3-.9-4.7-.5-6.9-.7.1.4-.5.5-1,.6-4-.4-7.2-1.3-12-.6-.1-.1,0-.3-.3-.3-.1,1.5,3.6,1.3,5.5,1.9,0-.9,5.3.3,5.5-.9h2.4c-.3.4.7.3.7.6,2.9-.2,5,.4,7.2.3-.3.2-1.7,0-1.4.4.8-.1,3.8,0,1.7-.4a22.32,22.32,0,0,1,4.1.6c.1-.2-.1-.4.3-.4.3.4,1.2.5,2.1.6-.1.7-1.5,1.2-4.1,1a2.09,2.09,0,0,1-1.7.6,23.43,23.43,0,0,0-6.5,0c-.2-.1-.5-.1-.7-.2-1.5,1-4.1.1-5.5.4.2-.7-.7-.4-1-.1-.6-.3.2-.3,0-.7-1.5-.3-3-.7-3.4-1.5-.5.3-1.5.4-2.1.7,0-.3-.9-.3-1.7-.3-1,.2-.1.5-1.4.7-1.5,0-3.1.1-3.8-.3.1-.5,1.3-.6,2.1-.9-.2-.5.4-.5.3-.9a52,52,0,0,0-7.2-.4c0-.2.4-.2.3-.4-1.7-.1-2.9,0-3.1.6.4,0,1,0,1,.1-1.5.7-3.6-.2-5.2.1.4,0,.8.2.3.3-.1-.3-2.1,0-1-.4-3.8-.3-9.3-.1-6.9,1-1.9.8-7.7-.7-8.6.4.2,0,2.1.8,2.7.2.8.3,1,.8,2.1.9-.5-.4.9-.7,1-.3-1,.1-.2,1.4-.7,1.6.9-.4,1,0,.7.4h1.4c-.8-.6,1.8-1.1.3-2.2a3.75,3.75,0,0,0,2.1,0c0,.5,1.1.5,1,1a3.71,3.71,0,0,1,2.7.4c.3-.3-1-.5,0-.6.7,0,.7.4,1,.6-1.3.2-3.8-.1-4.1.6a.45.45,0,0,1,0,.9c-1.6-.5-4.8.2-4.8-.9-.6-.1-.9.2-1,0s0-.3-.3-.3c0,1.1-2.4,1.1-4.8,1-.3.5-2,.5-1.7.9-1.4-.9-3.4.3-4.9.1.2.1-1.3.1-1.3.2.1-.9-3.5-.5-3.8-.4,1,.1-1.1.1,0,.4-.7,0-1.1.1-1.5.1v2.3a1.27,1.27,0,0,1-.6-.1c.1,0,.2.1.2.3-2.1.4-2.8-.1-4.9-.4-.1,0-.2.1-.3.1V13.1a2.92,2.92,0,0,1-.9-.2c1.5-.4-.4-1-1.7-1-.2,1-3.5-.3-4.5.1,1.5.1-1.3.6-2.7.4.1-.7-3-.3-3.1-1.3,1,.5.3-.5,1.4-.4.6.4,2.4.3,3.1.6.1-1,1.6,0,2.4,0,.2-.4.1-.5,1.4-.1.3-.4,1-.5,2.1-.6-.7.3.4.8,1.7.7l.9-.3V9.4a37.26,37.26,0,0,1-4.7.1c-1.8,1.3-8-.2-11-.1-1.8.8-4.1.2-6.9.6-.8.2.4.4-.3.4-2.1-.5-3.9-1.2-4.5-2.4-8.3-1.1-18.6.5-26.4-.6-.2.9-3.9,0-2.7.7-4.2-.4-4.9,2-9.3,1.2-.1.2.1.4-.3.4-1.1-.6-2.8-.4-4.1-.4.8-.4.5-.7.7-1.5a34.21,34.21,0,0,0-10.6-1.5c-6.4.1-14.9,0-18.2.4a2.42,2.42,0,0,1-1-.6h-.3c-.6-.8-2.2-1.4-4.1-2,.3-.8,0-1.4-.7-2.2-1.4.2-2.3-.3-3.1,0-.3.5,1.1.2,1,.6-4.6-.2-8.2,1.3-11.7.6-2.2.5-4.9-.1-6.2,1.2.6.2,1.8.2,1.4.9-7.2,1.2-17.1-.2-22,.3.3,0,.7,0,.7.1-1.8,0-4.9-.6-5.5.3-2.4-.5-4.6,0-6.2-.1.8.2-.2,1.4-.3,1.5.3-.6-1.5-.2-1-.9a50.41,50.41,0,0,0-10.6-1.3c-.8,0-1.4.5-2.1,0-.8.2.4.6-.3.6-1.6-.5-1.7.1-3.4-.1,1.4,1.1,7,1.1,8.9,1-.3.5.4.6.7.9a8.86,8.86,0,0,1,5.2,1.2h-1.7c-.1.6.5,0,1.4.1q-.6.3,0,.6c-.8-.4-1.5.1-2.7,0-.8-.3-1.1-1.5-2.4-1a6.21,6.21,0,0,1,1,.3c-1.8,0-.3,0-.3.4-1.3-.2-.7.4-1.7.3-.8-.8-2.9-.9-4.1-1.5-1.2.3-5.1.3-7.9.7.8-.4-.4-.7-1-.9-1.3.9-3,.3-4.5.7.5.1,1.1.2,1,.6-2.1.2-1.9-1-3.8-.4,0-.2.4-.2.3-.4a10.88,10.88,0,0,1-5.5-1.6c.5.1.3.5,1.4.3,0-.2-.2-.3-.3-.4,1.1.2.8-.2,1.4-.3-.3.4.8.3,1.4.3,0-.4-.7-.5.3-.6,2.9.3,6.8.8,9.6,1.3,2.3-.5.6-1,0-1.8a3,3,0,0,0-2.1.3c-3.7-.9-10.6.3-14.8-1.2-3.3.8-4.2.6-7.9.4a2,2,0,0,1-1.4.7c.1-.3,1-.3.7-.7h-1.7c.1.5-1,.7-2.1.7.2,1.3,1.9,1.6,3.4,1.2a2.26,2.26,0,0,1-1.7.6c-.3-.1-.7-.3-1-.4a23.59,23.59,0,0,1-3.1.4c0,.4.7.5-.3.6V7.4c-1.9.3-3.6,0-3.1.6-.9-.4-6.5-1-5.1-.1-3,.1-2.3.1-4.8.1.7-.4-1.8-.2-3.1-.1-1.3-.9-4.7-.5-6.9-.7.1.4-.5.5-1,.6-4-.4-7.2-1.3-12-.6-.1-.1,0-.3-.3-.3-.1,1.5,3.6,1.3,5.5,1.9,0-.9,5.3.3,5.5-.9h2.4c-.3.4.7.3.7.6,2.9-.2,5,.4,7.2.3-.3.2-1.7,0-1.4.4.8-.1,3.8,0,1.7-.4a22.32,22.32,0,0,1,4.1.6c.1-.2-.1-.4.3-.4.4.7,2.5.5,3.4.6,0,.2-.6.1-.7.3,2.8-.1,3.3.4,5.1.3.2,1,2.6,1.4,3.4,2.5a5.31,5.31,0,0,0-1.4.1v-.6c-6.5.8-13.8-.5-18.5-.4-.4-.5-1.5-.6-2.4-.9-1.5,1-4.1.1-5.5.4.2-.7-.7-.4-1-.1-.6-.3.2-.3,0-.7-1.5-.3-3-.7-3.4-1.5-.5.3-1.5.4-2.1.7,0-.3-.9-.3-1.7-.3-1,.2-.1.5-1.4.7-1.5,0-3.1.1-3.8-.3.1-.5,1.3-.6,2.1-.9-.2-.5.4-.5.3-.9a52,52,0,0,0-7.2-.4c0-.2.4-.2.3-.4-1.7-.1-2.9,0-3.1.6.4,0,1,0,1,.1-1.5.7-3.6-.2-5.2.1.4,0,.8.2.3.3-.1-.3-2.1,0-1-.4-3.8-.3-9.3-.1-6.9,1-1.6.7-6.2-.3-8,.1-.2-.2.4-.5.5-.8-1.3,0-.9-.7-2.7-.4.3.9-2,.6-2.7,1,.4,0,.5.2.7.3-2.5,0-10.4.4-10.6-1.5,2.4-1.7-.1-3-3.4-4,.3-.8,0-1.4-.7-2.2-1.4.2-2.3-.3-3.1,0-.3.5,1.1.2,1,.6-4.6-.2-8.2,1.3-11.7.6-2.2.5-4.9-.1-6.2,1.2.6.2,1.8.2,1.4.9-7.2,1.2-17.1-.2-22,.3.3,0,.7,0,.7.1-1.8,0-4.9-.6-5.5.3-2.4-.5-4.6,0-6.2-.1.8.2-.2,1.4-.3,1.5.3-.6-1.5-.2-1-.9a50.41,50.41,0,0,0-10.6-1.3c-.8,0-1.4.5-2.1,0-.8.2.4.6-.3.6-1.6-.5-1.7.1-3.4-.1,1.4,1.1,7,1.1,8.9,1-.3.5.4.6.7.9a8.86,8.86,0,0,1,5.2,1.2h-1.7c-.1.6.5,0,1.4.1q-.6.3,0,.6c-.8-.4-1.5.1-2.7,0-.8-.3-1.1-1.5-2.4-1a6.21,6.21,0,0,1,1,.3c-1.8,0-.3,0-.3.4-1.3-.2-.7.4-1.7.3-.8-.8-2.9-.9-4.1-1.5-1.2.3-5.1.3-7.9.7.8-.4-.4-.7-1-.9-1.3.9-3,.3-4.5.7.5.1,1.1.2,1,.6-2.1.2-1.9-1-3.8-.4,0-.2.4-.2.3-.4a10.88,10.88,0,0,1-5.5-1.6c.5.1.3.5,1.4.3,0-.2-.2-.3-.3-.4,1.1.2.8-.2,1.4-.3-.3.4.8.3,1.4.3,0-.4-.7-.5.3-.6,2.9.3,6.8.8,9.6,1.3,2.3-.5.6-1,0-1.8a3,3,0,0,0-2.1.3c-3.7-.9-10.6.3-14.8-1.2-3.3.8-4.2.6-7.9.4a2,2,0,0,1-1.4.7c.1-.3,1-.3.7-.7h-1.7c.1.5-1,.7-2.1.7.2,1.3,1.9,1.6,3.4,1.2a2.26,2.26,0,0,1-1.7.6c-.3-.1-.7-.3-1-.4a23.59,23.59,0,0,1-3.1.4c0,.4.7.5-.3.6V6.9c-1.9.3-3.6,0-3.1.6-.9-.4-6.5-1-5.1-.1-3,.1-2.3.1-4.8.1.7-.4-1.8-.2-3.1-.1-1.3-.9-4.7-.5-6.9-.7.1.4-.5.5-1,.6-4-.4-7.2-1.3-12-.6-.1-.1,0-.3-.3-.3-.1,1.5,3.6,1.3,5.5,1.9,0-.9,5.3.3,5.5-.9h2.4c-.3.4.7.3.7.6,2.9-.2,5,.4,7.2.3-.3.2-1.7,0-1.4.4.8-.1,3.8,0,1.7-.4a22.32,22.32,0,0,1,4.1.6c.1-.2-.1-.4.3-.4.4.7,2.5.5,3.4.6,0,.2-.6.1-.7.3,2.8-.1,3.3.4,5.1.3.2,1,2.6,1.4,3.4,2.5h-.2a2.35,2.35,0,0,0-1.2-.4v-.1h-.5a9.37,9.37,0,0,1-2.5-.2,3,3,0,0,1-1,.4c-5.4.1-10.8-.7-14.6-.7-.4-.5-1.5-.6-2.4-.9-1.5,1-4.1.1-5.5.4.2-.7-.7-.4-1-.1-.6-.3.2-.3,0-.7-1.5-.3-3-.7-3.4-1.5-.5.3-1.5.4-2.1.7,0-.3-.9-.3-1.7-.3-1,.2-.1.5-1.4.7-1.5,0-3.1.1-3.8-.3.1-.5,1.3-.6,2.1-.9-.2-.5.4-.5.3-.9a52,52,0,0,0-7.2-.4c0-.2.4-.2.3-.4-1.7-.1-2.9,0-3.1.6.4,0,1,0,1,.1-1.5.7-3.6-.2-5.2.1.4,0,.8.2.3.3-.1-.3-2.1,0-1-.4-3.8-.3-9.3-.1-6.9,1-1.9.8-7.7-.7-8.6.4.2,0,2.1.8,2.7.2.8.3,1,.8,2.1.9-.5-.4.9-.7,1-.3-.5,0-.5.3-.5.7-2.6-.1-5.8-.7-7.7-.7-1.8.8-4.1.2-6.9.6-.8.2.4.4-.3.4-2.1-.5-3.9-1.2-4.5-2.4-8.3-1.1-18.6.5-26.4-.6-.2.9-3.9,0-2.7.7-4.2-.4-4.9,2-9.3,1.2-.1.2.1.4-.3.4-1.1-.6-2.8-.4-4.1-.4.8-.4.5-.7.7-1.5a34.21,34.21,0,0,0-10.6-1.5c-6.4.1-14.9,0-18.2.4a2.42,2.42,0,0,1-1-.6,26.28,26.28,0,0,0-3,.1,2.52,2.52,0,0,0-.7-1.9c-1.4.2-2.3-.3-3.1,0-.3.5,1.1.2,1,.6-4.6-.2-8.2,1.3-11.7.6-2.2.5-4.9-.1-6.2,1.2.6.2,1.8.2,1.4.9-7.2,1.2-17.1-.2-22,.3.3,0,.7,0,.7.1-1.8,0-4.9-.6-5.5.3-2.4-.5-4.6,0-6.2-.1.8.2-.2,1.4-.3,1.5.3-.6-1.5-.2-1-.9a50.41,50.41,0,0,0-10.6-1.3c-.8,0-1.4.5-2.1,0-.8.2.4.6-.3.6-1.6-.5-1.7.1-3.4-.1,1.4,1.1,7,1.1,8.9,1-.3.5.4.6.7.9a8.3,8.3,0,0,1,5.1,1.2h-1.7c-.1.6.5,0,1.4.1q-.6.3,0,.6c-.8-.4-1.5.1-2.7,0-.8-.3-1.1-1.5-2.4-1a6.21,6.21,0,0,1,1,.3c-1.8,0-.3,0-.3.4-1.3-.2-.7.4-1.7.3-.8-.8-2.9-.9-4.1-1.5-1.2.3-5.1.3-7.9.7.8-.4-.4-.7-1-.9-1.3.9-3,.3-4.5.7.5.1,1.1.2,1,.6-2.1.2-1.9-1-3.8-.4,0-.2.4-.2.3-.4a10.88,10.88,0,0,1-5.5-1.6c.5.1.3.5,1.4.3,0-.2-.2-.3-.3-.4,1.1.2.8-.2,1.4-.3-.3.4.8.3,1.4.3,0-.4-.7-.5.3-.6,2.9.3,6.8.8,9.6,1.3,2.3-.5.6-1,0-1.8a3,3,0,0,0-2.1.3c-3.7-.9-10.6.3-14.8-1.2-3.3.8-4.2.6-7.9.4a2,2,0,0,1-1.4.7c.1-.3,1-.3.7-.7h-1.7c.1.5-1,.7-2.1.7.2,1.3,1.9,1.6,3.4,1.2a2.26,2.26,0,0,1-1.7.6c-.3-.1-.7-.3-1-.4a23.59,23.59,0,0,1-3.1.4c0,.4.7.5-.3.6V9.9c-1.9.3-3.6,0-3.1.6-.9-.4-6.5-1-5.1-.1-3,.1-2.3.1-4.8.1.7-.4-1.8-.2-3.1-.1-1.3-.9-4.7-.5-6.9-.7.1.4-.5.5-1,.6-4-.4-7.2-1.3-12-.6-.1-.1,0-.3-.3-.3-.1,1.5,3.6,1.3,5.5,1.9,0-.9,5.3.3,5.5-.9h2.4c-.3.4.7.3.7.6,2.9-.2,5,.4,7.2.3-.3.2-1.7,0-1.4.4.8-.1,3.8,0,1.7-.4a22.32,22.32,0,0,1,4.1.6c.1-.2-.1-.4.3-.4.4.7,2.5.5,3.4.6,0,.2-.6.1-.7.3,2.8-.1,3.3.4,5.1.3.1.5.8.9,1.6,1.3h-1c0,.9-.7.2-1,.9.1,0,.2,0,.1.1-5.8.3-12-.7-16.2-.7-.4-.5-1.5-.6-2.4-.9-1.5,1-4.1.1-5.5.4.2-.7-.7-.4-1-.1-.6-.3.2-.3,0-.7-1.5-.3-3-.7-3.4-1.5a2.32,2.32,0,0,1-1,.4c-2-.2-4.7.5-5.8-.9.1-.1.3-.2.3-.4a52,52,0,0,0-7.2-.4c0-.2.4-.2.3-.4-1.7-.1-2.9,0-3.1.6.4,0,1,0,1,.1-1.5.7-3.6-.2-5.2.1.4,0,.8.2.3.3-.1-.3-2.1,0-1-.4-3.8-.3-9.3-.1-6.9,1-1.9.8-7.7-.7-8.6.4a.77.77,0,0,1,.3.1,4.87,4.87,0,0,0-1.2-.1c-1.3,0-2.3.4-3.7.1,0-.4-.5-.2-1-.4.2.7-1,.4-1.2.7a.47.47,0,0,1,.1.6,3.77,3.77,0,0,1-1.9-1c1.1-.3,1.1-.6,1-1.5,1.3-.3,4-.5,2.7-1a25.6,25.6,0,0,0,4.8,0c-1.2-.3-.2-.6,0-1-1.3,0-.9-.7-2.7-.4.3.9-2,.6-2.7,1,.4,0,.5.2.7.3-3.4.3-11.4.6-11.6-1.2,2.4-1.7-.1-3-3.4-4,.3-.8,0-1.4-.7-2.2-1.4.2-2.3-.3-3.1,0-.3.5,1.1.2,1,.6-4.6-.2-8.2,1.3-11.7.6-2.2.5-4.9-.1-6.2,1.2.6.2,1.8.2,1.4.9-7.2,1.2-17.1-.2-22,.3.3,0,.7,0,.7.1-1.8,0-4.9-.6-5.5.3-2.4-.5-4.6,0-6.2-.1.8.2-.2,1.4-.3,1.5.3-.6-1.5-.2-1-.9a50.41,50.41,0,0,0-10.6-1.3c-.8,0-1.4.5-2.1,0-.8.2.4.6-.3.6-1.6-.5-1.7.1-3.4-.1,1.4,1.1,7,1.1,8.9,1-.3.5.4.6.7.9a8.86,8.86,0,0,1,5.2,1.2h-1.7c-.1.6.5,0,1.4.1q-.6.3,0,.6c-.8-.4-1.5.1-2.7,0-.8-.3-1.1-1.5-2.4-1a6.21,6.21,0,0,1,1,.3c-1.8,0-.3,0-.3.4-1.3-.2-.7.4-1.7.3-.8-.8-2.9-.9-4.1-1.5-1.2.3-5.1.3-7.9.7.8-.4-.4-.7-1-.9-1.3.9-3,.3-4.5.7.5.1,1.1.2,1,.6-2.1.2-1.9-1-3.8-.4,0-.2.4-.2.3-.4a10.88,10.88,0,0,1-5.5-1.6c.5.1.3.5,1.4.3,0-.2-.2-.3-.3-.4,1.1.2.8-.2,1.4-.3-.3.4.8.3,1.4.3,0-.4-.7-.5.3-.6,2.9.3,6.8.8,9.6,1.3,2.3-.5.6-1,0-1.8a3,3,0,0,0-2.1.3c-3.7-.9-10.6.3-14.8-1.2-3.3.8-4.2.6-7.9.4a2,2,0,0,1-1.4.7c.1-.3,1-.3.7-.7H87.2c.1.5-1,.7-2.1.7.2,1.3,1.9,1.6,3.4,1.2a2.26,2.26,0,0,1-1.7.6c-.3-.1-.7-.3-1-.4a23.59,23.59,0,0,1-3.1.4c0,.4.7.5-.3.6V7.4c-1.9.3-3.6,0-3.1.6-.9-.4-6.5-1-5.1-.1-3,.1-2.3.1-4.8.1.7-.4-1.8-.2-3.1-.1-1.3-.9-4.7-.5-6.9-.7.1.4-.5.5-1,.6-4-.4-7.2-1.3-12-.6-.1-.1,0-.3-.3-.3-.1,1.5,3.6,1.3,5.5,1.9,0-.9,5.3.3,5.5-.9h2.4c-.3.4.7.3.7.6,2.9-.2,5,.4,7.2.3-.3.2-1.7,0-1.4.4.8-.1,3.8,0,1.7-.4a22.32,22.32,0,0,1,4.1.6c.1-.2-.1-.4.3-.4.4.7,2.5.5,3.4.6,0,.2-.6.1-.7.3,2.8-.1,3.3.4,5.1.3.2,1,2.6,1.4,3.4,2.5a2.76,2.76,0,0,0-1.4.2v-.6c-6.5.8-13.8-.5-18.5-.4-.4-.5-1.5-.6-2.4-.9-1.5,1-4.1.1-5.5.4.2-.7-.7-.4-1-.1-.6-.3.2-.3,0-.7-1.5-.3-3-.7-3.4-1.5-.5.3-1.5.4-2.1.7,0-.3-.9-.3-1.7-.3-1,.2-.1.5-1.4.7-1.5,0-3.1.1-3.8-.3.1-.8,1.2-.9,2-1.1-.2-.5.4-.5.3-.9a52,52,0,0,0-7.2-.4c0-.2.4-.2.3-.4-1.7-.1-2.9,0-3.1.6.4,0,1,0,1,.1-1.5.7-3.6-.2-5.2.1.4,0,.8.2.3.3-.1-.3-2.1,0-1-.4-3.8-.3-9.3-.1-6.9,1-1.6.8-7.4-.7-8.3.4.2,0,2.1.8,2.7.2.8.3,1,.8,2.1.9-.5-.4.9-.7,1-.3-1,.1-.2,1.4-.7,1.6.9-.4,1,0,.7.4h1.4c-.8-.6,1.8-1.1.3-2.2a3.75,3.75,0,0,0,2.1,0c0,.5,1.1.5,1,1a3.71,3.71,0,0,1,2.7.4c.3-.3-1-.5,0-.6.7,0,.7.4,1,.6-1.3.2-3.8-.1-4.1.6a.45.45,0,1,1,0,.9c-1.6-.5-4.8.2-4.8-.9-.6-.1-.9.2-1,0s0-.3-.3-.3c0,1.1-2.4,1.1-4.8,1-.3.5-2,.5-1.7.9-1.4-.9-3.4.3-4.9.1.2.1-1.3.1-1.3.2.1-.9-3.5-.5-3.8-.4,1,.1-1.1.1,0,.4-.7,0-1.1.1-1.5.1v3.4H0V74.1H1919.3V17.3ZM724.3,9.3h-.7c.2-.4.9-.7,2.1-.7C725.5,9,724.6,8.8,724.3,9.3ZM533.2,8.8h-.7c.2-.4.9-.7,2.1-.7C534.4,8.4,533.5,8.2,533.2,8.8ZM270.6,12.1h-.7c.2-.4.9-.7,2.1-.7C271.7,11.7,270.9,11.5,270.6,12.1ZM78.1,9.1h-.7c.2-.4.9-.7,2.1-.7C79.3,8.7,78.5,8.5,78.1,9.1Zm62.2,1v.4c-.5,0-1.3-.1-1.4.1-.4,0-.2-.1,0-.1.1-.2-.1-.3-.3-.3C138.9,10.1,139.2,10.2,140.3,10.1Zm-1.7-1.6c.2-.5.9-.2,1.7-.1,0,.3-.4.3-.3.6C139.2,8.9,139.3,8.5,138.6,8.5Zm3,1.8c.7,0,.1.7,1,.6-.1.2-1.1.1-.7.6a1.91,1.91,0,0,1-1.4-.4C140.2,10.5,141.9,10.8,141.6,10.3Zm2.4,6.4c0,.4-1.9.4-2.4.1C141.8,16.5,143.3,16.8,144,16.7Zm26.8-1.5c.8.2-.6.4.3.6-.7.8-5.4-.4-2.4-.6-.1.2-.7.1-.7.3C168.8,15.9,169.4,15,170.8,15.2Zm71,.3h.3a2.35,2.35,0,0,1,.8.2,2.9,2.9,0,0,1-2.4-.2A2.85,2.85,0,0,1,241.8,15.5ZM332.4,11c-.3,0-.6-.1-1-.1a2.87,2.87,0,0,1,1.2-.2C332.4,10.9,332.4,10.9,332.4,11Zm-1.1.3a8.17,8.17,0,0,1,1.4.1c0,.3-.4.3-.3.6-.7,0-.7-.4-1.4-.4,0-.1.1-.1.1-.2s.1-.1.2-.1Zm38.2,3.2a50.37,50.37,0,0,0-5.5,0,.61.61,0,0,1,.3-.7c-1-1-3,0-4.5-.6V13a8.53,8.53,0,0,1,3.7-.5l.1.1.1-.1C366.6,12.6,369.5,13.4,369.5,14.5Zm-10.9-1.1c-.7.2-.9.6-1.5.9-.9-.1-1.4-.5-2.1,0-.3-.1-.5-.4-.7-.1-.5,0,.6-.7-1-.6v-.4c.6.1,1.1.3,1-.2.6,0,.9.1,1,.3a4.35,4.35,0,0,0,.7-.4,11,11,0,0,1,2.7.2,1.55,1.55,0,0,1-1,.1c.3.4.5.2,1.1.2C358.8,13.3,358.7,13.4,358.6,13.4Zm.8-.4ZM595,8.7c-.7,0-.7-.4-1.4-.4.2-.5.9-.2,1.7-.1C595.4,8.3,594.9,8.4,595,8.7Zm189.7,0c.2-.5.9-.2,1.7-.1,0,.3-.4.3-.3.6C785.4,9.1,785.5,8.8,784.7,8.7Zm296.8-1.5c.2-.5.9-.2,1.7-.1,0,.3-.4.3-.3.6C1082.2,7.6,1082.2,7.2,1081.5,7.2Zm-295,3.5v.2h-.1C786.4,10.8,786.4,10.7,786.5,10.7Zm.3.6c-.3-.4.5-.3.9-.5,0,.1.1.1.1.2h.6c.1.1.2.1.5.1-.1.2-1.1.1-.7.6h0A1.91,1.91,0,0,1,786.8,11.3ZM480,11.3a.35.35,0,0,0-.2.1c-.1,0-.1.1-.2.1h.2a.35.35,0,0,0,.2.1c.2.3.1.7-.3.7-1.6-.5-4.7.2-4.8-.9a.76.76,0,0,1,.4.1v.1h.2a5.27,5.27,0,0,0,1.2.3c.2-.4.1-.5,1.4-.1C478.2,11.6,478.9,11.4,480,11.3Zm-5.2.3h0ZM239.3,16.4a1.27,1.27,0,0,0-.6-.1,1.38,1.38,0,0,1,.4-.3C239.3,16,239.3,16.2,239.3,16.4Zm1337-7.5v.4c-.5,0-1.3-.1-1.4.2-.4,0-.2-.2,0-.2.1-.2-.1-.3-.3-.3C1574.9,8.9,1575.3,9,1576.3,8.9Zm-1.7-1.7c.2-.5.9-.2,1.7-.1,0,.3-.4.3-.3.6C1575.3,7.6,1575.3,7.3,1574.6,7.2Zm3.1,1.8c.7,0,.1.7,1,.6-.1.2-1.1.1-.7.6a1.91,1.91,0,0,1-1.4-.4C1576.3,9.2,1578,9.5,1577.7,9ZM1892,11c.3,0,.3-.2.7-.1,0-.3-.9-.2-.7-.6.6.2,1.7,0,2.7.3-.9.5-3,.4-3.1.9-1.6.1-.5-.6-1-.6C1890.7,10.5,1891.6,11,1892,11Zm-31.9,5.9a1.61,1.61,0,0,0,.7.4h-2.3l-.1-.1C1858.7,16.8,1860.1,17.6,1860.1,16.9Zm-22-9.7c0,.2-.2.6.3.6-1.2.9-5.3.6-5.5-.4C1834.1,6.5,1836.2,6.9,1838.1,7.2Zm-32.6,6.3c-2,.5-6.8.3-7.9-.6-1,0-.7.5-2.1.3,1.1-.3.4-.7.3-1.5C1799,10.4,1806.4,11.7,1805.5,13.5ZM1789,11.9c.7-.1,1.5.5,1.4-.1.6,0,.9.1,1,.3a4.35,4.35,0,0,0,.7-.4c1.5-.1,1.9.3,3.4.1-.7.5-2.2.7-1.4,1.5-.7.2-1.2-.2-1,.6a7.52,7.52,0,0,1-4.3-1c0-.2-.1-.4-.1-.6A.54.54,0,0,0,1789,11.9Zm-16.6-1.7c-.6.4-1.4.2-2.3.1C1771,10.3,1771.8,10.2,1772.4,10.2Zm-30.7,1.2v.1h-.9C1741,11.3,1741.3,11.6,1741.7,11.4Zm-106,.8a1.38,1.38,0,0,0-.4.3h-.1C1635.4,12.4,1635.5,12.3,1635.7,12.2Zm-46-4.8c-.1-.3,1.2-.4,1.7-.9.7,0,.1.7.7.7s.3-.4.3-.6c1,.1.9-.2,1.7-.1,2,1.1,3.8.5,6.2.7-.4-.9-1.1-.2-1-1,1.9.4,3.2.1,5.2.4-.1.7-1,.4-1.7.6a4.37,4.37,0,0,0,2.4.6c.4,0,.3-.3,0-.3.5-.3,1.8.4,2.1.7.9-.6,6.3-.7,6.2-.1,3.5-.3,4.7,1.5,7.6,1.9-.2.1-.4.3,0,.3,0,.1-1.8.1-.7.4a75.65,75.65,0,0,0-12.7-.6.61.61,0,0,1,.3-.7c-1.1-1.1-3.4.2-4.8-.7-1-.1-.9.2-1.7.1.3.4.5.2,1.4.1-1.1.2-1.3.7-2.1,1-.9-.1-1.4-.5-2.1,0-.3-.1-.5-.4-.7-.1-.5,0,.6-.7-1-.6,0-.4-.1-.7.3-.9-2.2.1-4.3-.5-7.2-.4.7-.3.1-.6-1-.4C1589.1,7.4,1589.5,7.4,1589.7,7.4Zm-8.2-1.5a5.48,5.48,0,0,0,2.1.3c-.6.2.2,1-1.4.7.6-.5,0-.5-1.4-.4.2-.1.3-.3.7-.3-.2-.1-.4-.2-.3-.4S1581.5,5.8,1581.5,5.9Zm-8.9-.3c.9.2,1.7-.4,1-.4,1.1-.4,4.7.1,3.8.6,1-.6,2.4,0,3.4.3-.1.6-.8.8-1.4,1.2a27.38,27.38,0,0,0-4.8-.6c-.1-.3.3-.3.7-.3C1574.7,6.2,1572.1,6.6,1572.6,5.6Zm-45.7-.7c.5.1.5.3,1,.3,0,.2-1.5.3-.3.4-.3.3-.6,0-1,0C1526.8,5.4,1527,5.2,1526.9,4.9Zm-90.8,8.4c0,.4-.3.5-.3.7a.62.62,0,0,0,.7.3V15h0a1.51,1.51,0,0,0-1.2-.1c-.2-.1-.3-.1-.5-.2.3-.1.2-.6.6-.3,0-.2,0-.4.2-.4-.4,0-.6-.7-.7-.4-.5,0,.4-.4-.3-.3C1435.1,13,1435.6,13.3,1436.1,13.3Zm-1.6,1.3a1.38,1.38,0,0,1-.4-.3c-.4,0-.7-.1-1.1-.1a7.58,7.58,0,0,0,1.6-.3C1434.8,14.1,1434.5,14.2,1434.5,14.6Zm-.2-1.5c.1.3-.5.2-.5.4-.2,0-.1-.1,0-.1,0-.3-.7-.1-1-.1C1433.2,12.8,1433.5,13.2,1434.3,13.1ZM1345,7.2c0,.2-.2.6.3.6-1.2.9-5.3.6-5.5-.4C1341,6.4,1343.2,6.9,1345,7.2Zm-35.8,4.2c-.2.1-.3.1-.5.2a22.11,22.11,0,0,0-2.5-.5A15.26,15.26,0,0,1,1309.2,11.4Zm-29.9-1.3c-.6.4-1.4.2-2.3.1C1277.9,10.2,1278.7,10.1,1279.3,10.1ZM1218.8,15c0,.6-1.1.2-1.4.1C1217.7,15,1218.5,14.7,1218.8,15Zm-15,.8c.2.9-.8.6-.5,1.5a.37.37,0,0,0-.3.1h-.5c-.1-.2.2-.5-.5-.4.4-.3.1-.6-.5-.4C1201.8,15.5,1202.7,16,1203.8,15.8Zm-17.4-1.2c-.7,1.5-3,.6-4.7.3C1182.2,14,1184.9,13.8,1186.4,14.6Zm-43.8-2.5c-.2.1-.4.3-.4.4,0-.1,0-.1-.1-.1A2.19,2.19,0,0,0,1142.6,12.1Zm-5,1.3c.1.9,1.1,1.9-.2,2.4-4.4.3-7.6-.6-8.8-1.9A29.56,29.56,0,0,1,1137.6,13.4Zm-41-6.1c-.1-.3,1.2-.4,1.7-.9.7,0,.1.7.7.7s.3-.4.3-.6c1,.1.9-.2,1.7-.1,2,1.1,3.8.5,6.2.7-.4-.9-1.1-.2-1-1,1.9.4,3.2.1,5.2.4-.1.7-1,.4-1.7.6a4.37,4.37,0,0,0,2.4.6c.4,0,.3-.3,0-.3.5-.3,1.8.4,2.1.7.9-.6,6.3-.7,6.2-.1,3.5-.3,4.6,1.5,7.5,1.9-1.3.1-2.5.1-3.7.1l-.6.3c-2.6-.2-5.4-.3-7.8-.3-.4,0-.8-.1-1.2-.1,0-.3.1-.4.4-.6-1.1-1.1-3.4.2-4.8-.7-1-.1-.9.2-1.7.1.3.4.5.2,1.4.1-1.1.2-1.3.7-2.1,1-.9-.1-1.4-.5-2.1,0-.3-.1-.5-.4-.7-.1-.5,0,.6-.7-1-.6,0-.4-.1-.7.3-.9-2.2.1-4.3-.5-7.2-.4.7-.3.1-.6-1-.4C1096,7.3,1096.4,7.4,1096.6,7.3Zm-8.2-1.5a5.48,5.48,0,0,0,2.1.3c-.6.2.2,1-1.4.7.6-.5,0-.5-1.4-.4.2-.1.3-.3.7-.3-.2-.1-.4-.2-.3-.4C1088.4,5.7,1088.4,5.7,1088.4,5.8Zm-8.9-.3c.9.2,1.7-.4,1-.4,1.1-.4,4.7.1,3.8.6,1-.6,2.4,0,3.4.3-.1.6-.8.8-1.4,1.2a27.38,27.38,0,0,0-4.8-.6c-.1-.3.3-.3.7-.3C1081.6,6.1,1079.1,6.5,1079.5,5.5Zm-45.7-.7c.5.1.5.3,1,.3,0,.2-1.5.3-.3.4-.3.3-.6,0-1,0A.52.52,0,0,0,1033.8,4.8ZM1022.5,7c-.2.3-.8.2-1.2.6-.2,0-.4-.1-.6-.1A3.22,3.22,0,0,1,1022.5,7Zm-43.6-.6c.1-.2.9-.1,1.4-.1-.2.1-.5.4,0,.4-.1.2-.9.1-1.4.1C978.8,6.6,979.5,6.5,978.9,6.4Zm-6.2,1.7c.6,0,1,.8,1.7.3.7-.3-.3.5.3.7.4-.2.9-.1.3,0-.1.4,1.6-.1,1,.4,1.1.1.7-.4,1.7-.3-.5.3.2.4-.3.9-2.2.2-2.7-.3-4.1-.4-.5-.8-.2-1-1.4-1.5C972.1,8,972.6,8.3,972.7,8.1ZM972,9.7c.1-.2,1.1.4,1,.7-.5.1-.8-.6-1-.1C971.1,10.3,972.5,10,972,9.7Zm-61,2.2c.3,0,.3-.2.7-.1,0-.3-.9-.2-.7-.6.6.2,1.7,0,2.7.3-.9.5-3,.4-3.1.9-1.6.1-.5-.6-1-.6C909.8,11.4,910.6,11.9,911,11.9ZM857.1,8.2c0,.2-.2.6.3.6-.9.7-3.5.7-4.8.2a.1.1,0,0,1,.1-.1h-.3a.82.82,0,0,1-.5-.5C853.1,7.5,855.3,7.9,857.1,8.2ZM804.3,8c2,1.1,3.8.5,6.2.7-.4-.9-1.1-.2-1-1,1.9.4,3.2.1,5.2.4-.1.7-1,.4-1.7.6a4.88,4.88,0,0,0,.7.3,7.14,7.14,0,0,0-2.1.5c-4.5.2-6.8-.6-9.3-.4.1-.2.4-.3.4-.5s0-.3.1-.5C803.6,8.3,803.5,7.9,804.3,8Zm-2.3.5c-.5.1-.2.5-1.2.4a.6.6,0,0,0-.6-.3c.4-.2,1.1-.3,1.4-.6C802,8,801.9,8.3,802,8.5ZM791.6,7.4a5.48,5.48,0,0,0,2.1.3c-.6.2.2,1-1.4.7.6-.5,0-.5-1.4-.4.2-.1.3-.3.7-.3-.2-.1-.4-.2-.3-.4C791.6,7.2,791.6,7.3,791.6,7.4Zm-8.9-.3c.9.2,1.7-.4,1-.4,1.1-.4,4.7.1,3.8.6,1-.6,2.4,0,3.4.3-.1.6-.8.8-1.4,1.2a27.38,27.38,0,0,0-4.8-.6c-.1-.3.3-.3.7-.3C784.8,7.7,782.3,8.1,782.7,7.1ZM737,6.4c.5.1.5.3,1,.3,0,.2-1.5.3-.3.4-.3.3-.6,0-1,0C737,6.9,737.1,6.7,737,6.4ZM730.8,12a3,3,0,0,0,1.4.1v.3a1.64,1.64,0,0,1-1,.1.16.16,0,1,0-.3-.1C730.3,12.4,731,12.3,730.8,12ZM682.1,8c.1-.2.9-.1,1.4-.1-.2.1-.5.4,0,.4-.1.2-.9.1-1.4.1C682,8.2,682.7,8.1,682.1,8Zm-6.2,1.6c.6,0,1,.8,1.7.3.7-.3-.3.5.3.7.4-.2.9-.1.3,0-.1.4,1.6-.1,1,.4,1.1.1.7-.4,1.7-.3-.5.3.2.4-.3.9-2.2.2-2.7-.3-4.1-.4-.5-.8-.2-1-1.4-1.5C675.3,9.6,675.8,9.9,675.9,9.6Zm-.7,1.7c.1-.2,1.1.4,1,.7-.5.1-.8-.6-1-.1C674.3,11.8,675.7,11.6,675.2,11.3Zm-21.1-.9c1.3-.3,4-.5,2.7-1a23.47,23.47,0,0,0,3.7.1c.4.1,2.1.8,2.7.1.8.3,1,.8,2.1.9-.5-.4.9-.7,1-.3-1,.1-.2,1.4-.7,1.6.9-.4,1,0,.7.4h1.4c-.8-.6,1.8-1.1.3-2.2a3.75,3.75,0,0,0,2.1,0c0,.5,1.1.5,1,1a3.71,3.71,0,0,1,2.7.4c.3-.3-1-.5,0-.6.7,0,.7.4,1,.6-1.3.2-3.8-.1-4.1.6a.43.43,0,0,1,.4.6h-.8c-.1,0-.1.1-.2.1-1.7-.2-4.2.2-4.2-.8-.6-.1-.9.2-1,0s0-.3-.3-.3c0,.3-.1.4-.4.6a12.76,12.76,0,0,0-3.4-.6c-1.3,0-2.3.4-3.7.1,0-.4-.5-.2-1-.4.2.7-1,.4-1.2.7a.47.47,0,0,1,.1.6,3.77,3.77,0,0,1-1.9-1C654.2,11.7,654.2,11.3,654.1,10.4Zm-45.4-2c-.1-.3,1.2-.4,1.7-.9.7,0,.1.7.7.7s.3-.4.3-.6c1,.1.9-.2,1.7-.1,2,1.1,3.8.5,6.2.7-.4-.9-1.1-.2-1-1,1.9.4,3.2.1,5.2.4-.1.7-1,.4-1.7.6a4.37,4.37,0,0,0,2.4.6c.4,0,.3-.3,0-.3.5-.3,1.8.4,2.1.7.9-.6,6.3-.7,6.2-.1,3.3-.3,4.5,1.3,7,1.8-4.3,0-8.7.3-12.8.2-.1-.3.1-.5.4-.7-1.1-1.1-3.4.2-4.8-.7-1-.1-.9.2-1.7.1.3.4.5.2,1.4.1-1.1.2-1.3.7-2.1,1-.9-.1-1.4-.5-2.1,0-.3-.1-.5-.4-.7-.1-.5,0,.6-.7-1-.6,0-.4-.1-.7.3-.9-2.2.1-4.3-.5-7.2-.4.7-.3.1-.6-1-.4C608.1,8.4,608.5,8.4,608.7,8.4Zm-8.2-1.5a5.48,5.48,0,0,0,2.1.3c-.6.2.2,1-1.4.7.6-.5,0-.5-1.4-.4.2-.1.3-.3.7-.3-.2-.1-.4-.2-.3-.4C600.5,6.7,600.5,6.8,600.5,6.9Zm-8.9-.3c.9.2,1.7-.4,1-.4,1.1-.4,4.7.1,3.8.6,1-.6,2.4,0,3.4.3-.1.6-.8.8-1.4,1.2a27.38,27.38,0,0,0-4.8-.6c-.1-.3.3-.3.7-.3C593.7,7.1,591.2,7.6,591.6,6.6Zm-45.7-.8c.5.1.5.3,1,.3,0,.2-1.5.3-.3.4-.3.3-.6,0-1,0C545.9,6.4,546,6.2,545.9,5.8Zm-6.2,5.7a3,3,0,0,0,1.4.1v.3a1.64,1.64,0,0,1-1,.1c.1-.2-.1-.2-.2-.2v-.1h-.3C539.7,11.7,539.8,11.6,539.7,11.5Zm-34.3.6c1.1.7-2.6.7-2.4-.1C504.6,12.1,504.5,12.5,505.4,12.1Zm-6.2.3c-.3.5.5.5.7.1.9.1-.8.7.7.7.7,0,.2-.5.3-.7,1.1-.1,1.1.3,1,.7-1.6-.1-1,.7-.3.7-.6.2-4.1-.3-5.1.1-.6-.1-.4-.6-.7-.9C497.8,13.3,497.3,12.6,499.2,12.4ZM491,7.5c.1-.2.9-.1,1.4-.1-.2.1-.5.4,0,.4-.1.2-.9.1-1.4.1C490.9,7.7,491.6,7.5,491,7.5Zm-6.2,1.6c.6,0,1,.8,1.7.3.7-.3-.3.5.3.7.4-.2.9-.1.3,0-.1.4,1.6-.1,1,.4,1.1.1.7-.4,1.7-.3-.5.3.2.4-.3.9-2.2.2-2.7-.3-4.1-.4-.5-.8-.2-1-1.4-1.5C484.2,9,484.7,9.4,484.8,9.1Zm-.7,1.6c.1-.2,1.1.4,1,.7-.5.1-.8-.6-1-.1C483.2,11.3,484.6,11.1,484.1,10.7Zm-.3.3a3.75,3.75,0,0,1-1.1.1V11h.1c.1-.1,0-.2-.1-.3v-.3h.1C483.4,10.5,483.4,10.8,483.8,11ZM479,9.5c0,.1.1.2.2.3H478l-.6.3c0-.2-.2-.4-.4-.6A3.39,3.39,0,0,0,479,9.5Zm-7.9,2a5.58,5.58,0,0,0,2.1.4,6,6,0,0,1-3.1.5.66.66,0,0,1-.4-.5C470.7,12.4,470,11.4,471.1,11.5Zm-15.2.7c.3,0,.3-.2.7-.1,0-.3-.9-.2-.7-.6.6.2,1.7,0,2.7.3-.9.5-3,.4-3.1.9-1.6.1-.5-.6-1-.6C454.7,11.7,455.5,12.2,455.9,12.2ZM402,8.5c0,.2-.2.6.3.6-1.2.9-5.3.6-5.5-.4C398,7.8,400.2,8.2,402,8.5ZM328.9,9.9c.9.2,1.7-.4,1-.4,1.1-.4,4.7.1,3.8.6a1.88,1.88,0,0,1,1.5-.2c-1.1.5-3.3.6-5.7.7C329.1,10.4,328.8,10.2,328.9,9.9Zm-45.6-.8c.5.1.5.3,1,.3,0,.2-1.5.3-.3.4-.3.3-.6,0-1,0A.56.56,0,0,0,283.3,9.1Zm-4.8,5.8v.3c-.2,0-.3.1-.6.1a.9.9,0,0,1-.5-.1c0-.1-.1-.1-.2-.1s-.1-.1-.2-.1c.1-.1.1-.1.1-.2A5.31,5.31,0,0,0,278.5,14.9Zm-50.2-4.2c.1-.2.9-.1,1.4-.1-.2.1-.5.4,0,.4-.1.2-.9.1-1.4.1C228.2,10.9,228.9,10.8,228.3,10.7Zm-6.2,1.7c.6,0,1,.8,1.7.3.4-.2.2.1.1.4h-.1a8.81,8.81,0,0,0-1.7-.2c-.1-.1-.4-.2-.7-.4C221.6,12.3,222.1,12.7,222.1,12.4Zm-5.8.4c0,.3.5.5.8.7-.2-.1-.3-.1-.2-.1a8.88,8.88,0,0,0-2.3.1.72.72,0,0,0-.4-.6A4.89,4.89,0,0,0,216.3,12.8Zm-6.9-.4c.8.3,1,.8,2.1.9-.5-.4.9-.7,1-.3-.4,0-.5.2-.5.5-1.1-.2-2.2-.5-3.4-.8C209,12.6,209.3,12.6,209.4,12.4Zm-9.7,1c-.2.1-.4.3-.4.4,0-.1,0-.1-.1-.1A2.19,2.19,0,0,1,199.7,13.4Zm-5.1,1.3c.1.6.4,1.1.5,1.6a3.55,3.55,0,0,0-.7.1c1,.1-1.1.1,0,.4-.7,0-1.1.1-1.5.1v.3c-3.6,0-6.2-.9-7.2-2A28.91,28.91,0,0,1,194.6,14.7Zm-40.9-6c-.1-.3,1.2-.4,1.7-.9.7,0,.1.7.7.7s.3-.4.3-.6c1,.1.9-.2,1.7-.1,2,1.1,3.8.5,6.2.7-.4-.9-1.1-.2-1-1,1.9.4,3.2.1,5.2.4-.1.7-1,.4-1.7.6a4.37,4.37,0,0,0,2.4.6c.4,0,.3-.3,0-.3.5-.3,1.8.4,2.1.7.9-.6,6.3-.7,6.2-.1,3.5-.3,4.7,1.5,7.6,1.9-.2.1-.4.3,0,.3,0,.1-1.8.1-.7.4a75.65,75.65,0,0,0-12.7-.6.61.61,0,0,1,.3-.7c-1.1-1.1-3.4.2-4.8-.7-1-.1-.9.2-1.7.1.3.4.5.2,1.4.1-1.1.2-1.3.7-2.1,1-.9-.1-1.4-.5-2.1,0-.3-.1-.5-.4-.7-.1-.5,0,.6-.7-1-.6,0-.4-.1-.7.3-.9-2.2.1-4.3-.5-7.2-.4.7-.3.1-.6-1-.4C153,8.7,153.4,8.7,153.7,8.7Zm-4.8,7.5c.9,0,.7.5.7.9C148.3,17.1,148.6,16.6,148.9,16.2Zm-3.5-9a5.48,5.48,0,0,0,2.1.3c-.6.2.2,1-1.4.7.6-.5,0-.5-1.4-.4.2-.1.3-.3.7-.3-.2-.1-.4-.2-.3-.4C145.4,7,145.4,7.1,145.4,7.2Zm-8.9-.3c.9.2,1.7-.4,1-.4,1.1-.4,4.7.1,3.8.6,1-.6,2.4,0,3.4.3-.1.6-.8.8-1.4,1.2a27.38,27.38,0,0,0-4.8-.6c-.1-.3.3-.3.7-.3C138.6,7.4,136.1,7.9,136.5,6.9Zm.3,9c.3.3,1.6.6.7,1-1.6-.6-4,.5-4.8-.7A30.09,30.09,0,0,0,136.8,15.9Zm-18.5-.7c0-.3-.4-.3-.3-.6.8-.1,1.6-.2,1.7-.6,1.9-.1,2.5.5,4.5.1-.2.3.5.3,1,.3.4,1.6-4.2,1.7-7.2,1-.3,0-.3.1-.3.1-1.1,0,.9-.4-.3-.4C117.5,14.9,117.9,15.2,118.3,15.2Zm-8.9-1.3c-.4.5,0,.3,0,.9-.3-.1-1.1-.7-1.4-.3-.5-.1.3-.3-.3-.3C107.7,13.8,108.5,13.8,109.4,13.9ZM90.8,6.1c.5.1.5.3,1,.3,0,.2-1.5.3-.3.4-.3.3-.6,0-1,0C90.8,6.7,90.9,6.5,90.8,6.1Zm-6.2,5.7a3,3,0,0,0,1.4.1v.3a1.64,1.64,0,0,1-1,.1.16.16,0,1,0-.3-.1C84.1,12.2,84.8,12,84.6,11.8Zm-34.3.6c1.1.7-2.6.7-2.4-.1C49.6,12.4,49.4,12.8,50.3,12.4Zm-6.2.3c-.3.5.5.5.7.1.9.1-.8.7.7.7.7,0,.2-.5.3-.7,1.1-.1,1.1.3,1,.7-1.6-.1-1,.7-.3.7-.6.2-4.1-.3-5.1.1-.6-.1-.4-.6-.7-.9C42.7,13.5,42.2,12.9,44.1,12.7ZM35.9,7.8c.1-.2.9-.1,1.4-.1-.2.1-.5.4,0,.4-.1.2-.9.1-1.4.1C35.8,8,36.5,7.8,35.9,7.8ZM29.7,9.4c.6,0,1,.8,1.7.3.7-.3-.3.5.3.7.4-.2.9-.1.3,0-.1.4,1.6-.1,1,.4,1.1.1.7-.4,1.7-.3-.5.3.2.4-.3.9-2.2.2-2.7-.3-4.1-.4-.5-.8-.2-1-1.4-1.5C29.1,9.3,29.6,9.7,29.7,9.4ZM29,11c.1-.2,1.1.4,1,.7-.5.1-.8-.6-1-.1C28.1,11.6,29.5,11.4,29,11ZM17.3,17.3c.3,0,.6,0,.7.1l-.7-.1Z"/></g></g></svg>