<svg xmlns="http://www.w3.org/2000/svg" viewBox="0 0 435.83 218.61"><defs><style>.cls-1{fill:#bd1e1e;}</style></defs><g id="Layer_2" data-name="Layer 2"><g id="Layer_1-2" data-name="Layer 1"><g id="Layer_1-2-2" data-name="Layer 1-2-2"><path class="cls-1" d="M0,72.3A67.48,67.48,0,0,1,1.25,58.85a5,5,0,0,1,5-2.84c1.94,0,3.79.8,3.79,2.64a13.2,13.2,0,0,0,12.47,13.9h.78A10.6,10.6,0,0,0,35,63.29v-.7C35,48,.6,44.2.6,21.13.6,10.61,8.72,0,27.31,0,37.67,0,48,2.64,49.33,4.24a45.56,45.56,0,0,1,1.4,15.29,5,5,0,0,1-5.48,4.34,3.24,3.24,0,0,1-3.64-2.74,1,1,0,0,1,0-.35,12.72,12.72,0,0,0-12-13.36H28.41A10,10,0,0,0,17.14,15.9v.54c0,16.1,35.93,19.09,35.93,40.67,0,11.86-9,23.27-28.6,23.27C12.06,80.43.35,76.19,0,72.3Z"/><path class="cls-1" d="M76.09,68.32c1.15-6.38.7-53.87,0-56.71S73.5,7.82,70,8.42a3,3,0,0,1-3.11-3,2.58,2.58,0,0,1,0-.48A3.42,3.42,0,0,1,69.82,1.2h.59a235.5,235.5,0,0,0,28.86,0,3.58,3.58,0,0,1,4,3.09,1.94,1.94,0,0,1,0,.59c0,2-1.29,3.89-3,3.64C96,8,94.68,9.07,94.18,11.71s-.74,48.29.35,56.51c.5,2.94,1.85,3.64,7.23,3.44a3.28,3.28,0,0,1,3.53,3v.51a3.73,3.73,0,0,1-3.38,4h0a288.06,288.06,0,0,0-32.19,0,3.69,3.69,0,0,1-4-3.34v-.65c0-1.94,1-3.68,3.19-3.53S75.4,72.21,76.09,68.32Z"/><path class="cls-1" d="M130.91,23.92c0,4.48,0,28.3.7,36.33s1.94,11.51,9,11.51a3.58,3.58,0,0,1,3.4,3.76,1.64,1.64,0,0,1,0,.22c0,2-1,3.54-2.94,3.44a210.77,210.77,0,0,0-26.36,0,3.59,3.59,0,0,1-3.34-3.82v0h0a3.29,3.29,0,0,1,2.94-3.53h.5c5.58,0,6.88-4.69,7.08-11.66s.45-29.9-.45-45.75c0-3.79,0-6.38-5-5.93a3.58,3.58,0,0,1-3.29-3.86v0A3.14,3.14,0,0,1,116,1.2h.77c6.27.69,22.62,0,22.62,0a6.17,6.17,0,0,1,5.78,4.33c4.58,13.36,12.81,31.74,18.39,44.1.94,2.24,3,1.9,4.13-.25,6.58-12.65,16.3-37,18.69-43.7a5.72,5.72,0,0,1,5.73-4.23h19.38c3.54,0,5,1.84,5,3.53s-1.25,3.54-2.74,3.44c-5.58-.35-5.68,1-5.93,6.48-.45,14.3-.45,37.47.35,51.72.25,3.44,1.14,5.68,6.72,5a3.29,3.29,0,0,1,3.69,2.83h0v.7a3.74,3.74,0,0,1-3.44,4,281.83,281.83,0,0,0-31.84,0c-2,0-3.09-1.84-3.09-3.79s1-3.73,3.09-3.73c5.83.35,7.87-.6,8.12-6.73.3-8.37,0-32,0-40.86,0-2.09-1.74-2.19-2.54-.35L165.09,77.94c-.8,1.69-6.82,1.79-7.52,0,0,0-15.4-34.89-24.22-54.57C132.45,21.78,130.91,21.88,130.91,23.92Z"/><path class="cls-1" d="M256.18,48.14c0-2,.7-3.09,3.19-3.69,7.08-1.6,11-8,11-17.54S266.45,7.82,255.39,8.42c-3.59,0-4,2.14-4.14,5-.8,13.81-.35,39.87.55,53.32,0,4,2.44,5,4.48,5a41.54,41.54,0,0,0,5,0,3.18,3.18,0,0,1,3.19,3.18v.45c0,2-1.15,4-3.19,3.89a271.74,271.74,0,0,0-32.54,0,3.34,3.34,0,0,1-3.54-3.13V76a2,2,0,0,1,0-.6c0-1.94,1.14-3.88,3.09-3.73s5.58,1.44,5.93-3.89c.79-14.15,0-47.29-.35-54.37,0-5-1.1-5-5.33-5a3.18,3.18,0,0,1-3.09-3.28h0V4.93a3.44,3.44,0,0,1,3.05-3.78H229c.79,0,5.93.49,14.94.49,5.83,0,9-.34,15-.34,13.11,0,28.66,6.27,28.66,23.62,0,18.58-13.91,26.36-28.06,26.36C257.43,51.33,256.38,50.53,256.18,48.14Z"/><path class="cls-1" d="M348.07,55.76c.8-4.23,8.87-3.09,8,3.54-.79,5.28-1.84,11.31-2.49,15s-1.39,5-5,5c-8.77,0-39.86-1.14-52.17,0a3.48,3.48,0,0,1-3.89-3h0v-.75a3.38,3.38,0,0,1,3-3.73h.54c3.09,0,5.93-.5,6.53-4.34,1.14-6.43,1-52.52.44-55.71s-2.74-3.79-6.62-3.19c-2.3.35-3.44-1.59-3.44-3.54a3.34,3.34,0,0,1,3-3.68h.49a305.8,305.8,0,0,0,32.89,0c3.08,0,4.33,1.59,4.33,3.43a3.64,3.64,0,0,1-3.34,3.89c-6.13-.55-9.22.45-9.67,3.29a413.06,413.06,0,0,0,.35,56c1,5.33,12.66,4.34,17.54,2.74C344.18,68.77,347.27,59.9,348.07,55.76Z"/><path class="cls-1" d="M404.38,67.32c.35,3.29,2.39,5,7.77,4.34a3.28,3.28,0,0,1,3.64,2.89,1.84,1.84,0,0,1,0,.74,3.54,3.54,0,0,1-3,3.89h-.6a294.57,294.57,0,0,0-33.88,0A3.79,3.79,0,0,1,374,76a5.34,5.34,0,0,1,0-.8,3.39,3.39,0,0,1,3-3.63h.5c2.94,0,7.73.55,8.22-3.54a112.76,112.76,0,0,0-.49-23.52A260.18,260.18,0,0,0,366,13.65c-1.94-2.94-3.89-5.48-7.27-5.33a3.44,3.44,0,0,1-3.44-3.44V4.34A3.13,3.13,0,0,1,358,.9h.65a248.4,248.4,0,0,0,29.89,0,3.64,3.64,0,0,1,4.19,3,2.44,2.44,0,0,1,0,.54c0,2-1.4,3.89-3.09,3.79-4.68-.55-6.28,2.14-4.48,5.48a134.06,134.06,0,0,0,10.51,16.45c1.49,1.94,3,1.79,4.43,0A124.18,124.18,0,0,0,411,14.3c1.84-3.29,1-6.48-5-5.78a3.44,3.44,0,0,1-3.43-3.44h0V4.73a3.23,3.23,0,0,1,2.94-3.43h.3A212.23,212.23,0,0,0,432,1.3a3.22,3.22,0,0,1,3.78,3.33c0,2-1.24,4-3.19,3.89a11.87,11.87,0,0,0-10,5.78,140,140,0,0,0-18.19,27.91A121.11,121.11,0,0,0,404.38,67.32Z"/><path class="cls-1" d="M81.08,108.18c-14,.45-56.66.8-70.21,0a4.64,4.64,0,0,0-5,4.24v.75c0,2.69,1.75,5.58,5,5,5.58-.45,8.27,0,8.47,4.14.59,26.41,1.09,55.26,0,76.24,0,3.83-1.1,8.47-9.52,7.82-2.89-.35-4.64,2.54-4.64,5.23a4.59,4.59,0,0,0,4.14,5h.85c9.42-.6,40.41-.45,47.59,0a5,5,0,0,0,5.72-4.11v0a6.55,6.55,0,0,0,0-1.4,5,5,0,0,0-4.67-5.28h-.57c-11.46,1.15-13.85-1.24-14.5-6.53-.3-3.18-.94-17.34-.64-24.51a4.24,4.24,0,0,1,4-4.44H58.9c6.18,0,8.07,3.34,8.07,10,0,2.34,2.75,3.79,5.44,3.79A5,5,0,0,0,78,179.74a3.49,3.49,0,0,0,0-1.44c-.35-8.28-.35-15.25,0-25.92a5,5,0,0,0-5-5l-.46,0c-2.74,0-5.24,1.25-5.24,3.64,0,6.68-1.44,8.42-10,9.07h-10a4.08,4.08,0,0,1-4.48-3.54,2.72,2.72,0,0,1,0-.9c0-3.84.35-24.91.49-29.9,0-4.13,1.25-7.32,8.28-7.32,18.93,0,24.91,2.54,24,13.35-.45,5.29,10.36,5.43,11.16,0,.65-4.43,1.59-14.3,1.89-18.14S88.3,107.83,81.08,108.18Z"/><path class="cls-1" d="M149.59,108c-29.3,0-49,18.79-49,46.1,0,29,18.24,47.88,49,47.88s49.84-20.28,49.84-47.88C199.23,125.32,180.44,108,149.59,108Zm3.49,84.12c-16.64,0-30.79-16.7-30.79-43,0-19.43,9.07-31.44,24.41-31.44,16.65,0,30.8,15.2,30.8,41.61C177.5,178.15,168.68,192.15,153.08,192.15Z"/><path class="cls-1" d="M257.63,108c-29.35,0-49.09,18.79-49.09,46.1,0,29,18.29,47.88,49.09,47.88s49.58-20.28,49.58-47.88C307.21,125.32,288.42,108,257.63,108Zm3.49,84.12c-16.7,0-30.85-16.7-30.85-43,0-19.43,9.07-31.44,24.42-31.44,16.69,0,30.79,15.2,30.79,41.61C285.38,178.15,276.71,192.15,261.12,192.15Z"/><path class="cls-1" d="M363.52,108H321.21a4.64,4.64,0,0,0-5,4.24V113c0,2.39,1.25,4.58,3.64,4.58,5,.35,8-.95,8.77,5a515.27,515.27,0,0,1-.3,77.39c-.8,5.88-3.39,6.83-8.77,6.18a4.49,4.49,0,0,0-5,3.93h0a3.62,3.62,0,0,0,0,1,5,5,0,0,0,5,5h45.54c45.25,0,65.43-21.83,65.43-56.06C430.69,124.43,403.33,108,363.52,108Zm7,98c-9.42,0-15.6-1.74-16.1-14.3-.3-13.55-.95-58.75,0-66.38.5-5.58,2.69-7.32,10-7.32,31,0,39.46,22,39.46,45.5C403.63,191.1,390.93,206.05,370.55,206.05Z"/><path class="cls-1" d="M183.58,209.19c-13.75.65-66.72.55-72.16.65a5,5,0,0,0-4.18,4.58c0,2.2,1.69,4.19,6.28,4.19,25.86-.65,56.7-.55,70.06-.45,3.54,0,5-1.84,5-3.94a5,5,0,0,0-5-5Z"/><path class="cls-1" d="M292.71,209.19c-13.75.65-66.72.55-72.16.65a5,5,0,0,0-4.13,4.58c0,2.2,1.64,4.19,6.23,4.19,25.86-.65,56.7-.55,70.06-.45,3.59,0,5-1.84,5-3.94a5,5,0,0,0-5-5Z"/></g></g></g></svg>