<svg xmlns="http://www.w3.org/2000/svg" viewBox="0 0 121.19 88.61"><defs><style>.cls-1{fill:none;}.cls-2{fill:#bd1e1e;}.cls-3{fill:#ffd45b;}.cls-4{fill:#fcfcfc;}.cls-5{fill:#5e1d15;}.cls-6{fill:#fee784;}.cls-7{fill:#fdf7ed;}</style></defs><g id="Layer_2" data-name="Layer 2"><g id="Layer_1-2" data-name="Layer 1"><rect class="cls-1" y="0.25" width="121" height="76"/><path class="cls-2" d="M3.8,67.62a5,5,0,0,0,5,5H87.09v0H112.8a5,5,0,0,0,5-5V0H3.8Z"/><path class="cls-2" d="M118.6,67.62a5.83,5.83,0,0,1-5.8,5.81H8.8A5.83,5.83,0,0,1,3,67.62V0H.41V70a5.8,5.8,0,0,0,5.8,5.8H115.38A5.81,5.81,0,0,0,121.19,70V0H118.6Z"/><path class="cls-3" d="M8.8,73.43h104a5.83,5.83,0,0,0,5.8-5.81V0h-.8V67.64a5,5,0,0,1-5,5H87.09v0H8.8a5,5,0,0,1-5-5V0H3V67.62A5.83,5.83,0,0,0,8.8,73.43Z"/><path class="cls-4" d="M4.63,88.51l-.34-.41a.11.11,0,0,0-.13,0,2.65,2.65,0,0,1-1,.19,2.27,2.27,0,0,1-2.34-2.2h0a1.7,1.7,0,0,1,0-.45v-2.7a2.27,2.27,0,0,1,1.89-2.58h0a2.54,2.54,0,0,1,.39,0,2.28,2.28,0,0,1,2.33,2.21,2.67,2.67,0,0,1,0,.4v2.7a4,4,0,0,1-.1.91.2.2,0,0,0,0,.15l.42.52a.34.34,0,0,1,0,.46l-.76.8a.22.22,0,0,1-.3.07A.23.23,0,0,1,4.63,88.51ZM3.14,86.4c.68,0,.73-.5.73-1.33V83.52c0-.83-.05-1.34-.73-1.34s-.72.51-.72,1.34v1.55C2.42,85.9,2.47,86.4,3.14,86.4Z"/><path class="cls-4" d="M8.41,80.84v4.23c0,.83.05,1.33.72,1.33s.72-.5.72-1.33V80.84c0-.21.1-.32.28-.32h1c.18,0,.28.11.28.32v4.8a2.29,2.29,0,0,1-1.92,2.61H9.13A2.28,2.28,0,0,1,6.81,86a2.67,2.67,0,0,1,0-.4v-4.8c0-.21.1-.32.27-.32h1C8.32,80.52,8.41,80.63,8.41,80.84Z"/><path class="cls-4" d="M17.32,83.13V87.7c0,.23-.09.36-.27.36H16c-.17,0-.27-.11-.27-.32V86.8c0-.21-.09-.32-.27-.32h-.79c-.17,0-.27.11-.27.32v.94c0,.21-.1.32-.28.32h-1c-.18,0-.28-.13-.28-.36V83.13c0-1.36.19-2.8,2.24-2.8S17.32,81.77,17.32,83.13Zm-1.57,1.12V83.13c0-.52-.06-.78-.67-.78s-.66.26-.66.78V84.3c0,.21.1.33.27.33h.79C15.66,84.61,15.75,84.51,15.75,84.25Z"/><path class="cls-4" d="M19.07,80.52h1c.18,0,.28.11.28.32v5c0,.2.1.32.27.32h2c.18,0,.27.11.27.32v1.21c0,.21-.09.32-.27.32H19.07c-.18,0-.28-.12-.28-.32v-6.9a.25.25,0,0,1,.23-.27Z"/><path class="cls-4" d="M24.4,80.52h1c.19,0,.28.11.28.32v6.9c0,.2-.09.32-.28.32h-1c-.18,0-.28-.12-.28-.32v-6.9C24.12,80.63,24.22,80.52,24.4,80.52Z"/><path class="cls-4" d="M28.66,87.74v-5c0-.22-.09-.33-.28-.33H27.1c-.17,0-.27-.12-.27-.32V80.84c0-.21.1-.32.27-.32h4.68c.19,0,.28.11.28.32v1.21c0,.2-.09.32-.28.32H30.5c-.17,0-.27.11-.27.33v5c0,.2-.09.32-.27.32H29C28.76,88.06,28.66,87.94,28.66,87.74Z"/><path class="cls-4" d="M33.14,80.52h1.31a.3.3,0,0,1,.31.25l.68,2c0,.1.09.1.13,0l.67-2a.32.32,0,0,1,.32-.25h1.3c.21,0,.3.15.21.38l-1.63,4.35a.29.29,0,0,0,0,.13v2.4c0,.2-.09.32-.28.32h-1.3c-.17,0-.27-.12-.27-.32v-2.4a.29.29,0,0,0,0-.13L33,80.94C32.83,80.67,32.93,80.52,33.14,80.52Z"/><path class="cls-4" d="M42.93,80.52h3.93c.18,0,.27.11.27.32v1.21c0,.2-.09.32-.27.32H44.55c-.17,0-.27.11-.27.33V83c0,.21.1.32.27.32h1.51c.18,0,.28.11.28.33v1.2c0,.21-.1.33-.28.33H44.55c-.17,0-.27.11-.27.32v2.2c0,.2-.09.32-.28.32H42.93c-.18,0-.28-.12-.28-.32v-6.9C42.65,80.63,42.75,80.52,42.93,80.52Z"/><path class="cls-4" d="M50.39,88.25A2.28,2.28,0,0,1,48.07,86a2.67,2.67,0,0,1,0-.4v-2.7a2.31,2.31,0,1,1,4.59-.53h0a2.35,2.35,0,0,1,0,.53v2.7a2.27,2.27,0,0,1-1.86,2.62h0A2.54,2.54,0,0,1,50.39,88.25Zm0-6.08c-.67,0-.72.51-.72,1.34v1.55c0,.83,0,1.33.72,1.33s.73-.5.73-1.33V83.52c0-.83,0-1.34-.73-1.34Z"/><path class="cls-4" d="M56.32,88.25A2.27,2.27,0,0,1,54,86a1.34,1.34,0,0,1,0-.4v-2.7a2.31,2.31,0,0,1,4.59-.53,2.35,2.35,0,0,1,0,.53v2.7a2.25,2.25,0,0,1-1.85,2.6h-.42Zm0-6.08c-.68,0-.72.51-.72,1.34v1.55c0,.83,0,1.33.72,1.33s.72-.5.72-1.33V83.52c0-.83,0-1.34-.72-1.34Z"/><path class="cls-4" d="M64.64,83.11v2.36c0,1.76-.57,2.59-2.29,2.59h-2c-.17,0-.27-.12-.27-.32V80.85q0-.31.27-.33h2C64.07,80.52,64.64,81.34,64.64,83.11ZM63,85.48V83.11c0-.67-.22-.74-.66-.74h-.49c-.18,0-.28.11-.28.33v3.19c0,.2.1.32.28.32h.49C62.82,86.25,63,86.12,63,85.48Z"/><path class="cls-4" d="M72.3,82.92a.79.79,0,0,0-.8-.72.49.49,0,0,0-.54.44h0v.06c.13.84,3,.82,3,3.29a2.35,2.35,0,0,1-2.44,2.26h0a2.25,2.25,0,0,1-2.37-2.1v-.22a.31.31,0,0,1,.23-.36l1-.27c.18,0,.28.06.3.28a.79.79,0,0,0,.76.82h0c.45,0,.78-.31.72-.6-.17-.92-2.92-.71-2.92-3.19a2.12,2.12,0,0,1,2-2.23h.17a2.25,2.25,0,0,1,2.38,2.1v.12a.3.3,0,0,1-.24.35h0l-1,.27C72.42,83.25,72.32,83.14,72.3,82.92Z"/><path class="cls-4" d="M75.52,80.52h1c.18,0,.27.11.27.32v6.9c0,.2-.09.32-.27.32h-1c-.18,0-.28-.12-.28-.32v-6.9C75.24,80.63,75.34,80.52,75.52,80.52Z"/><path class="cls-4" d="M78.59,80.52h1.34a.32.32,0,0,1,.32.25l1.24,3.59a.06.06,0,0,0,.11,0,0,0,0,0,0,0,0V80.84c0-.21.1-.32.28-.32h1c.18,0,.27.11.27.32v6.9c0,.2-.09.32-.27.32H81.56a.31.31,0,0,1-.32-.25L80,84.25c0-.1-.11-.08-.11,0v3.48c0,.2-.09.32-.27.32h-1c-.18,0-.28-.12-.28-.32v-6.9C78.31,80.63,78.41,80.52,78.59,80.52Z"/><path class="cls-4" d="M86.9,80.33a2.2,2.2,0,0,1,2.29,2.09v.28a.27.27,0,0,1-.2.3l-1,.25a.35.35,0,0,1-.36-.34h0c0-.47-.21-.75-.7-.75-.68,0-.73.51-.73,1.34v1.55c0,.83,0,1.33.73,1.33.5,0,.64-.28.69-.77a.28.28,0,0,1,.19-.36.28.28,0,0,1,.18,0l1,.27a.29.29,0,0,1,.2.32,2.19,2.19,0,0,1-2,2.37H86.9A2.29,2.29,0,0,1,84.57,86a2.54,2.54,0,0,1,0-.39v-2.7a2.28,2.28,0,0,1,1.92-2.58A1.88,1.88,0,0,1,86.9,80.33Z"/><path class="cls-4" d="M90.69,80.52h3.84c.18,0,.27.11.27.32v1.21c0,.2-.09.32-.27.32H92.32c-.18,0-.28.11-.28.33V83c0,.21.1.32.28.32h1.41c.19,0,.28.11.28.33v1.2c0,.21-.09.33-.28.33H92.32c-.18,0-.28.11-.28.32v.35c0,.2.1.32.28.32h2.21c.18,0,.27.11.27.32v1.21c0,.21-.09.32-.27.32H90.69c-.17,0-.27-.12-.27-.32v-6.9C90.42,80.63,90.52,80.52,90.69,80.52Z"/><path class="cls-4" d="M100.77,80.52h.76c.18,0,.28.11.28.32v6.9c0,.2-.1.32-.28.32h-1c-.18,0-.28-.12-.28-.32V83c0-.22-.09-.32-.27-.32h-.4c-.17,0-.27-.12-.27-.33v-.58a.46.46,0,0,1,.18-.39l1.17-.83A.2.2,0,0,1,100.77,80.52Z"/><path class="cls-4" d="M104.1,87.67a11.11,11.11,0,0,0,1.49-2.29c0-.08,0-.13-.1-.13a2.07,2.07,0,0,1-2.16-2v0a1.61,1.61,0,0,1,0-.31,2.31,2.31,0,0,1,4.59-.53,2.35,2.35,0,0,1,0,.53,10.51,10.51,0,0,1-2,4.94.4.4,0,0,1-.33.18h-1.34C104,88.06,103.93,87.88,104.1,87.67Zm2.26-4.92c0-.55-.29-.81-.73-.81a.71.71,0,0,0-.73.69h0v.12c0,.55.29.81.72.81a.72.72,0,0,0,.74-.68A.29.29,0,0,0,106.36,82.75Z"/><path class="cls-4" d="M112.91,80.88a8.3,8.3,0,0,0-1.68,2.31c0,.09,0,.13.11.12a2.11,2.11,0,0,1,2.28,1.91,2,2,0,0,1,0,.42,2.32,2.32,0,1,1-4.59.68h0a2.58,2.58,0,0,1,0-.68,7.47,7.47,0,0,1,2.08-5,.43.43,0,0,1,.34-.13h1.37C113.07,80.52,113.1,80.68,112.91,80.88Zm-2.32,5c0,.55.28.81.72.81A.71.71,0,0,0,112,86h0v-.12c0-.55-.28-.81-.72-.81a.71.71,0,0,0-.72.7h0v.11Z"/><path class="cls-4" d="M117.17,88.25c-2.16,0-2.29-2.56-2.29-4s.07-4,2.29-4,2.3,2.55,2.3,4S119.34,88.25,117.17,88.25Zm-.72-4c0,1.09,0,2.11.72,2.11s.72-1,.72-2.11,0-2.11-.72-2.11S116.45,83.25,116.45,84.25Z"/><path class="cls-5" d="M17.73,29.89a13.57,13.57,0,0,1,.25-2.7,1,1,0,0,1,1-.57c.39,0,.76.16.76.53a2.65,2.65,0,0,0,2.5,2.79h.16a2.13,2.13,0,0,0,2.35-1.86v-.14c0-2.93-6.9-3.69-6.9-8.32,0-2.11,1.63-4.24,5.36-4.24,2.08,0,4.15.53,4.42.85a9.08,9.08,0,0,1,.28,3.07,1,1,0,0,1-1.1.87.65.65,0,0,1-.73-.55v-.07a2.55,2.55,0,0,0-2.41-2.68h-.24a2,2,0,0,0-2.26,1.7v.11c0,3.23,7.21,3.83,7.21,8.16,0,2.38-1.81,4.67-5.74,4.67C20.15,31.52,17.8,30.67,17.73,29.89Z"/><path class="cls-5" d="M33,29.09c.23-1.28.14-10.81,0-11.38s-.52-.76-1.23-.64a.61.61,0,0,1-.63-.59s0-.07,0-.1a.69.69,0,0,1,.59-.76h.12a46.61,46.61,0,0,0,5.79,0,.72.72,0,0,1,.8.62v.12c0,.39-.26.78-.6.73-.85-.11-1.12.11-1.22.64s-.15,9.69.07,11.34c.1.59.37.73,1.45.69a.66.66,0,0,1,.71.61h0v.1a.75.75,0,0,1-.68.8h0a58,58,0,0,0-6.46,0,.74.74,0,0,1-.8-.67v-.13c0-.39.2-.74.64-.71S32.86,29.87,33,29.09Z"/><path class="cls-5" d="M44,20.18c0,.9,0,5.68.14,7.29s.39,2.31,1.81,2.31a.72.72,0,0,1,.68.75v0c0,.39-.2.71-.59.69a42.44,42.44,0,0,0-5.29,0,.72.72,0,0,1-.67-.77h0a.66.66,0,0,1,.59-.71h.1c1.12,0,1.38-.94,1.42-2.34s.09-6-.09-9.18c0-.76,0-1.28-1-1.19a.72.72,0,0,1-.66-.77h0a.63.63,0,0,1,.58-.68h.15c1.26.14,4.54,0,4.54,0a1.24,1.24,0,0,1,1.16.87c.92,2.68,2.57,6.37,3.69,8.85.19.45.6.38.83-.05,1.32-2.54,3.27-7.42,3.75-8.77a1.15,1.15,0,0,1,1.15-.85h3.89c.71,0,1,.37,1,.71s-.25.71-.55.69c-1.12-.07-1.14.2-1.19,1.3-.09,2.87-.09,7.52.07,10.38.05.69.23,1.14,1.35,1a.66.66,0,0,1,.74.57h0v.14a.75.75,0,0,1-.69.8,56.76,56.76,0,0,0-6.39,0c-.41,0-.62-.37-.62-.76s.21-.75.62-.75c1.17.07,1.58-.12,1.63-1.35.06-1.68,0-6.42,0-8.2,0-.42-.35-.44-.51-.07L50.86,31c-.16.34-1.37.36-1.51,0,0,0-3.09-7-4.86-10.95C44.31,19.75,44,19.77,44,20.18Z"/><path class="cls-5" d="M69.14,25c0-.39.14-.62.64-.74C71.2,24,72,22.7,72,20.78S71.2,17,69,17.07c-.72,0-.81.43-.83,1-.16,2.77-.07,8,.11,10.7,0,.8.49,1,.9,1a8.34,8.34,0,0,0,1,0,.64.64,0,0,1,.64.64v.09c0,.39-.23.8-.64.78a54.72,54.72,0,0,0-6.53,0,.67.67,0,0,1-.71-.63h0a.24.24,0,0,1,0-.12c0-.39.23-.78.62-.75s1.12.29,1.19-.78c.16-2.84,0-9.49-.07-10.91,0-1-.22-1-1.07-1a.64.64,0,0,1-.62-.66h0v-.05a.69.69,0,0,1,.61-.76h.1c.16,0,1.19.1,3,.1,1.17,0,1.81-.07,3-.07,2.63,0,5.75,1.26,5.75,4.74,0,3.73-2.79,5.29-5.63,5.29C69.39,25.68,69.18,25.52,69.14,25Z"/><path class="cls-5" d="M87.58,26.57c.16-.85,1.78-.62,1.6.71-.16,1.06-.37,2.27-.5,3s-.28,1-1,1c-1.76,0-8-.23-10.47,0a.7.7,0,0,1-.78-.61h0v-.15a.68.68,0,0,1,.6-.75h.11c.62,0,1.19-.1,1.31-.87.23-1.29.2-10.54.09-11.18S78,17,77.21,17.08c-.46.07-.69-.32-.69-.71a.67.67,0,0,1,.59-.74h.1a60.55,60.55,0,0,0,6.6,0c.62,0,.87.32.87.69a.73.73,0,0,1-.67.78c-1.23-.11-1.85.09-1.94.66A82.53,82.53,0,0,0,82.14,29c.2,1.07,2.54.87,3.52.55C86.8,29.18,87.42,27.4,87.58,26.57Z"/><path class="cls-5" d="M98.88,28.89c.07.66.48,1,1.56.87a.66.66,0,0,1,.73.58.38.38,0,0,1,0,.15.71.71,0,0,1-.61.78h-.12a59.33,59.33,0,0,0-6.8,0,.76.76,0,0,1-.86-.64v-.16a.68.68,0,0,1,.61-.73h.1c.59,0,1.55.11,1.65-.71a22.58,22.58,0,0,0-.1-4.72,52.11,52.11,0,0,0-3.87-6.19c-.39-.59-.78-1.1-1.46-1.07a.69.69,0,0,1-.69-.69v-.11a.64.64,0,0,1,.56-.69h.13a50,50,0,0,0,6,0,.73.73,0,0,1,.84.6v.11c0,.39-.28.78-.62.76-.94-.11-1.26.43-.9,1.1a27.14,27.14,0,0,0,2.11,3.3c.3.39.6.36.89,0a24.52,24.52,0,0,0,2.18-3.18c.37-.66.21-1.3-1-1.16a.69.69,0,0,1-.69-.69h0v-.07a.65.65,0,0,1,.59-.69h.06a42,42,0,0,0,5.26,0,.65.65,0,0,1,.76.67c0,.39-.25.8-.64.78a2.38,2.38,0,0,0-2,1.16,27.64,27.64,0,0,0-3.65,5.6A24.26,24.26,0,0,0,98.88,28.89Z"/><path class="cls-6" d="M15.82,28.94a14.35,14.35,0,0,1,.25-2.7,1,1,0,0,1,1-.57c.39,0,.75.16.75.52A2.66,2.66,0,0,0,20.33,29h.15a2.13,2.13,0,0,0,2.35-1.86V27c0-2.93-6.89-3.68-6.89-8.31,0-2.11,1.62-4.24,5.36-4.24a9.62,9.62,0,0,1,4.42.85c.3.21.3,2.18.27,3.07a1,1,0,0,1-1.1.87.63.63,0,0,1-.72-.53h0v-.08a2.56,2.56,0,0,0-2.43-2.68h-.23a2,2,0,0,0-2.25,1.71v.1c0,3.23,7.21,3.83,7.21,8.16,0,2.38-1.81,4.67-5.75,4.67C18.25,30.57,15.89,29.72,15.82,28.94Z"/><path class="cls-6" d="M31.09,28.14c.23-1.28.14-10.81,0-11.38s-.53-.76-1.24-.65c-.41.05-.62-.29-.62-.68a.69.69,0,0,1,.59-.76h.12a46.77,46.77,0,0,0,5.8,0,.73.73,0,0,1,.8.64v.09c0,.39-.25.78-.6.74-.84-.12-1.12.11-1.21.64s-.16,9.69.07,11.34c.09.59.37.73,1.44.68a.67.67,0,0,1,.71.63h0v.08a.74.74,0,0,1-.66.81h0a58,58,0,0,0-6.46,0,.73.73,0,0,1-.8-.65v-.16c0-.39.21-.73.64-.71S31,28.92,31.09,28.14Z"/><path class="cls-6" d="M42.11,19.25c0,.89,0,5.68.13,7.28s.39,2.32,1.81,2.32a.73.73,0,0,1,.69.77v0c0,.39-.21.71-.59.69a42.6,42.6,0,0,0-5.3,0,.72.72,0,0,1-.66-.77h0a.66.66,0,0,1,.59-.71h.1c1.12,0,1.37-.94,1.42-2.34s.09-6-.09-9.18c0-.76,0-1.29-1-1.2a.72.72,0,0,1-.67-.77.63.63,0,0,1,.58-.68h.16c1.26.14,4.53,0,4.53,0a1.23,1.23,0,0,1,1.17.87c.92,2.68,2.56,6.37,3.69,8.84.18.46.59.39.82,0q2.1-4.29,3.76-8.78a1.15,1.15,0,0,1,1.14-.84h3.9c.71,0,1,.36,1,.71s-.25.71-.55.68c-1.12-.06-1.15.21-1.19,1.31-.09,2.86-.09,7.51.07,10.38,0,.68.23,1.14,1.35,1a.66.66,0,0,1,.73.58v.13a.76.76,0,0,1-.68.81,56.93,56.93,0,0,0-6.4,0c-.41,0-.61-.37-.61-.76s.2-.76.61-.76c1.17.07,1.58-.11,1.63-1.35.07-1.67,0-6.41,0-8.2,0-.41-.34-.43-.5-.07L49,30.06c-.17.35-1.38.37-1.52,0,0,0-3.09-7-4.85-10.94C42.4,18.79,42.08,18.82,42.11,19.25Z"/><path class="cls-6" d="M67.23,24.09c0-.39.14-.62.65-.74,1.42-.32,2.19-1.6,2.19-3.52s-.77-3.83-3-3.72c-.71,0-.8.44-.82,1-.16,2.77-.07,8,.11,10.7,0,.8.48,1,.89,1a6.25,6.25,0,0,0,1.06,0,.66.66,0,0,1,.64.68v0h0c0,.39-.23.8-.64.78a54.72,54.72,0,0,0-6.53,0,.67.67,0,0,1-.71-.63h0a.24.24,0,0,1,0-.12c0-.39.23-.78.62-.76s1.12.3,1.19-.77c.16-2.84,0-9.49-.07-10.91,0-1-.23-1-1.08-1a.63.63,0,0,1-.61-.65v0h0a.69.69,0,0,1,.59-.76h.12c.16,0,1.19.09,3,.09,1.17,0,1.81-.07,3-.07,2.63,0,5.75,1.26,5.75,4.75,0,3.73-2.8,5.29-5.64,5.29C67.49,24.73,67.28,24.57,67.23,24.09Z"/><path class="cls-6" d="M85.67,25.62c.16-.85,1.79-.62,1.61.71-.16,1.05-.37,2.27-.51,3s-.27,1-1,1c-1.76,0-8-.23-10.46,0a.7.7,0,0,1-.78-.61h0v-.15a.69.69,0,0,1,.61-.76h.1c.62.05,1.19-.09,1.3-.87.23-1.28.21-10.53.1-11.17s-.55-.76-1.33-.65c-.46.07-.69-.32-.69-.71a.68.68,0,0,1,.61-.73h.08a60.36,60.36,0,0,0,6.59,0c.62,0,.87.32.87.69s-.27.8-.66.78c-1.24-.12-1.86.09-2,.66A84.17,84.17,0,0,0,80.18,28c.21,1.07,2.54.87,3.53.55S85.51,26.45,85.67,25.62Z"/><path class="cls-6" d="M97,27.93c.07.67.48,1,1.55.87a.67.67,0,0,1,.74.59.38.38,0,0,1,0,.15.71.71,0,0,1-.61.78h-.13a59.33,59.33,0,0,0-6.8,0,.76.76,0,0,1-.86-.65h0v-.14a.7.7,0,0,1,.62-.74h.09c.6,0,1.56.12,1.65-.71a21.81,21.81,0,0,0-.09-4.71,53.43,53.43,0,0,0-3.87-6.19c-.39-.59-.78-1.1-1.47-1.08a.67.67,0,0,1-.68-.66v-.09a.62.62,0,0,1,.54-.69h.14a50,50,0,0,0,6,0,.72.72,0,0,1,.84.58h0v.13c0,.39-.27.78-.62.76-.94-.12-1.26.43-.89,1.1a25.29,25.29,0,0,0,2.11,3.3c.29.38.59.36.89,0a27.18,27.18,0,0,0,2.16-3.27c.36-.66.2-1.3-1-1.17-.44.05-.69-.36-.69-.75a.65.65,0,0,1,.59-.69h.05a42.12,42.12,0,0,0,5.27,0,.65.65,0,0,1,.76.67c0,.39-.26.8-.65.77a2.42,2.42,0,0,0-2,1.17A28.6,28.6,0,0,0,97,22.89,25,25,0,0,0,97,27.93Z"/><path class="cls-5" d="M34,37.09c-2.81.09-11.37.16-14.09,0a.93.93,0,0,0-1,.85v.15c0,.54.35,1.12,1,1,1.12-.09,1.66,0,1.7.83.12,5.3.22,11.09,0,15.3,0,.77-.22,1.7-1.91,1.57-.58-.07-.93.51-.93,1.05a.91.91,0,0,0,.83,1h.17c1.89-.12,8.11-.09,9.55,0A1,1,0,0,0,30.47,58h0a1.31,1.31,0,0,0,0-.28,1,1,0,0,0-.94-1.06h-.11c-2.3.23-2.78-.25-2.91-1.31-.06-.64-.19-3.48-.13-4.92a.85.85,0,0,1,.8-.89h2.37c1.24,0,1.62.67,1.62,2,0,.47.55.76,1.09.76a1,1,0,0,0,1.12-.86.71.71,0,0,0,0-.29c-.07-1.66-.07-3.06,0-5.2a1,1,0,0,0-1-1h-.09c-.55,0-1.05.25-1.05.73,0,1.34-.29,1.69-2,1.82h-2a.82.82,0,0,1-.9-.71.54.54,0,0,1,0-.18c0-.77.07-5,.1-6,0-.83.25-1.47,1.66-1.47,3.8,0,5,.51,4.82,2.68-.09,1.06,2.08,1.09,2.24,0,.13-.89.32-2.87.38-3.64S35.45,37,34,37.09Z"/><path class="cls-5" d="M47.75,37.06c-5.88,0-9.84,3.77-9.84,9.25,0,5.81,3.66,9.61,9.84,9.61s10-4.07,10-9.61C57.71,40.53,53.94,37.06,47.75,37.06Zm.7,16.88c-3.34,0-6.18-3.35-6.18-8.62,0-3.9,1.82-6.31,4.9-6.31,3.34,0,6.18,3.05,6.18,8.35C53.35,51.13,51.58,53.94,48.45,53.94Z"/><path class="cls-5" d="M69.43,37.06c-5.89,0-9.85,3.77-9.85,9.25,0,5.81,3.67,9.61,9.85,9.61s9.95-4.07,9.95-9.61C79.38,40.53,75.61,37.06,69.43,37.06Zm.7,16.88c-3.35,0-6.19-3.35-6.19-8.62,0-3.9,1.82-6.31,4.9-6.31C72.19,39,75,42.06,75,47.36,75,51.13,73.26,53.94,70.13,53.94Z"/><path class="cls-5" d="M90.68,37.06H82.19a.93.93,0,0,0-1,.85v.15c0,.48.25.92.73.92,1,.07,1.6-.19,1.76,1a103.22,103.22,0,0,1-.06,15.53c-.16,1.18-.68,1.37-1.76,1.24a.9.9,0,0,0-1,.79h0a.74.74,0,0,0,0,.21,1,1,0,0,0,1,1H91c9.08,0,13.13-4.38,13.13-11.25C104.16,40.35,98.67,37.06,90.68,37.06Zm1.41,19.67c-1.89,0-3.13-.35-3.23-2.87-.06-2.72-.19-11.79,0-13.32.1-1.12.54-1.47,2-1.47,6.23,0,7.92,4.41,7.92,9.13C98.73,53.73,96.18,56.73,92.09,56.73Z"/><path class="cls-5" d="M54.57,57.36c-2.76.13-13.39.11-14.48.13a1,1,0,0,0-.84.92c0,.44.34.84,1.26.84,5.19-.13,11.38-.11,14.06-.09.71,0,1-.37,1-.79a1,1,0,0,0-1-1Z"/><path class="cls-5" d="M76.47,57.36c-2.76.13-13.39.11-14.48.13a1,1,0,0,0-.83.92c0,.44.33.84,1.25.84,5.19-.13,11.38-.11,14.06-.09.72,0,1-.37,1-.79a1,1,0,0,0-1-1Z"/><path class="cls-7" d="M32.11,36.14c-2.82.09-11.38.16-14.09,0A.93.93,0,0,0,17,37v.15c0,.54.35,1.11,1,1,1.12-.1,1.66,0,1.69.83.13,5.3.22,11.08,0,15.3,0,.77-.22,1.69-1.92,1.57-.57-.07-.92.51-.92,1a.93.93,0,0,0,.85,1h.15c1.88-.12,8.11-.09,9.55,0A1,1,0,0,0,28.57,57h0a1.41,1.41,0,0,0,0-.29,1,1,0,0,0-1-1h-.06c-2.3.22-2.78-.25-2.9-1.31-.07-.64-.2-3.48-.13-4.92a.84.84,0,0,1,.78-.89h2.38c1.25,0,1.63.68,1.63,1.95,0,.48.54.77,1.09.77a1,1,0,0,0,1.11-.87,1.31,1.31,0,0,0,0-.28c-.06-1.66-.06-3.07,0-5.21a1,1,0,0,0-1-1h-.09c-.54,0-1.05.26-1.05.74,0,1.34-.29,1.69-2,1.82h-2a.81.81,0,0,1-.89-.72.49.49,0,0,1,0-.17c0-.77.06-5,.09-6,0-.83.26-1.47,1.67-1.47,3.8,0,5,.51,4.82,2.68-.1,1.06,2.08,1.09,2.23,0,.13-.89.33-2.87.39-3.64S33.54,36.07,32.11,36.14Z"/><path class="cls-7" d="M45.85,36.1C40,36.1,36,39.88,36,45.36c0,5.81,3.67,9.6,9.85,9.6s9.95-4.06,9.95-9.6C55.8,39.58,52,36.1,45.85,36.1ZM46.55,53c-3.35,0-6.18-3.34-6.18-8.61,0-3.91,1.81-6.31,4.89-6.31,3.35,0,6.18,3,6.18,8.34C51.44,50.18,49.68,53,46.55,53Z"/><path class="cls-7" d="M67.53,36.1c-5.89,0-9.85,3.78-9.85,9.26,0,5.81,3.67,9.6,9.85,9.6s10-4.06,10-9.6C77.48,39.58,73.71,36.1,67.53,36.1ZM68.22,53C64.88,53,62,49.64,62,44.37c0-3.91,1.82-6.31,4.9-6.31,3.34,0,6.18,3,6.18,8.34C73.12,50.18,71.35,53,68.22,53Z"/><path class="cls-7" d="M88.78,36.1h-8.5a.94.94,0,0,0-1,.88h0v.12c0,.47.26.92.74.92,1,.07,1.59-.19,1.76,1a100.65,100.65,0,0,1-.07,15.53c-.16,1.18-.67,1.37-1.76,1.24a.9.9,0,0,0-1,.79h0a.74.74,0,0,0,0,.21,1,1,0,0,0,1,1h9.13c9.07,0,13.13-4.37,13.13-11.24C102.26,39.39,96.77,36.1,88.78,36.1Zm1.4,19.68c-1.88,0-3.13-.35-3.22-2.87-.07-2.72-.19-11.79,0-13.32.09-1.12.54-1.47,2-1.47,6.23,0,7.92,4.4,7.92,9.13C96.83,52.78,94.27,55.78,90.18,55.78Z"/><path class="cls-7" d="M52.67,56.4c-2.76.14-13.4.11-14.48.14a1,1,0,0,0-.84.92c0,.44.34.84,1.26.84,5.19-.13,11.39-.11,14.06,0,.71,0,1-.37,1-.79a1,1,0,0,0-.94-1.06h0Z"/><path class="cls-7" d="M74.57,56.4c-2.76.14-13.39.11-14.48.14a1,1,0,0,0-.84.92c0,.44.34.84,1.26.84,5.19-.13,11.38-.11,14.06-.09.71,0,1-.37,1-.79a1,1,0,0,0-1-1Z"/></g></g></svg>