<svg xmlns="http://www.w3.org/2000/svg" viewBox="0 0 428.32 77.63"><g id="Layer_2" data-name="Layer 2"><g id="Layer_1-2" data-name="Layer 1"><circle cx="38.81" cy="38.81" r="38.81"/><path d="M94.81,44.77V17.18h12.3V41.11c0,4.74.54,9.34,6.76,9.34s6.77-4.6,6.77-9.34V17.18h12.3V44.63c0,10.68-6.76,16.5-19.07,16.5C101.3,61.27,94.81,55.31,94.81,44.77Z"/><path d="M136.19,54.91l5.95-8.25a13.44,13.44,0,0,0,10.14,5c3.25,0,5.14-1.35,5.14-3.92,0-3-2.7-3.92-7.44-5.27-6.22-1.9-11.76-5.14-11.76-12.58,0-8.12,6.76-13.66,16.23-13.66,6.62,0,11.49,2,14.74,5l-5.55,8.25a11.23,11.23,0,0,0-8.52-3.78c-3.24,0-4.59,1.35-4.59,3,0,2.71,3.24,3.38,6.76,4.6,7,2.16,12.44,5.41,12.44,13.39,0,8.25-5.95,14.47-16.77,14.47C145,61.27,138.89,57.88,136.19,54.91Z"/><path d="M186.23,17.18h13.52l16.1,43.14H203l-2-6.22H184.74l-2,6.22H170.14C170.27,60.32,186.23,17.18,186.23,17.18Zm11.63,27.18L194.48,34a40,40,0,0,1-1.49-6.5h-.4A41.12,41.12,0,0,1,191.1,34l-3.38,10.41Z"/><path d="M233.7,27.18H223v-10h33.67v10H246V60.32H233.7Z"/><path d="M257.5,38.81c0-10.68,7.58-22.45,23.67-22.45s23.67,11.91,23.67,22.45-7.58,22.32-23.67,22.32S257.5,49.5,257.5,38.81Zm34.76,0c0-7.7-5-11.76-11.09-11.76s-10.95,4.06-10.95,11.76,5,11.64,10.95,11.64S292.26,46.52,292.26,38.81Z"/><path d="M309.3,17.18h16c15.28,0,23.94,8.11,23.94,21.63,0,13.26-8.93,21.64-23.94,21.64h-16V17.18Zm12.44,33.27h2.71c8,0,12.17-3.79,12.17-11.64s-4.19-11.63-12.17-11.63h-2.71Z"/><path d="M363.53,17.18h13.53l16.09,43.14H380.3l-2-6.22H362.05l-2,6.22H347.44C347.58,60.32,363.53,17.18,363.53,17.18Zm11.63,27.18L371.78,34a41.06,41.06,0,0,1-1.48-6.5h-.41A40,40,0,0,1,368.4,34L365,44.36Z"/><path d="M399.1,45,383,17.31h13.52L402.35,28c1.22,2.29,3,5.68,3.38,8H406a29,29,0,0,1,3.38-8l5.82-10.69h13.12L412.22,45V60.45h-13V45Z"/></g></g></svg>